<svg xmlns="http://www.w3.org/2000/svg" viewBox="0 0 1920 1080"><defs><style>.cls-1,.cls-2{fill:none;}.cls-2{stroke:#000;stroke-miterlimit:10;stroke-width:3px;opacity:0.1;}</style></defs><title>bg_3</title><g id="Layer_2" data-name="Layer 2"><g id="Layer_1-2" data-name="Layer 1"><rect class="cls-1" width="1920" height="1080"/><line class="cls-2" x1="224.43" y1="1001.74" x2="224.43" y2="911.81"/><line class="cls-2" x1="497.9" y1="828.16" x2="497.9" y2="709.7"/><line class="cls-2" x1="1485.75" y1="1001.74" x2="1485.75" y2="911.81"/><line class="cls-2" x1="1178.23" y1="816.56" x2="1178.23" y2="759.02"/><line class="cls-2" x1="896.83" y1="1009.48" x2="896.83" y2="888.12"/><line class="cls-2" x1="761.92" y1="771.59" x2="761.92" y2="709.7"/><line class="cls-2" x1="1793.26" y1="828.16" x2="1793.26" y2="709.7"/><line class="cls-2" x1="58.83" y1="594.94" x2="58.83" y2="505.01"/><line class="cls-2" x1="387.8" y1="538.37" x2="387.8" y2="430.55"/><line class="cls-2" x1="224.43" y1="358.5" x2="224.43" y2="268.57"/><line class="cls-2" x1="531.94" y1="184.92" x2="531.94" y2="66.46"/><line class="cls-2" x1="624.78" y1="628.31" x2="624.78" y2="572.94"/><line class="cls-2" x1="833" y1="628.31" x2="833" y2="517.58"/><line class="cls-2" x1="1085.4" y1="510.57" x2="1085.4" y2="431.76"/><line class="cls-2" x1="1320.15" y1="594.94" x2="1320.15" y2="505.01"/><line class="cls-2" x1="1649.12" y1="538.37" x2="1649.12" y2="430.55"/><line class="cls-2" x1="1485.75" y1="358.5" x2="1485.75" y2="268.57"/><line class="cls-2" x1="1178.23" y1="173.32" x2="1178.23" y2="115.78"/><line class="cls-2" x1="896.83" y1="366.24" x2="896.83" y2="244.88"/><line class="cls-2" x1="761.92" y1="128.35" x2="761.92" y2="66.46"/><line class="cls-2" x1="1793.26" y1="184.92" x2="1793.26" y2="66.46"/><line class="cls-2" x1="1886.1" y1="628.31" x2="1886.1" y2="572.94"/></g></g></svg>
