<svg xmlns="http://www.w3.org/2000/svg" viewBox="0 0 1046.17 1043.37"><defs><style>.cls-1{opacity:0.1;}</style></defs><title>bg_tile2</title><g id="Layer_2" data-name="Layer 2"><g id="Layer_1-2" data-name="Layer 1"><g class="cls-1"><path d="M23.29,762.44c4.15-11.82,2.05-23-6.09-32.38-5-5.79-10.79-9.41-17.2-10.81v2.07c5.82,1.39,11.08,4.74,15.69,10,7.64,8.79,9.61,19.3,5.72,30.4-2.95,8.38-9.29,14.71-18.33,18.31C2,780.5,1,780.86,0,781.18v2.11c1.23-.38,2.5-.83,3.82-1.35C13.42,778.12,20.15,771.38,23.29,762.44Z"/><path d="M47.77,652.63a15.29,15.29,0,0,0,3,.32,10.8,10.8,0,0,0,9.47-5.17c3.68-5.88,8.28-14.94,5.65-25.73-2.27-9.27-6.14-12.25-16-12.25a1,1,0,0,0-.25,0,1,1,0,0,0-.48,0c-9.08,2.17-14.56,7.3-16.77,15.69-1.36,5.15,0,12,3.62,17.75C39.19,648.32,43.46,651.73,47.77,652.63ZM34.38,626c2-7.61,7-12.28,15.3-14.26h0a1,1,0,0,0,.25,0c8.84,0,12,2.41,14,10.73,1.9,7.75.23,15.21-5.4,24.18-3,4.71-7.77,4.5-10.38,4-3.78-.79-7.58-3.87-10.41-8.45C34.46,636.87,33.16,630.67,34.38,626Z"/><path d="M0,1042.37v1H8.31A24.09,24.09,0,0,0,0,1042.37Z"/><path d="M0,892.83v27.1c.51-3.1.73-5.72.88-7.6A81.11,81.11,0,0,0,0,892.83Z"/><path d="M13.76,24C17,19.42,20.17,13.27,16.29,6.53A14,14,0,0,0,8.31,0H0V1H0C7.37.77,11.84,2.79,14.56,7.53c3.3,5.73.61,11-2.44,15.34A143.2,143.2,0,0,1,2.71,34.78c-.87,1-1.78,2-2.71,3v2.94c1.47-1.56,2.88-3.13,4.22-4.68A145.54,145.54,0,0,0,13.76,24Z"/><path d="M38.9,377.5a162.64,162.64,0,0,0-2.28-24.57,29.9,29.9,0,0,1-.53-4.49,4.07,4.07,0,0,0-.06-.71c-1.9-9.82-8.14-16-15.37-23.17-4.94-4.9-8.74-8.61-11.8-11.58C4,308.28,1.45,305.74,0,304v3c1.64,1.73,4,4,7.46,7.41,3.06,3,6.85,6.68,11.79,11.57,7,6.93,13,12.91,14.82,22.12,0,.08,0,.23,0,.43a31.5,31.5,0,0,0,.57,4.78,161.68,161.68,0,0,1,2.24,24.26c.67,20-7.27,36.83-23.62,50A120,120,0,0,1,0,437v2.32a120.66,120.66,0,0,0,14.54-10.13C31.4,415.54,39.59,398.16,38.9,377.5Z"/><path d="M59.35,80c2.54-3.9,5.25-7.79,7.88-11.56C74,58.71,81.05,48.63,85.78,37.33c3.69-8.81,7.35-18.35,11.53-30,.9-2.53,1.89-5,3-7.32H98.08c-.94,2.15-1.84,4.36-2.66,6.64-4.16,11.63-7.81,21.14-11.48,29.91-4.65,11.11-11.61,21.1-18.35,30.76C63,71.09,60.23,75,57.67,78.92,45,98.37,31.76,112.07,16,122A146.32,146.32,0,0,0,0,133.65v2.64a145,145,0,0,1,17-12.57C33.08,113.6,46.54,99.71,59.35,80Z"/><path d="M14.83,390.66c2.75-6.94,2.84-12.87,2.92-18.1a84.3,84.3,0,0,0-4.82-27.34A78.28,78.28,0,0,0,0,323v3.22a74.52,74.52,0,0,1,11.05,19.67,83.58,83.58,0,0,1,4.7,26.62c-.08,5.06-.17,10.79-2.78,17.39a41.7,41.7,0,0,1-13,17v2.56C4.78,405.76,11.13,400,14.83,390.66Z"/><path d="M21.32,681.78c7,8.3,14.46,16.39,21.7,24.21q3.87,4.17,7.71,8.36a46.28,46.28,0,0,0,5.1,4.61c4.49,3.62,8.28,5,11.59,5,5,0,8.93-3.18,12.56-6.69,7.9-7.63,12.68-16.95,13.83-26.95.62-5.36.94-10.83,1.26-16.12.24-4.06.49-8.26.87-12.36,1-10.56,2-21.47,6.81-31.66,4.23-8.93,11.12-15.81,21.08-21,6.41-3.36,11.74-6.2,17-9.55,5.5-3.48,8.46-7.22,9-11.43s-1.34-8.84-5.9-13.92c-7.23-8-17.19-13.36-30.43-16.24a97.79,97.79,0,0,0-14.21-1.67c-2.09-.14-4.25-.29-6.36-.49a1,1,0,0,0-.34,0,1,1,0,0,0-.6,0c-3.91,1.44-7.81,2.92-11.71,4.4-9.38,3.56-19.08,7.25-28.77,10.4-6.5,2.11-13.66,2.71-19.17,3-3,.16-6.09.17-9.07.18-7.1,0-14.45.07-21.6,2-.59.15-1.16.33-1.74.51v2.09c.74-.24,1.5-.47,2.26-.67,6.9-1.86,14.11-1.9,21.09-1.93,3,0,6.11,0,9.16-.18,5.64-.29,13-.9,19.69-3.09,9.73-3.17,19.46-6.86,28.86-10.43,3.87-1.46,7.73-2.93,11.61-4.36l.14,0c2.13.21,4.31.36,6.41.5A96.81,96.81,0,0,1,113.14,560c12.82,2.79,22.43,7.9,29.37,15.63,4.15,4.61,5.92,8.64,5.41,12.3s-3.22,6.91-8.13,10c-5.23,3.31-10.52,6.13-16.89,9.47-10.36,5.43-17.54,12.61-22,21.94-5,10.51-6,22.1-7,32.33-.38,4.14-.63,8.36-.88,12.43-.31,5.26-.64,10.7-1.24,16-1.1,9.54-5.67,18.44-13.23,25.74-7.08,6.83-12.35,8.95-21.52,1.56a43.5,43.5,0,0,1-4.87-4.4c-2.56-2.8-5.14-5.58-7.72-8.37-7.23-7.8-14.7-15.87-21.64-24.13a313.25,313.25,0,0,1-19-25.85c-1.31-1.94-2.6-3.92-3.89-5.9v3.65c.74,1.13,1.48,2.26,2.24,3.37A313,313,0,0,0,21.32,681.78Z"/><path d="M438.89,1020.36c-11.13-3.51-21.87-1-31.06,1.63-14,4-24.25,8.28-33.32,13.89a79.29,79.29,0,0,0-10.2,7.49h3.11a77.24,77.24,0,0,1,8.14-5.79c8.91-5.51,19-9.73,32.82-13.67,8.91-2.55,19.31-5,29.91-1.65,6.65,2.1,14.09,9.44,14.14,16.62,0,1.49-.05,3-.13,4.49h2c.07-1.5.13-3,.12-4.5C454.38,1030.71,446.35,1022.71,438.89,1020.36Z"/><path d="M685.7,1033.85c2.95-3.13,5.36-6.89,10.17-14.42a105.51,105.51,0,0,0,9.36-17.37,28,28,0,0,1,5-8.51c11.07-13.13,30.4-20.86,32.57-21.7l.14-.05a33.7,33.7,0,0,0,9.08-5.13A27.81,27.81,0,0,0,760.61,956c2.65-6.32,1.4-12.37.39-17.24-2.14-10.33-3.93-17.06-5.51-23-1.2-4.55-2.35-8.84-3.43-14-1.7-8.08-2.29-14-3.48-25.85-.68-6.71-1.1-12.43,0-19.71a40.16,40.16,0,0,1,3.63-12.38,38.27,38.27,0,0,1,9.37-11c5-4.27,14.44-12.23,28.95-13.69,6.2-.63,15.57-1.58,22,4.21,1.07,1,3.9,3.5,6.74,18.42a143.77,143.77,0,0,1,2.32,19.77,113.16,113.16,0,0,0,2.78,20.79c1.29,5.62,2.32,10,5.19,15.62,2.67,5.17,7.63,14.8,16.9,18.9,7.44,3.28,17.28,2.75,26.32-1.44,8.46-3.92,14.72-10.33,16.73-17.16,1.64-5.51.43-11-1-17.37-1.69-7.76-4.33-12.87-7.13-18.29l-.76-1.47A210.56,210.56,0,0,1,871,839.52a287.8,287.8,0,0,0-13.32-29.35c-2.9-5.68-4.25-8.3-5.85-10.89-7-11.31-14.46-18.51-24.24-27.45-13.84-12.64-24.83-21.93-26-23-2.63-2.21-5-4.21-7.27-6.07-10.73-8.93-17.2-14.32-25.59-23.8-6.57-7.43-10.57-13.24-11.55-20.94a32.4,32.4,0,0,1,2.33-16,353.49,353.49,0,0,1,22.83-49.3c10-16.92,16-26.64,20-33.07,5.59-9,6.91-11.12,8.87-16.65,3.53-9.93,6.38-15.56,12.07-26.78a40.75,40.75,0,0,1,5-8.27c5.54-6.77,12.28-9.72,19.42-12.84,1.62-.7,3.45-1.45,5.39-2.24,4.43-1.8,9.45-3.85,15.16-6.69,1.69-.84,6.17-3.07,7.54-7.57a10,10,0,0,0,.34-3.89c-.47-4.53-4.14-8.75-10.32-11.89a27,27,0,0,0-10.4-2.68c-11.16-.72-20.21,4.71-24.56,7.32a34.46,34.46,0,0,0-4,2.77,16.33,16.33,0,0,1-3.41,2.14c-2.93,1.43-9.79,4.79-17.86,3.28s-13.21-7.3-16.88-11.51a35.89,35.89,0,0,1-4.39-6.43c-.95-1.61-2.13-3.61-3.91-6.47s-7.61-12.08-11-16.39c-10.17-12.81-26.64-16.42-33.67-18a63.42,63.42,0,0,0-21.16-1c-6.42.55-11.49,1-19.06-2.87a47.83,47.83,0,0,1-5.81-3.56c-2.8-1.92-5.22-3.58-9.65-4.15-7-.9-15.35,1.32-20.34,5.41-2.45,2-3.83,4.28-4,6.59-.47,6.54,9,13.45,17.42,15a16.33,16.33,0,0,0,8.27-.56,54.59,54.59,0,0,1,13.68-1.89,131.35,131.35,0,0,1,15.21.52c2,.2,4,.44,5.07.59,7.38,1.08,18.83,5.07,26.81,12.74,2.66,2.56,4,4.72,11.32,20.07,13.68,28.8,16.28,36.89,17.53,40.78a24.51,24.51,0,0,0,3.52,7.32l.31.48c2.39,3.76,6.4,10,5.78,17.89a28.75,28.75,0,0,1-2.24,8.56,37.86,37.86,0,0,1-8.45,12.4l-.26.27c-3.78,3.88-7.58,11.35-15.18,26.26a243.67,243.67,0,0,0-13.88,33.79c-4.24,12.26-7.58,21.95-15.89,32.49-6.58,8.34-13.11,13.15-20.57,15.15a23.07,23.07,0,0,1-4.49.74,31.22,31.22,0,0,0-4.85.75c-10.59,2.47-17.6,9-23.24,14.15a90.27,90.27,0,0,0-12.16,13.83c-3.71,5-6.38,8.58-13,12.07a28.17,28.17,0,0,1-4.73,2,16.5,16.5,0,0,0-4.89,2.42c-8.16,5.63-11.33,13.76-15.34,24.06-1.61,4.13-2.45,7-3.34,10a132.37,132.37,0,0,1-5.1,14.53,74.43,74.43,0,0,1-3.79,8.49c-2.55,4.36-7.05,10.35-19.35,17.93a122.26,122.26,0,0,1-19.47,9.69l-.81.32c-20.44,8.32-34.47,20.85-43.75,29.14-16.24,14.49-25.59,29.66-33.85,43l-.14.24c-9.69,15.73-20.3,29.86-29.87,39.8-2,2.09-6.75,7-14.3,8.85-4.91,1.21-8.74.51-16.93-1.17a124.16,124.16,0,0,1-13.63-3.66,131.42,131.42,0,0,0-16.84-4.34,39.72,39.72,0,0,0-11.17-.72c-6,.51-10,.84-13.16,3.86a17.57,17.57,0,0,0-3.9,6.45c-1.18,2.82-2.19,5.26-5.15,6.37h0c-8.61,3.26-5.24,24.64-3.22,32.61a15.15,15.15,0,0,0,3.12,6.54c2.38,2.77,5.88,4.49,10.7,5.26,9.93,1.59,28-.64,49.08-11.67l1.56-.83a35.5,35.5,0,0,1,10.16-4.09c9.29-2,17.49.45,21,1.5a35.14,35.14,0,0,1,9.29,4.15,37.79,37.79,0,0,0,6.64,3.3c5.24,2,12.56,3.38,30.44.49a111.65,111.65,0,0,0,21.65-5.43A85.77,85.77,0,0,1,541.66,986c25.71-4.64,45.52,2,60,6.75A44.71,44.71,0,0,1,621.17,1005c2.56,2.85,5.75,6.4,5.75,11.29,0,6.44-5.58,11.05-7.68,12.78-5.72,4.72-11.66,5.76-18.53,7l-1.49.27c-11.33,2-21.43,3.84-30.88,7h6.89c7.53-2,15.56-3.48,24.34-5l1.48-.27c6.86-1.2,13.34-2.34,19.46-7.4,2.3-1.9,8.4-6.93,8.41-14.32,0-5.65-3.62-9.68-6.26-12.63a46.5,46.5,0,0,0-20.38-12.84c-14.67-4.88-34.76-11.56-61-6.83a87.35,87.35,0,0,0-14.67,4,110,110,0,0,1-21.31,5.35c-17.42,2.82-24.44,1.47-29.43-.4a34.51,34.51,0,0,1-6.31-3.14,37.44,37.44,0,0,0-9.75-4.35c-3.65-1.08-12.2-3.64-22-1.53a37.53,37.53,0,0,0-10.68,4.27l-1.55.83c-20.61,10.8-38.23,13-47.84,11.47-4.33-.7-7.44-2.2-9.49-4.59a13.27,13.27,0,0,1-2.7-5.73c-2.76-10.86-4-28,2-30.26h0c3.75-1.41,5-4.49,6.27-7.46a15.78,15.78,0,0,1,3.43-5.77c2.66-2.54,6.36-2.85,11.95-3.32a37.48,37.48,0,0,1,10.63.69,130.26,130.26,0,0,1,16.61,4.29,127.27,127.27,0,0,0,13.83,3.71c7.9,1.62,12.25,2.51,17.81,1.15,8.11-2,13.3-7.37,15.25-9.4,9.68-10,20.38-24.3,30.14-40.15l.16-.24c8.17-13.27,17.44-28.3,33.46-42.6,9.18-8.2,23.05-20.59,43.17-28.77l.81-.33a124.38,124.38,0,0,0,19.77-9.83c12.68-7.82,17.36-14.07,20-18.64a75.34,75.34,0,0,0,3.91-8.73A134.92,134.92,0,0,0,620,779.79c.88-2.95,1.71-5.74,3.29-9.79,3.89-10,7-17.86,14.62-23.15a14.38,14.38,0,0,1,4.38-2.16,29,29,0,0,0,5-2.14c7-3.69,10-7.64,13.68-12.63a87.77,87.77,0,0,1,11.92-13.56c5.46-5,12.26-11.32,22.33-13.68a28.56,28.56,0,0,1,4.57-.69,24.76,24.76,0,0,0,4.84-.81c7.9-2.12,14.76-7.15,21.62-15.84,8.52-10.81,11.91-20.64,16.21-33.08a242.66,242.66,0,0,1,13.79-33.56c7.49-14.7,11.25-22.09,14.81-25.74l.26-.26a40,40,0,0,0,8.87-13.05,30.4,30.4,0,0,0,2.38-9.16c.68-8.51-3.72-15.41-6.09-19.12l-.3-.48a22.54,22.54,0,0,1-3.3-6.87c-1.26-3.92-3.89-12.1-17.63-41-7.44-15.65-8.87-17.88-11.75-20.65-8.32-8-20.23-12.15-27.9-13.28-1.08-.15-3.1-.4-5.17-.6a134.69,134.69,0,0,0-15.46-.53,56.68,56.68,0,0,0-14.12,1.95c-2.68.69-4.3,1.11-7.4.54C666,469,657.3,463,657.68,457.5c.12-1.75,1.25-3.54,3.26-5.18,4.53-3.71,12.44-5.8,18.82-5,4,.51,6,1.89,8.78,3.81a50.62,50.62,0,0,0,6,3.69c8.09,4.11,13.67,3.63,20.14,3.08a61.54,61.54,0,0,1,20.56,1c6.83,1.49,22.81,5,32.53,17.26,3.44,4.33,9.68,14.26,10.9,16.2,1.77,2.83,2.94,4.83,3.88,6.43a37.27,37.27,0,0,0,4.62,6.72c3.64,4.19,9.14,10.51,18,12.17,8.72,1.63,16.26-2.06,19.1-3.45a18.9,18.9,0,0,0,3.76-2.36,32.34,32.34,0,0,1,3.84-2.63c4.17-2.51,12.85-7.73,23.39-7A25.45,25.45,0,0,1,865,504.7c5.55,2.83,8.83,6.49,9.23,10.32a8.15,8.15,0,0,1-.26,3.1c-1.12,3.67-4.9,5.56-6.52,6.36-5.65,2.81-10.63,4.84-15,6.63-2,.79-3.78,1.54-5.43,2.26-7,3.08-14.32,6.26-20.17,13.4a42.6,42.6,0,0,0-5.27,8.63c-5.72,11.3-8.6,17-12.16,27-1.89,5.33-3.19,7.43-8.69,16.26-4,6.44-10,16.17-20,33.11a353.38,353.38,0,0,0-23,49.62,34.09,34.09,0,0,0-2.44,16.92c1,8.2,5.2,14.28,12,22,8.49,9.6,15.38,15.34,25.81,24,2.23,1.86,4.63,3.85,7.26,6.06,1.2,1,12.17,10.28,26,22.9,9.66,8.83,17,15.93,23.89,27,1.56,2.53,2.9,5.12,5.77,10.75a287,287,0,0,1,13.24,29.18A211.37,211.37,0,0,0,878.92,862l.76,1.48c2.74,5.29,5.32,10.29,7,17.8,1.39,6.34,2.48,11.35,1,16.38-1.86,6.28-7.71,12.22-15.66,15.9-8.53,3.95-17.75,4.49-24.67,1.43-8.62-3.81-13.2-12.69-15.94-18s-3.75-9.67-5-15.15a112.32,112.32,0,0,1-2.74-20.46,143.92,143.92,0,0,0-2.35-20c-3-15.58-6-18.35-7.37-19.53-7.11-6.37-17.41-5.33-23.56-4.71-15.13,1.52-25.2,10.06-30,14.16a40,40,0,0,0-9.85,11.62,43.37,43.37,0,0,0-3.84,13c-1.15,7.5-.69,13.59,0,20.21,1.19,11.9,1.79,17.87,3.51,26.06,1.1,5.19,2.24,9.51,3.46,14.08,1.57,5.91,3.36,12.61,5.48,22.89,1,4.83,2.14,10.31-.28,16.05a25.73,25.73,0,0,1-8,9.9,31,31,0,0,1-8.55,4.82l-.14.06c-2.22.85-22,8.76-33.38,22.27a29.89,29.89,0,0,0-5.34,9,104.38,104.38,0,0,1-9.24,17.12c-4.71,7.38-7.08,11.09-9.91,14.08a48.59,48.59,0,0,1-15.34,10.89h4.39A49.38,49.38,0,0,0,685.7,1033.85Z"/><path d="M645.59,899.16l.28,1.05c.24,1.17,2.55,11.55,11.48,14.63a14,14,0,0,0,4.54.76c5.18,0,9.76-2.82,13.32-5s12.63-7.78,14.5-19.09c.22-1.3,1.88-13-6.21-21-5.17-5.15-13.35-7.54-21.9-6.4-7.18,1-13.16,4.21-15.61,8.48-.77,1.33-1.07,2.81-1.66,5.77,0,.17-.09.39-.16.67a29.6,29.6,0,0,0,.74,17.9A23.49,23.49,0,0,1,645.59,899.16Zm.53-19.72.17-.73c.55-2.75.83-4.13,1.43-5.17,2.12-3.69,7.67-6.63,14.15-7.5,7.93-1.06,15.49,1.12,20.22,5.83,7.38,7.36,5.85,18.11,5.65,19.31-1.72,10.4-10,15.52-13.58,17.71-4.47,2.75-10,6.17-16.16,4.06-8-2.76-10.08-12.71-10.19-13.21s-.19-.72-.29-1.08a23.48,23.48,0,0,0-.74-2.49A27.66,27.66,0,0,1,646.12,879.44Z"/><path d="M105.62,989.25a159.86,159.86,0,0,0,22.62-8.49c9.15-4.08,14.61-12.16,15.37-22.75A22.73,22.73,0,0,0,140,945c-6.55-10.42-16.63-17-30-19.5a61.07,61.07,0,0,0-6.24-.77c-.94-.09-1.88-.17-2.82-.28a1.08,1.08,0,0,0-.36,0,.94.94,0,0,0-.55,0c-1,.31-2,.58-3,.85a33.79,33.79,0,0,0-6.63,2.29c-8.43,4.32-11.23,13-13.48,20a102.58,102.58,0,0,0-3,11.6c-2.2,11.19-8.57,19.31-19.47,24.8-14.74,7.43-30.66,12.61-46.06,17.61l-.78.25q-3.88,1.27-7.67,2.74v2.16q4.08-1.62,8.29-3l.78-.25c15.47-5,31.46-10.22,46.34-17.73,11.49-5.78,18.21-14.36,20.53-26.2a101.75,101.75,0,0,1,3-11.37c2.25-7,4.8-14.89,12.49-18.83a32.27,32.27,0,0,1,6.24-2.14c1-.27,2-.54,3-.85l.14,0c.95.11,1.91.19,2.86.28,2,.18,4.07.37,6,.74,12.77,2.41,22.41,8.67,28.65,18.6a21,21,0,0,1,3.27,11.76c-.72,10-5.63,17.25-14.19,21.07a156.25,156.25,0,0,1-22.34,8.39c-13.44,3.65-21.47,11.13-24.55,22.85-2.93,11.12-5.43,22.29-7.45,33.2h2c2-10.75,4.46-21.74,7.34-32.69S92.93,992.7,105.62,989.25Z"/><path d="M640.59,790.14A38,38,0,0,0,634,800.76c-1.29,3.3-2.45,6.7-3.57,10-1,2.79-1.94,5.68-3,8.48-3.16,8.34-9.62,13.87-20.33,17.4-1.82.6-3.64,1.18-5.47,1.76-4.63,1.48-9.42,3-14,4.8-9.75,3.79-19,9.89-28.29,18.66l-3.83,3.6c-8.37,7.88-17,16-25.13,24.45-12,12.45-19.59,25.5-23.17,39.87-1.06,4.26-.89,8.9-.55,13.27.4,5.1,6.68,9,12.3,9.47,7.27.59,14.37-.66,21.25-1.88,2.43-.43,5-.88,7.43-1.23,14.12-2,25.4-1.36,35.5,2.06,7.23,2.45,14.53,5.14,21.58,7.75,3.79,1.4,7.58,2.8,11.39,4.17a64.87,64.87,0,0,0,22.2,4.18,54,54,0,0,0,8.25-.63.75.75,0,0,0,.3-.09c7.25-3.62,14.57-7.09,21.76-10.3,3.17-1.42,6.35-3,9.41-4.45a175.41,175.41,0,0,1,17.39-7.68l1.07-.38c3.56-1.25,6.36-2.24,9.29-4.92,3.79-3.46,5.92-8.07,7.62-16.45,0-.24,4.82-24.54-3-47.41-1.52-4.43-3.32-6.94-6-10.74a9.49,9.49,0,0,0-2.81-2.71,10.17,10.17,0,0,0-6.4-1.26h-.12c-4.12.37-14.78-8.44-18.87-18.44-2.9-7.1-1.42-12.56,1.83-24.51,1.92-7.06,4.55-16.73,7.19-30.31,3.39-17.39,3-21.44.24-24.12-4.84-4.69-15.1-3.41-22.42-.88-7.62,2.63-16.11,7.88-17,14.71a4.88,4.88,0,0,0-.05,1c0,.22,0,.5,0,1C645.61,784,643.39,786.68,640.59,790.14Zm7.22-11c0-.61,0-.93,0-1.18a3.28,3.28,0,0,1,0-.68c.68-4.89,6.85-10,15.73-13.09s17-2.86,20.37.43c2,2,2.42,5.68-.81,22.3-2.63,13.51-5.25,23.13-7.16,30.16-3.37,12.41-4.91,18.07-1.75,25.79,4.29,10.5,15.61,20.14,20.89,19.69l.14,0a8.37,8.37,0,0,1,5.17,1,7.3,7.3,0,0,1,2.22,2.16c2.71,3.79,4.35,6.08,5.78,10.23,7.67,22.34,3,46.12,3,46.36-1.6,7.92-3.57,12.23-7,15.38-2.63,2.4-5.13,3.28-8.6,4.51l-1.08.38a172.33,172.33,0,0,0-17.59,7.76c-3.05,1.49-6.21,3-9.35,4.42-7.17,3.21-14.47,6.66-21.7,10.27-9.36,1.4-18.95.26-29.33-3.48-3.79-1.37-7.58-2.77-11.37-4.17-7.06-2.61-14.37-5.31-21.63-7.76a65.66,65.66,0,0,0-21.37-3.31,106.48,106.48,0,0,0-15.05,1.16c-2.51.36-5,.81-7.5,1.24-6.75,1.19-13.72,2.43-20.74,1.86-4.7-.39-10.15-3.62-10.46-7.64-.33-4.2-.5-8.64.49-12.62,3.5-14,10.91-26.78,22.67-39,8.08-8.38,16.71-16.51,25.06-24.37l3.83-3.61c9.1-8.58,18.14-14.55,27.65-18.24,4.55-1.77,9.32-3.29,13.92-4.76l5.49-1.77c11.33-3.73,18.18-9.64,21.57-18.59,1.07-2.83,2.06-5.74,3-8.55,1.11-3.27,2.26-6.64,3.54-9.9a36.43,36.43,0,0,1,6.3-10.09C644.94,788,647.58,784.7,647.81,779.13Z"/><path d="M287.21,862.74h.1c11.5,0,21.32-9.68,22.37-22.09.68-8-1.4-14.86-6-19.75s-11.76-7.52-20-7.31c-.67,0-1.34,0-2,0h-1a1,1,0,0,0-.25,0,1,1,0,0,0-.61,0c-1.17.45-2.42.86-3.63,1.25a29.5,29.5,0,0,0-8,3.49c-7.61,5.34-9.69,13.48-6.35,24.9C266.07,857.56,277.71,862.69,287.21,862.74ZM269.4,820a27.75,27.75,0,0,1,7.44-3.22c1.21-.39,2.45-.79,3.64-1.25l.24,0h.95c.69,0,1.38,0,2.07,0,7.64-.24,14.2,2.16,18.47,6.69s6.11,10.75,5.48,18.21c-1,11.37-9.91,20.25-20.38,20.25h-.09c-8.78,0-19.54-4.79-23.4-18C260.71,832.11,262.48,824.9,269.4,820Z"/><path d="M139.26,1002.7c14.06-7.05,23-16.19,27.47-27.92a64.76,64.76,0,0,0,3.48-33.45c-1.08-6.81-2.37-14-5.11-20.66-6.86-16.55-19.69-26.56-37.12-28.95-9.87-1.35-20-1.89-29.8-2.42-4.33-.23-8.81-.47-13.2-.78a1.63,1.63,0,0,0-.31,0,1.07,1.07,0,0,0-.4,0l-4.4.64c-3.13.46-6.38.93-9.57,1.35-12.12,1.58-20.68,8.66-26.16,21.64a210.69,210.69,0,0,0-7.59,22.55c-5.61,19.09-17.21,32.62-35.46,41.36L0,976.61v2.22l2-1c18.79-9,30.74-23,36.52-42.61A209.61,209.61,0,0,1,46,912.93C51.16,900.67,59.2,894,70.56,892.5c3.21-.42,6.46-.89,9.6-1.35l4.4-.64.1,0a.58.58,0,0,0,.19,0c4.4.31,8.89.55,13.22.78,9.76.52,19.85,1.06,29.64,2.4,16.68,2.29,29,11.88,35.54,27.74,2.66,6.44,3.92,13.51,5,20.2a62.89,62.89,0,0,1-3.38,32.43c-4.24,11.25-12.91,20-26.5,26.84a83,83,0,0,0-40.28,42.46h2.18A81,81,0,0,1,139.26,1002.7Z"/><path d="M132.74,1029.82c3.35-3,8.3-6.4,18.17-13.1,7.44-5.06,12.08-7.93,15.15-9.84,4-2.5,5.89-3.65,8.49-6.24,7.46-7.42,9.88-15.59,14.28-30.4a125.36,125.36,0,0,0,5.28-28.15c.61-7.09,1-12.22,5.55-20.64a172.84,172.84,0,0,1,16.79-24.88c1.18-1.41,2.26-2.66,3.26-3.81,3.78-4.36,6.51-7.51,8.36-13,2.48-7.36,1.66-13.53.62-21.34-.91-6.77-2.15-16-8.56-25.43-2.32-3.4-6.21-9.09-13.52-12.46a31.77,31.77,0,0,0-12.79-2.67c-10.86-.18-19.15,4-25.79,7.4l-.69.34c-6.85,3.48-21.24,9.28-49.9,20.84-3.9,1.57-11.16,4.48-20.46,3.83-3.29-.23-9.43-.67-15-4.81-4.7-3.49-6.56-7.81-9.15-13.79-3.07-7.1-6.67-19.1-8.49-26.8a15.51,15.51,0,0,0-3.81-7.34,11.17,11.17,0,0,0-5.67-3.36,10.52,10.52,0,0,0-5.25.29C32.13,799.58,9.21,813.64,9,813.78c-3.74,2.31-6.62,4.1-9,5.77V822c2.57-1.92,5.73-3.86,10-6.52.23-.14,22.91-14.06,40.15-19.09a8.69,8.69,0,0,1,4.27-.25,9.11,9.11,0,0,1,4.65,2.79,13.65,13.65,0,0,1,3.31,6.42A190.48,190.48,0,0,0,71,832.48c2.61,6,4.67,10.78,9.79,14.6,6,4.49,12.8,5,16,5.2,9.77.69,17.3-2.35,21.34-4,28.72-11.58,43.13-17.39,50.07-20.9l.68-.35c6.45-3.27,14.44-7.33,24.86-7.18a29.54,29.54,0,0,1,12,2.49c6.81,3.13,10.36,8.33,12.71,11.77,6.14,9,7.34,18,8.22,24.57,1,7.55,1.81,13.51-.53,20.43-1.72,5.11-4.21,8-8,12.32-1,1.16-2.1,2.42-3.28,3.84a173.53,173.53,0,0,0-17,25.22c-4.69,8.78-5.14,14.08-5.77,21.41a123.81,123.81,0,0,1-5.21,27.75c-4.62,15.59-7,22.78-13.77,29.55-2.44,2.43-4.11,3.47-8.13,6-3.09,1.92-7.75,4.81-15.24,9.9-9.93,6.74-14.92,10.12-18.38,13.25-3.76,3.41-7.28,7.46-11.85,15h2.34C126.52,1035.84,129.71,1032.56,132.74,1029.82Z"/><path d="M702.3,809.93a21,21,0,0,0,14.3,6,18,18,0,0,0,4.11-.48c17.52-4.07,31.84-10.16,43.77-18.63,6-4.25,12.84-10.44,12.92-20.71,0-5.35-2.19-10.59-6.82-16-9-10.63-19.6-17.31-31.4-19.87a29.64,29.64,0,0,0-5.29-.47c-.78,0-1.56,0-2.33-.1a1.66,1.66,0,0,0-.32,0,1,1,0,0,0-.49,0c-13.91,3.48-20.93,15.1-26.57,24.44a71.12,71.12,0,0,0-9.29,25.8C693.75,796.93,696.59,804.59,702.3,809.93Zm-5.43-19.67a68.85,68.85,0,0,1,9-25.08c6.94-11.48,13.21-20.5,25.34-23.54h0l.18,0c.8.05,1.61.07,2.42.1a26.12,26.12,0,0,1,4.92.43c11.52,2.49,21.43,8.77,30.3,19.21,4.3,5.05,6.37,9.87,6.34,14.72-.07,9.36-6.49,15.12-12.08,19.09-11.71,8.31-25.8,14.31-43.07,18.32-5.68,1.32-11.73-.53-16.58-5.07C698.44,803.58,695.83,796.6,696.87,790.26Z"/><path d="M243,1003.09c1.59-1.81,3.29-3.59,4.93-5.3,2.38-2.48,4.83-5,7-7.78a29.49,29.49,0,0,0,5.64-26.57,35.55,35.55,0,0,0-20.54-23.3,15.14,15.14,0,0,0-5.74-.64c-.88,0-1.7,0-2.51,0a1.05,1.05,0,0,0-.31,0,1.1,1.1,0,0,0-.57,0c-12.33,4.21-15.55,14.63-17.2,25.27-1.21,7.74-.47,15.45.23,22.91.32,3.36.65,6.84.8,10.26.42,10.07-3.83,18.31-12.64,24.48a85.16,85.16,0,0,1-16.25,8.42c-3.84,1.6-7.86,3-11.76,4.3-3.51,1.2-7.14,2.43-10.64,3.84a43,43,0,0,0-8.25,4.37H159a41,41,0,0,1,5.21-2.51c3.46-1.39,7.06-2.62,10.55-3.81,3.92-1.34,8-2.72,11.88-4.34a87.19,87.19,0,0,0,16.62-8.63c9.41-6.59,13.95-15.41,13.5-26.21-.15-3.47-.48-7-.81-10.36-.69-7.34-1.41-14.92-.25-22.42,1.79-11.54,5.17-20,15.8-23.65a1.08,1.08,0,0,0,.19,0c.88,0,1.78,0,2.66,0a13.21,13.21,0,0,1,5,.51,33.44,33.44,0,0,1,19.33,22,27.47,27.47,0,0,1-5.26,24.8c-2.13,2.66-4.56,5.2-6.9,7.64-1.66,1.74-3.38,3.53-5,5.37-5.56,6.34-10.5,12.81-9.89,22.19a51.46,51.46,0,0,0,5.17,19.41H239a50,50,0,0,1-5.41-19.54C233.08,1015.2,237.56,1009.33,243,1003.09Z"/><path d="M719.5,385.72c-2.38,7.78-.06,14.93,6.38,19.63,5.27,3.84,11.47,5.94,19.52,6.61,2.16.18,4.32.38,6.48.58,6.88.63,14,1.28,21,1.28.7,0,1.4,0,2.09,0,10.81-.21,19.36-1.89,26.91-5.29,15.18-6.84,22.76-24.4,18-41.74-2.07-7.6-5.79-16.8-16.22-20.47a34.25,34.25,0,0,0-9.79-1.43c-1.44-.07-2.94-.15-4.36-.3a1.05,1.05,0,0,0-.36,0,1,1,0,0,0-.43,0A154.92,154.92,0,0,0,735,365.74,35.21,35.21,0,0,0,719.5,385.72Zm69.62-39.17h.06l.15,0c1.48.16,3,.23,4.47.31a32.7,32.7,0,0,1,9.22,1.31c7.46,2.63,12.07,8.53,15,19.12,4.47,16.38-2.65,32.95-16.93,39.38-7.3,3.29-15.6,4.92-26.13,5.12a205,205,0,0,1-22.86-1.26c-2.16-.19-4.33-.39-6.5-.57-7.67-.64-13.55-2.62-18.5-6.24-5.71-4.16-7.76-10.51-5.65-17.42A33.3,33.3,0,0,1,736,367.43,153,153,0,0,1,789.12,346.55Z"/><path d="M613.18,237.88a23.09,23.09,0,0,0-5.32-.87c-.78-.07-1.56-.14-2.33-.24a1,1,0,0,0-.39,0,1.07,1.07,0,0,0-.56,0c-.75.25-1.55.47-2.33.68a18.14,18.14,0,0,0-5.33,2c-4.37,2.81-6.2,8.77-4.44,14.51,1.94,6.31,7.85,12.22,15.82,15.79a30.67,30.67,0,0,0,12.35,2.87,17.33,17.33,0,0,0,7.2-1.43,12.55,12.55,0,0,0,6.85-7,13.45,13.45,0,0,0-.86-10.45C629.38,244.29,620.89,240.42,613.18,237.88Zm19.64,25.68a10.58,10.58,0,0,1-5.81,5.88c-4.53,2.09-11.22,1.54-17.9-1.45-7.33-3.29-13-8.86-14.72-14.55-1.47-4.8.05-9.95,3.62-12.24a16.62,16.62,0,0,1,4.75-1.78c.79-.21,1.6-.43,2.39-.69l.11,0c.8.11,1.62.18,2.43.25a21.2,21.2,0,0,1,4.86.78c7.31,2.4,15.34,6.05,19.48,14.86A11.52,11.52,0,0,1,632.82,263.56Z"/><path d="M535,19.81C529.81,23.64,524.35,28,519.26,35a36,36,0,0,0-5.18,8.75c-2.7,7-1.77,13.54,1.35,25.51,2.4,9.23,4.21,14.39,5.66,18.53a65.45,65.45,0,0,1,3.73,14.34c.92,6.26,1.87,12.75,0,20.86-.77,3.41-3,10.4-9.13,18.88-4.39,6.06-7.71,8.56-16.6,15.26-3.56,2.67-8,6-13.71,10.49-6,4.69-9.75,7.78-12.5,10-4.64,3.81-6.2,5.1-10.34,7.35a85.87,85.87,0,0,1-28.65,9.7,48.76,48.76,0,0,1-14.8-.12,62.79,62.79,0,0,0-11.07-.7c-15.27.44-30.59,6.2-45.53,17.12-12.49,9.13-19.54,19.5-30.22,35.21-.89,1.31-1.85,2.76-2.89,4.31-4.93,7.42-11.68,17.57-20.14,26.93a64,64,0,0,1-15.21,12.73,90.17,90.17,0,0,1-9.32,4.68,77.65,77.65,0,0,1-9,3.4,18.5,18.5,0,0,0-3,1.09c-6.11,3.2-4.68,13.5-2.87,26.53,2.13,15.45,4.8,34.66-3.37,50.4-4.48,8.64-10.58,12.95-15.47,16.42-5.1,3.6-9.13,6.45-8.9,12.3.36,9.61,11.75,18.38,22.29,23.38,7.06,3.35,16.1,6.09,24.23,6.09,5.21,0,10-1.12,13.76-3.92,6.66-5,6.56-13.25,6.44-22.77-.14-10.59-.29-22.59,8.76-33.57,5.68-6.89,12.15-10,17.86-12.76,6.1-2.94,11.37-5.49,12.42-11.84s-2.8-10.63-7.24-15.71-9.7-11.09-11.35-20.63c-1.48-8.49,1.56-16.42,7.62-32.23,5-13.1,12.84-30.35,28.88-47.59,13.83-14.87,27.28-20.33,43.62-17.71,19.42,3.12,32.72,24.09,36.85,42.25,4.91,21.55-.3,34.55-5.54,41.66-5.69,7.72-13.13,11.08-20.32,14.33-8.3,3.74-16.13,7.28-20,17a30.6,30.6,0,0,0-.87,18.9c2.84,10.19,11.42,15.93,28.53,27.36,12.83,8.57,19,10.58,23.39,11.41a40.58,40.58,0,0,0,19.31-.75c3.1-1,7.78-2.44,11.79-6.61,5.42-5.64,6.27-12.79,6.73-16.63a47.82,47.82,0,0,0-1.59-18.21l-.27-1.12c-2.28-9.57-8.34-35,1.23-44.42,2-2,3.73-2.34,7.19-3.12a91.69,91.69,0,0,0,20-6.81c5.81-2.64,8-4,9.72-5.57,7-6.09,8.88-14.07,10.69-21.79l.16-.66c4.47-19,9.14-34.52,13.13-43.71,4.53-10.44,8.37-15.69,14.18-19.37a37.1,37.1,0,0,1,12.4-4.61c5.34-1.2,10.78-1.64,25.77-.72,5.83.08,11.76.39,17.63.92,11.57,1.06,17.39,1.59,23.38,3.56,6.24,2.06,9,4.33,12.7,7.46a81.83,81.83,0,0,0,13.83,9.67c8.9,5,10.32,5.61,25.26,10.56,8.87,2.94,16.37,7.25,31.33,15.85a156.14,156.14,0,0,1,24.73,17.1A115.42,115.42,0,0,0,774,275.14c15,7.85,26.5,11.31,38.43,11.59a96.85,96.85,0,0,0,15.13-1.05c5.71-.75,19.09-2.51,32.68-8.71,7.26-3.31,29.34-13.4,40.52-37.29a67.27,67.27,0,0,0,6.37-26.85c.13-7.81-1.3-12.38-3.47-19.29-1-3.17-2.12-6.77-3.36-11.47-3-11.33-8-30.3-6.11-50.63.75-8.1,3.23-15.83,8.16-31.22A284.5,284.5,0,0,1,912.6,72.69c2.53-6,5.39-12.84,9.38-23.47,5.19-13.81,7.84-22.22,9.77-28.37,2.62-8.32,4-12.59,8.58-20.85H938c-4.29,7.84-5.72,12.39-8.19,20.25-1.93,6.13-4.57,14.51-9.74,28.27-4,10.59-6.83,17.39-9.35,23.39a287.49,287.49,0,0,0-10.36,27.7c-5,15.53-7.47,23.33-8.24,31.64-1.92,20.69,3.14,39.87,6.17,51.33,1.25,4.74,2.38,8.37,3.38,11.56,2.19,7,3.5,11.17,3.38,18.66a65.35,65.35,0,0,1-6.18,26c-10.87,23.22-32.45,33.07-39.54,36.31-13.31,6.08-26.49,7.81-32.12,8.55a93.6,93.6,0,0,1-14.82,1c-11.6-.27-22.83-3.67-37.54-11.36A112.68,112.68,0,0,1,752,258.13a159.54,159.54,0,0,0-25-17.3c-15.06-8.66-22.62-13-31.68-16-14.77-4.89-16.17-5.48-24.91-10.4A78.88,78.88,0,0,1,656.9,205c-3.77-3.16-6.75-5.65-13.35-7.83-6.22-2-12.1-2.58-23.84-3.65-5.91-.54-11.89-.85-17.73-.92-15.18-.94-20.76-.48-26.28.76a38.41,38.41,0,0,0-13,4.88c-6.19,3.91-10.24,9.4-14.95,20.25-4,9.29-8.74,24.94-13.24,44.05l-.15.66c-1.75,7.41-3.55,15.08-10.06,20.74-1.35,1.17-3.07,2.46-9.24,5.26a90,90,0,0,1-19.57,6.68c-3.59.81-5.76,1.29-8.15,3.65C476.93,309.7,483,335,485.54,345.8l.27,1.12a46.31,46.31,0,0,1,1.55,17.5c-.47,3.86-1.24,10.33-6.19,15.48-3.66,3.8-7.87,5.12-11,6.09a38.41,38.41,0,0,1-18.32.7c-4.17-.8-10.13-2.74-22.66-11.11-16.7-11.16-25.08-16.76-27.72-26.23a28.63,28.63,0,0,1,.81-17.64c3.54-9,10.67-12.22,18.93-15.95,7.43-3.35,15.11-6.82,21.11-15,5.49-7.44,11-21,5.88-43.28-4.28-18.8-18.15-40.52-38.48-43.78-16.84-2.7-31.27,3.12-45.4,18.31-16.28,17.5-24.2,35-29.28,48.25-6.2,16.14-9.3,24.25-7.73,33.28,1.75,10.09,7.33,16.48,11.81,21.61,4.28,4.89,7.65,8.76,6.78,14.06s-5.26,7.45-11.32,10.37c-5.6,2.7-12.58,6.06-18.53,13.29-9.52,11.54-9.36,23.93-9.22,34.86.11,9,.21,16.73-5.65,21.15-8.24,6.22-24,3.29-35.93-2.38-12.57-6-20.87-14.46-21.15-21.65-.18-4.76,3.28-7.21,8.06-10.59,5.08-3.59,11.39-8.06,16.1-17.13,8.45-16.3,5.74-35.87,3.57-51.59-1.7-12.26-3-21.94,1.82-24.49a17.27,17.27,0,0,1,2.63-.95,78.68,78.68,0,0,0,9.24-3.48,92.4,92.4,0,0,0,9.53-4.79,65.75,65.75,0,0,0,15.67-13.11c8.57-9.47,15.36-19.69,20.33-27.16l2.87-4.3c10.56-15.53,17.54-25.79,29.75-34.71,5.45-4,22-16.09,44.41-16.74a59.78,59.78,0,0,1,10.75.68,49.87,49.87,0,0,0,15.32.12,87.61,87.61,0,0,0,29.34-9.92c4.31-2.35,5.91-3.66,10.65-7.56,2.75-2.26,6.51-5.34,12.47-10,5.72-4.48,10.13-7.8,13.68-10.48,9.07-6.82,12.46-9.38,17-15.68,6.35-8.77,8.65-16.05,9.46-19.61,1.92-8.48.94-15.14,0-21.59A67.43,67.43,0,0,0,523,87.07c-1.44-4.1-3.24-9.21-5.62-18.36-3-11.55-3.92-17.79-1.42-24.29a35,35,0,0,1,4.94-8.29c4.92-6.76,10.25-11,15.28-14.71,12.14-9,18.24-13.53,25.77-16.83A96.15,96.15,0,0,1,575.23,0h-6.89c-2.44.82-4.84,1.73-7.21,2.76C553.39,6.15,547.23,10.71,535,19.81Z"/><path d="M728.32,344.83a28.37,28.37,0,0,1-8.05,5.41,27.4,27.4,0,0,0-8.81,6.25,60.8,60.8,0,0,0-14.82,24.26A65.63,65.63,0,0,0,694,393.41a67.21,67.21,0,0,0,0,14.18c.63,7,5.38,10.54,9.45,12.86,11,6.23,23.2,7.77,35,9.25l1.86.24c4.25.53,8.59.92,12.79,1.28,2.73.24,5.47.48,8.2.77,3.31.34,6.61.73,9.91,1.11,5.76.67,11.71,1.37,17.6,1.82,2.89.22,5.77.32,8.67.32,10.52,0,21.25-1.35,33.51-3.36a103.55,103.55,0,0,0,17.13-4.54c6.17-2.15,9.06-7.59,7.74-14.54-.65-3.39-1.11-6.9-1.56-10.28-.31-2.35-.63-4.78-1-7.16-1.07-6.69-1.48-11.24-1.84-15.26-.63-7-1-11.66-4.44-21.32a82.63,82.63,0,0,0-6.27-13.65c-7.17-18.41-16.88-30.07-28.87-34.64a63.75,63.75,0,0,0-11.8-2.88c-7-1.23-14.83-2.63-24.68-8.28a72.29,72.29,0,0,1-6.82-4.74l-4.51-3.27c-29.61-21.43-33.9-23.88-40.89-25.89-17.32-5-26.2.57-27.46,2.21l-1.53,2c-1.59,2.09-2.79,3.68-3.19,4.22l-.14.19c-1,1.39-9,8.62-18.84,7.13-9.11-1.37-15.64-9.61-17.37-17-1-4.41-.11-7.4,1-10.86s2.23-7.22,1.43-12.79c-.94-6.55-4.14-12.74-9.5-18.38-14.36-15.11-37.94-11.93-46.82-10.73-10.65,1.43-21.66,2.92-29.93,12.36-10.43,11.91-8.66,27.71-8.2,30.76a41.14,41.14,0,0,0,7.06,17.24c8.54,12.7,20.86,17.71,32.77,22.54A81.63,81.63,0,0,0,618.68,299c3.56.64,10.47,1.56,16.83.52,1.34-.21,2.47-.49,3-.64a32.24,32.24,0,0,0,8.44-3.58l.36-.21c4.13-2.34,8.87-2.38,13.89-2.43,3,0,4.31.4,14.57,3.67l4.5,1.43c.78.25,19.07,6,25.1,3.38,1.88-.82,3.76-1.83,3.84-1.87l1.25-.7a22.89,22.89,0,0,1,15.69-2.88l2.61,1,3.09,1.25c6.61,2.64,7.3,2.92,7.56,3.08,3.25,2.06,4.62,7.89,3.86,16.43C742.71,324.26,739.62,334.53,728.32,344.83Zm12.2-45.48c-.42-.26-.42-.26-7.88-3.25l-3.09-1.24c-2.7-1.08-2.7-1.08-2.81-1.11a18.05,18.05,0,0,0-4.31-.45,26.18,26.18,0,0,0-13,3.55c-.17.1-.58.34-1.14.64,0,0-1.89,1-3.68,1.79-4.45,1.93-18.62-1.83-23.7-3.45l-4.51-1.43c-10.23-3.26-11.79-3.76-14.91-3.76h-.28c-5.28.05-10.28.09-14.86,2.7l-.38.21a30.31,30.31,0,0,1-8,3.38c-.42.11-1.54.39-2.84.6-6.07,1-12.72.1-16.15-.52a79.6,79.6,0,0,1-15.82-4.6c-11.64-4.72-23.67-9.61-31.87-21.8a39.38,39.38,0,0,1-6.74-16.43c-.44-2.89-2.13-17.9,7.72-29.14,7.78-8.88,17.94-10.25,28.7-11.7,9.41-1.27,31.45-4.25,45.1,10.13,5.07,5.33,8.09,11.15,9,17.28.73,5.13-.33,8.58-1.36,11.92-1.11,3.58-2.15,7-1,11.91,1.89,8.08,9,17.05,19,18.56s18.74-5.26,20.73-7.9l.15-.2c.4-.54,1.59-2.13,3.18-4.2.85-1.12,1.48-1.93,1.51-2,.87-1.12,9.22-6.15,25.33-1.52,6.72,1.93,10.93,4.35,40.28,25.59l4.51,3.27c5.11,3.71,5.53,4,7,4.86,10.15,5.82,18.21,7.25,25.32,8.51a61.67,61.67,0,0,1,11.44,2.78C822.66,316.73,832,328,839,345.93l.07.14a79,79,0,0,1,6.15,13.37,70.72,70.72,0,0,1,4.34,20.84c.34,3.85.78,8.64,1.86,15.4.37,2.35.69,4.76,1,7.1.45,3.41.91,6.94,1.57,10.39,1.14,6-1.2,10.46-6.43,12.28a100.53,100.53,0,0,1-16.8,4.45c-15.48,2.54-28.5,4-41.7,3-5.84-.44-11.78-1.13-17.52-1.81-3.31-.38-6.62-.77-9.93-1.11-2.74-.29-5.49-.53-8.24-.77-4.17-.37-8.49-.74-12.71-1.28l-1.86-.23c-11.63-1.46-23.64-3-34.29-9-5.48-3.12-8-6.5-8.44-11.31a64.77,64.77,0,0,1,0-13.78,63.22,63.22,0,0,1,2.53-12.26,58.79,58.79,0,0,1,14.32-23.45,25.42,25.42,0,0,1,8.26-5.87,29.86,29.86,0,0,0,8.54-5.74c11.78-10.73,15-21.51,15.64-28.66C746.14,308.19,744.49,301.87,740.52,299.35Z"/><path d="M619.68,74c2.7-3.58,4.93-6.93,4.76-11.63-.25-7.53-3.72-12.35-10.3-14.31a53.43,53.43,0,0,0-8.72-1.59c-1.29-.17-2.58-.33-3.86-.53a.94.94,0,0,0-.41,0,1,1,0,0,0-.52,0c-5.26,1.45-11.22,3.09-15.1,8.86a18.44,18.44,0,0,0-2.76,14.89,18,18,0,0,0,9.15,11.6,20.66,20.66,0,0,0,9.76,2.52C608.33,83.86,614.83,80.45,619.68,74Zm-26.82,5.55a16,16,0,0,1-8.15-10.32A16.42,16.42,0,0,1,587.19,56c3.46-5.16,9-6.69,14-8l.09,0c1.3.21,2.61.38,3.93.54a53.35,53.35,0,0,1,8.4,1.53c5.74,1.71,8.65,5.78,8.88,12.46.13,4-1.81,7-4.37,10.35C611.47,81.58,601.57,84.23,592.86,79.58Z"/><path d="M412.54,256.66a17.92,17.92,0,0,0-8.61-14.2c-4.53-2.59-9.94-2.61-15.23-.07-11.36,5.45-15.47,16-18,25.6a34.6,34.6,0,0,0-1.1,10.88l0,.27c.22,3.62.59,9.67,4.71,15.16a22.94,22.94,0,0,0,8.34,6.8,1.05,1.05,0,0,0,.44.1h9a1.05,1.05,0,0,0,.49-.13,40.31,40.31,0,0,0,8.19-6.16C409.48,286.43,413.88,272.13,412.54,256.66Zm-20.7,42.54h-8.49a20.85,20.85,0,0,1-7.41-6.11c-3.76-5-4.09-10.46-4.31-14.07l0-.28a32.35,32.35,0,0,1,1-10.24c2.4-9.16,6.29-19.21,16.91-24.31,4.69-2.25,9.43-2.24,13.37,0a16.11,16.11,0,0,1,7.62,12.63c1.28,14.88-2.89,28.58-11.16,36.65A38.19,38.19,0,0,1,391.84,299.2Z"/><path d="M783.42,47.89c-.65,10.22,1.44,20.65,6.78,33.83A198.42,198.42,0,0,1,802.44,127c.34,2.24.75,4.51,1.14,6.69.69,3.85,1.4,7.82,1.76,11.74,1.16,12.53-3.79,23.66-8.78,32.9-2.46,4.55-4.91,9.19-7.28,13.68-3.95,7.49-8,15.24-12.27,22.73-7.39,13.13-2.81,20.4,6.34,27.28,8.77,6.59,19,9,27.92,10.52a143.17,143.17,0,0,0,23.8,2.07c1.12,0,2.23,0,3.34,0,19.77-.54,34.91-12.44,39.48-31.06,2.6-10.55.49-20.43-2.09-30.47-.43-1.66-.84-3.32-1.25-5-1.27-5.13-2.59-10.45-4.33-15.54-4.65-13.62-3-27.08-.79-38.45A246.47,246.47,0,0,1,883.3,86.81c1.62-3.92,3.41-7.86,5.15-11.66,2.5-5.48,5.08-11.15,7.2-16.91,2.7-7.36,5.11-15,7.43-22.31,1.67-5.3,3.4-10.77,5.23-16.11,2.65-7.73,5-14.09,7.26-19.82h-2.15c-2.2,5.56-4.45,11.74-7,19.17-1.84,5.36-3.57,10.85-5.25,16.15-2.31,7.33-4.71,14.91-7.4,22.23-2.09,5.69-4.66,11.32-7.14,16.77-1.74,3.82-3.55,7.77-5.18,11.73a249.1,249.1,0,0,0-14,47.64c-2.26,11.64-3.94,25.42.87,39.49,1.71,5,3,10.28,4.28,15.37q.61,2.5,1.25,5c2.52,9.78,4.57,19.4,2.09,29.5-4.42,18-18.47,29-37.6,29.53a138.57,138.57,0,0,1-26.74-2c-8.65-1.46-18.63-3.81-27.06-10.15-8.77-6.59-12.53-12.74-5.79-24.7,4.23-7.52,8.33-15.27,12.29-22.78,2.37-4.48,4.82-9.12,7.27-13.66,5.13-9.5,10.22-21,9-34-.37-4-1.1-8-1.79-11.91-.39-2.17-.8-4.43-1.13-6.64A200.17,200.17,0,0,0,792.05,81c-5.22-12.89-7.27-23-6.64-33,.86-13.54,1.53-24.92,2-36.48A58.05,58.05,0,0,1,789,0h-2a59.59,59.59,0,0,0-1.58,11.45C784.94,23,784.27,34.36,783.42,47.89Z"/><path d="M622.21,15.07a112,112,0,0,1-17.77,1.65,73.67,73.67,0,0,0-19.23,2.52c-6.39,1.69-14.33,3.79-22.39,10.08A47.52,47.52,0,0,0,549,46c-6.89,14.17-3.8,28-1.55,38.15,1.63,7.32,3.26,10.3,6.5,16.23,2.86,5.24,7.18,13.16,14.1,28.95a116.42,116.42,0,0,0,10.54,19.12c3.85,5.69,6,8.82,9.78,11.94,8.87,7.28,19,8.05,24.44,8.47,8.78.68,24.6.41,31.8-8.94.31-.41.58-.82.85-1.25a11.77,11.77,0,0,1,2.07-2.58c3.52-3.25,9.24-4.87,14.56-4.15,5.1.7,8.71,3.56,12.54,6.58,3.43,2.72,7,5.52,12,7.29,2,.71,6.24,2.19,9,.33a24.59,24.59,0,0,1,3.83-2.25l1.19-.47.16,0,0,0,5.22-1.86c9-3.33,13.54-5,44.93-22.84a34.09,34.09,0,0,0,14.68-22.53c1.69-9.09.25-16.4-1.27-24.13-.18-.91-.37-1.82-.54-2.75a108.24,108.24,0,0,1-1.93-14,179.27,179.27,0,0,0-2.59-19.39c-2.18-12.5-3.27-18.77-5.12-22.26-4.5-8.5-14-19.15-17.06-22.65l-.84-.93c-2.09-2.34-3.24-3.63-4.31-6A20.19,20.19,0,0,1,730.73,0h-2a21.91,21.91,0,0,0,1.52,4.76c1.19,2.66,2.49,4.11,4.64,6.52l.83.93c8.23,9.27,13.88,16.76,16.79,22.26,1.7,3.21,2.78,9.37,4.92,21.66A176.19,176.19,0,0,1,760,75.34a110.76,110.76,0,0,0,2,14.26c.18.94.36,1.86.54,2.77,1.49,7.54,2.9,14.66,1.27,23.37a32.12,32.12,0,0,1-2.2,7.33A33.55,33.55,0,0,1,749.94,137c-31.16,17.71-35.64,19.36-44.56,22.66-.42.16-5,1.79-5.17,1.84h0l-1.44.56a28.29,28.29,0,0,0-4.27,2.48c-1.9,1.27-5.61,0-7.19-.59-4.69-1.65-8.11-4.35-11.41-7-4-3.2-7.87-6.22-13.51-7-5.9-.81-12.25,1-16.19,4.66a13.8,13.8,0,0,0-2.39,3c-.24.38-.48.75-.75,1.11-6.88,8.93-23.32,8.69-30.07,8.17-5.22-.4-14.94-1.15-23.32-8-3.59-2.94-5.65-6-9.41-11.53a115.19,115.19,0,0,1-10.37-18.84c-6.93-15.81-11.28-23.78-14.16-29.05-3.25-6-4.73-8.66-6.3-15.7-2.19-9.84-5.18-23.3,1.4-36.85a45.78,45.78,0,0,1,13.25-16c7.74-6,15.14-8,21.67-9.72a72.19,72.19,0,0,1,18.78-2.45A114.07,114.07,0,0,0,622.56,17c9.11-1.59,15.4-3.69,24.11-6.6C657.79,6.72,666.24,3.89,673.29,0h-4.4C663,2.82,655.68,5.32,646,8.54,637.41,11.43,631.18,13.51,622.21,15.07Z"/><path d="M640.68,146.86a41.09,41.09,0,0,0,11.85-2.14c4.34-1.29,8.08-2.4,13.81-1.05a27.82,27.82,0,0,1,5.94,2.19,14.15,14.15,0,0,0,6.62,1.81l.57,0c5.79-.22,11.42-3.77,16.75-10.55,4.52-3.1,9-6.44,13.45-9.93,1.74-1.38,3.18-2.52,4.43-3.59,14.24-12.17,20.57-25.66,19.35-41.24-.92-11.79-5.67-19-13.73-20.85a18.57,18.57,0,0,0-5.23-.46c-8,.38-14,4.81-17.58,8.48A91.83,91.83,0,0,1,679,80.88a73.19,73.19,0,0,1-21.55,6.58c-4.9.85-9.54,1.65-15.05,4.29-12.09,5.81-23.35,18.35-27.37,30.49-1.93,5.84-1.93,10.89,0,14.59C619.35,145,633.17,147,640.68,146.86Zm-23.75-24c3.86-11.67,14.69-23.72,26.34-29.31,5.26-2.53,9.55-3.27,14.52-4.13a74.75,74.75,0,0,0,22.07-6.75A94,94,0,0,0,698.21,71l.09-.08c3.34-3.42,8.87-7.57,16.28-7.92a16.27,16.27,0,0,1,4.69.41c7.23,1.66,11.33,8.07,12.19,19.06,1.16,14.89-4.94,27.83-18.66,39.56-1.23,1-2.65,2.18-4.37,3.54-4.41,3.5-8.94,6.84-13.47,9.94a1.1,1.1,0,0,0-.22.21c-5,6.37-10.14,9.7-15.35,9.91a11.92,11.92,0,0,1-6.26-1.61,29.09,29.09,0,0,0-6.33-2.32,23.34,23.34,0,0,0-5.47-.67A31.81,31.81,0,0,0,652,142.8a38.61,38.61,0,0,1-11.32,2.06c-6.53.1-20-1.62-23.82-9C615.13,132.69,615.17,128.18,616.93,122.87Z"/><path d="M192.83,551.25c6.8,0,10.76-1.31,13.37-2.47a34,34,0,0,0,14.46-12.2,32.44,32.44,0,0,0,3.89-8.45c8-25.71,12.43-39.88,14.81-57.63,1.28-9.52,1.91-19.62-2.14-28.94a31.75,31.75,0,0,0-4.19-7A33,33,0,0,0,219,424.67l-.31-.13c-9.47-3.83-27.81-14.46-36.43-30a87,87,0,0,1-7.62-20.18c-.86-3.52-1.33-6.41-1.74-8.95a167.57,167.57,0,0,1-2-19.43l0-.44c-.61-10.33-32.67-25.46-98.05-46.25a82.11,82.11,0,0,0-17.15-5.5c-7.83-1.59-11.55-1.12-14.16-.46s-5.94,1.5-8.29,4.2c-4.27,4.89-3.14,13.64-.28,19.69s7.68,9.83,11.94,13.16c3.57,2.79,6.94,5.43,8.49,8.91a22.4,22.4,0,0,1,1.83,10.08c0,.54-.12,1-.13,1.06-.55,3.46-.18,10.9.26,19.5.51,10.12,1.09,21.57.51,31.05C55.3,409,54.63,420,48,430.8a85.73,85.73,0,0,1-6.75,9.05c-3.26,4-5.71,6.55-8.29,9.23C30.13,452,27.27,455,23.28,459.9a47,47,0,0,0-7.17,11.68C13.82,477.06,13.94,480,14.3,482a15.23,15.23,0,0,0,2.94,6.42C33.8,511.1,49,517.38,49.67,517.63c1.74.7,3.29,1.2,17.07,4.07s21.58,4.32,27.85,5.48c5.36,1,9.6,1.78,15.63,3.09,18.22,4,28.25,6.15,41.77,11.1,1.84.67,3.58,1.33,5.28,2,7.44,2.84,13.88,5.3,23.92,6.88A74.78,74.78,0,0,0,192.83,551.25Zm-40.15-11.76c-13.65-5-23.73-7.19-42.05-11.17-6-1.32-10.3-2.11-15.68-3.1-6.25-1.16-14-2.6-27.8-5.48-13.59-2.83-15.15-3.33-16.74-4-.15-.06-15.37-6.37-31.55-28.5a13.43,13.43,0,0,1-2.59-5.6c-.31-1.72-.4-4.34,1.69-9.33a44.21,44.21,0,0,1,6.88-11.2c3.93-4.88,6.76-7.83,9.51-10.68s5.09-5.29,8.4-9.35a88.76,88.76,0,0,0,6.9-9.26c6.94-11.22,7.64-22.53,8.14-30.79.59-9.58,0-21.1-.5-31.27-.44-8.49-.81-15.83-.29-19.08,0-.12.09-.58.15-1.19a24,24,0,0,0-2-11.08c-1.75-3.94-5.31-6.73-9.07-9.67-4.29-3.36-8.72-6.82-11.37-12.44s-3.54-13.5,0-17.52c1.94-2.23,4.89-3,7.27-3.58a18,18,0,0,1,4.65-.56,43.78,43.78,0,0,1,8.63,1A80.16,80.16,0,0,1,72,301.11l.1,0c79.26,25.2,96.34,38.09,96.71,44.47l0,.42a170.76,170.76,0,0,0,2,19.66c.4,2.45.9,5.51,1.78,9.1a86.77,86.77,0,0,0,7.81,20.68c8.89,16.06,27.71,27,37.43,30.91l.32.13a31.17,31.17,0,0,1,13.24,9.27,29.28,29.28,0,0,1,3.91,6.56c4.39,10.1,2.84,21.67,2,27.88-2.36,17.59-6.76,31.69-14.74,57.3a30.79,30.79,0,0,1-3.65,8A32,32,0,0,1,205.39,547c-3.61,1.61-10,3.5-23.89,1.31-9.84-1.55-16.18-4-23.52-6.78C156.27,540.83,154.52,540.16,152.68,539.49Z"/><path d="M191.85,483c.85-9.79-3.06-17.75-12-24.34-6.2-4.59-12.28-9-18.56-13-7.72-4.87-11.89-12.36-12.38-22.25-1.48-29.51-2.15-59.11-2.16-59.39-.09-14.5-.45-16.42-2.09-19-5-8-17.63-13.11-32.1-13.11h0c-14.32,0-26.39,5-31.51,13.11-3.51,5.55-3.06,11.81-2.16,24.3a99.59,99.59,0,0,0,10.63,38.61c5.66,11.19,14.77,19,25.22,27.32l7.49,6c8.88,7.12,11.34,17.56,12.58,26.83,2.44,18.27,10.15,28.8,24.26,33.14a39.44,39.44,0,0,0,11.42,1.7,33.37,33.37,0,0,0,3.9-.21C183.49,501.71,191.1,491.49,191.85,483ZM174.2,500.73a36.83,36.83,0,0,1-14.52-1.42c-13.28-4.08-20.54-14.09-22.87-31.49-1.29-9.67-3.88-20.57-13.31-28.13l-7.49-6c-10.26-8.18-19.2-15.83-24.68-26.66A97.77,97.77,0,0,1,80.9,369.18c-.86-12-1.29-18.09,1.86-23.08,4.76-7.52,16.18-12.18,29.82-12.18h0c13.8,0,25.74,4.78,30.41,12.18,1.36,2.16,1.69,4.07,1.78,18,0,.3.68,29.92,2.16,59.46.53,10.58,5,18.6,13.32,23.84,6.21,3.92,12.27,8.35,18.43,12.92,8.3,6.14,12,13.52,11.15,22.55C189.19,490.39,182.21,499.84,174.2,500.73Z"/><path d="M347.29,21.52c-2.31,4.31-4.56,8.76-6.73,13.05-4.17,8.26-8.48,16.79-13.41,24.74-8.58,13.83-19.57,29.43-36,40.2C276.78,108.9,261,110,244.24,102.78c-5.46-2.34-10.6-5.78-15.58-9.09-2.07-1.38-4.2-2.81-6.34-4.14-1.17-.73-2.31-1.49-3.45-2.25-3.86-2.56-7.84-5.21-12.74-6.59-4.53-1.27-8.37-.39-11.4,2.62a51.6,51.6,0,0,0-9.19,12.16c-4.22,7.88-8.33,16-12.31,23.81-3.35,6.6-6.81,13.42-10.31,20.08-10.52,19.94-26.41,37.49-48.6,53.65-12.48,9.1-27.22,15.26-45.07,18.85-8.74,1.75-17.86,4.25-25.44,10.64-.35.3-.73.59-1.1.89a19,19,0,0,0-3,2.76c-2.9,3.58-4.16,7-3.74,10.23.44,3.4,2.71,6.55,6.92,9.62,3.35,2.44,6.84,4.8,10.22,7.07,4.72,3.19,9.59,6.48,14.12,10s9.15,7.58,13.52,11.4c4.55,4,9.25,8.1,14.11,11.88l.81.63c7.58,5.91,15.41,12,25.42,14.13,48,17.87,73.11,32.85,74.71,44.54l.05.35c.91,7.29,3.49,13.25,7.68,17.71,1.55,1.66,5.2,5.55,10.73,6.2a12.65,12.65,0,0,0,1.61.1c6.81,0,12-5.11,14.91-7.95,2.36-2.32,8.65-8.48,9-16.5.31-7.67-4.88-12.55-9.9-17.28-4.69-4.41-9.11-8.57-8.92-14.7.27-9.19,10.51-15.89,13.87-18.1,5.77-3.77,10.38-4.17,15.72-4.64A61.41,61.41,0,0,0,264,288.56c17.47-5.3,31.07-14.48,40.42-27.3,5.24-7.19,10.15-14.79,14.89-22.14,2.19-3.38,4.45-6.88,6.71-10.29,12.12-18.28,28.18-32.87,49.12-44.62,8.95-5,19.63-8.28,33.62-10.25a98.37,98.37,0,0,0,41.85-15.79c2.85-1.91,5.72-3.79,8.59-5.67,7.26-4.75,14.77-9.67,21.84-14.95,9.71-7.23,15-15.33,16.64-25.47A31.32,31.32,0,0,0,491.09,87c-5.42-6.95-12.08-12.81-19-18.7-8.21-7-16.87-15.93-18.85-29-.89-5.86-.61-12.06-.34-18,.07-1.58.14-3.15.19-4.71.1-3,.38-6.09.64-9.06.22-2.45.44-4.95.57-7.46h-2c-.13,2.44-.33,4.88-.55,7.28-.27,3-.54,6.1-.64,9.17-.06,1.56-.13,3.12-.2,4.69-.28,6.08-.56,12.38.36,18.44,2.09,13.78,11.54,23.38,19.54,30.2,6.83,5.82,13.4,11.61,18.7,18.41a29.36,29.36,0,0,1,6.19,23.57c-1.56,9.6-6.59,17.29-15.86,24.19-7,5.24-14.51,10.14-21.75,14.88-2.87,1.88-5.75,3.77-8.6,5.68a96.4,96.4,0,0,1-41,15.47c-14.24,2-25.15,5.34-34.32,10.49-21.22,11.9-37.51,26.71-49.81,45.25-2.26,3.42-4.53,6.93-6.72,10.32-4.73,7.32-9.62,14.9-14.83,22-9.08,12.46-22.33,21.4-39.38,26.57a59.59,59.59,0,0,1-13.05,2.25c-5.61.49-10.46.91-16.65,5-3.58,2.35-14.47,9.48-14.77,19.71-.21,7,4.75,11.7,9.55,16.22s9.54,9,9.27,15.74c-.29,7.22-6.16,13-8.37,15.15-2.88,2.82-8.24,8.08-14.88,7.29-4.81-.56-8-4-9.52-5.58-3.88-4.14-6.29-9.72-7.15-16.58l-.05-.38c-1.74-12.66-26.62-27.76-76.06-46.17l-.15,0c-9.58-2-17.25-8-24.67-13.77l-.81-.63c-4.81-3.74-9.5-7.84-14-11.8s-8.93-7.81-13.59-11.48-9.49-6.9-14.24-10.1c-3.36-2.27-6.84-4.62-10.16-7-3.75-2.73-5.75-5.43-6.12-8.26-.35-2.68.73-5.53,3.31-8.71A16.89,16.89,0,0,1,44,225c.38-.3.77-.61,1.14-.93,7.23-6.09,16.07-8.5,24.54-10.2,18.14-3.65,33.14-9.92,45.86-19.19,22.44-16.35,38.53-34.12,49.19-54.34,3.51-6.67,7-13.5,10.33-20.1,4-7.83,8.07-15.92,12.28-23.78a49.77,49.77,0,0,1,8.84-11.68,8.42,8.42,0,0,1,6.15-2.6,12.11,12.11,0,0,1,3.3.49c4.59,1.29,8.27,3.74,12.17,6.33,1.16.77,2.31,1.53,3.5,2.27,2.11,1.32,4.24,2.74,6.29,4.11,5,3.37,10.28,6.85,15.89,9.27,17.43,7.5,33.84,6.35,48.78-3.44,16.78-11,27.93-26.8,36.63-40.82,5-8,9.31-16.59,13.5-24.89,2.16-4.28,4.4-8.71,6.7-13A72.7,72.7,0,0,1,367.42,0h-3.11A74.92,74.92,0,0,0,347.29,21.52Z"/><path d="M92.38,58.44C89.53,64.33,86.22,70.12,83,75.73S76.51,87.12,73.65,93c-6.85,14.14-15.41,30.69-26.94,46.28a161.47,161.47,0,0,0-11.54,18.1c-2.2,4-2.75,7.15-1.69,9.63s3.71,4.27,8.29,5.5c9.28,2.48,19.26,3.39,28.08,4.19,15.13,1.38,30.36-2.39,46.53-11.52A94.48,94.48,0,0,0,144.11,142c11.76-14.77,19.39-32.76,24.71-58.34,1.78-8.54,3.76-16.82,8.36-24.14,5.84-9.27,13.2-13.33,22.51-12.43,6.06.59,12.1,3.18,18,7.71,2.43,1.87,4.84,3.86,7.17,5.78,4,3.28,8.1,6.68,12.44,9.63,15.85,10.76,30.55,11.77,45,3.09,9.45-5.7,17-14.22,23.86-26.82,6.59-12.17,10.25-25.19,14-39.71A58.49,58.49,0,0,0,321.45,0h-2a61.58,61.58,0,0,1-1.27,6.23c-3.74,14.39-7.36,27.28-13.84,39.25-6.66,12.28-14,20.56-23.14,26.07-13.67,8.24-27.67,7.24-42.81-3-4.26-2.89-8.34-6.26-12.29-9.51-2.34-1.94-4.77-3.93-7.21-5.82-6.17-4.76-12.56-7.49-19-8.12-10-1-18.21,3.52-24.4,13.36-4.78,7.6-6.81,16.06-8.63,24.79-5.26,25.26-12.76,43-24.32,57.5a92.35,92.35,0,0,1-27.14,22.76C99.59,172.39,84.75,176.08,70,174.74c-8.74-.79-18.63-1.69-27.74-4.13-3.89-1-6.16-2.47-7-4.35s-.28-4.47,1.6-7.89a159.74,159.74,0,0,1,11.4-17.87C60,124.78,68.56,108.12,75.45,93.9c2.83-5.84,6.12-11.61,9.3-17.18s6.55-11.46,9.43-17.41c6-12.38,11.88-25.88,18.56-42.49A94.5,94.5,0,0,1,121.46,0h-2.37a98.17,98.17,0,0,0-8.21,16.08C104.22,32.64,98.34,46.11,92.38,58.44Z"/><path d="M139,18.52q-2.84,5.18-5.69,10.34c-9.91,18-20.15,36.59-29.65,55.19-3.58,7-8.3,17.78-7.82,29.88.3,7.42,3,13.11,7.71,16a14.54,14.54,0,0,0,7.79,2.1,24.19,24.19,0,0,0,9.88-2.35c9.38-4.2,16.1-12,20.54-23.94,4.61-12.34,5.69-25.33,6.12-35.27.4-9.14,1-18.08,3.34-26.77,2.61-9.55,8.4-17.53,17.69-24.42A67.93,67.93,0,0,1,194.54,7.07c14.29-3.17,27.42.42,39,10.68,1.46,1.29,2.88,2.69,4.25,4a74.53,74.53,0,0,0,6.41,5.85l.53.43c1.48,1.22,4.22,3.49,7.18.62,2.36-2.3,2.57-5.22.6-8.24-2.49-3.81-5.18-7.7-8-11.54A64.19,64.19,0,0,1,239,0h-2.23a64.85,64.85,0,0,0,6.12,10.09c2.8,3.82,5.48,7.67,7.95,11.46,1.45,2.21,1.34,4.08-.33,5.71s-2.74.73-4.51-.73c-.2-.17-.39-.33-.58-.47a74.34,74.34,0,0,1-6.23-5.69c-1.39-1.37-2.82-2.79-4.32-4.12C222.78,5.55,209.06,1.8,194.11,5.12a70.06,70.06,0,0,0-26.38,12.56c-9.65,7.15-15.68,15.49-18.42,25.49-2.44,8.9-3,17.95-3.4,27.22-.46,10.4-1.52,22.64-6,34.65-4.25,11.38-10.62,18.84-19.48,22.82-6.14,2.75-11.75,2.89-15.81.37s-6.49-7.64-6.76-14.38C97.4,102.22,102,91.79,105.46,85c9.48-18.57,19.72-37.16,29.62-55.14q2.85-5.16,5.69-10.34C145.65,10.62,151.65,4.2,159,0h-3.78C148.81,4.34,143.45,10.45,139,18.52Z"/><path d="M148.8,709.7l-.2,0a1,1,0,0,0-.51,0A43.19,43.19,0,0,0,130.2,720l-3.08,2.84c-8.88,8.13-18.05,16.54-23.61,27.92-8.54,17.46-4,45.52,9.22,56.66a24,24,0,0,0,15.88,5.83,27.83,27.83,0,0,0,2.86-.15c16.2-1.62,28.3-11.48,39-20.19,2.59-2.11,5.19-4.3,7.7-6.42C182.3,783,186.6,779.34,191,776c5.61-4.3,11.78-10.52,9.71-20.51a32.24,32.24,0,0,0-4.66-11.8c-7.9-11.41-17.6-24.16-32.73-31A30.28,30.28,0,0,0,148.8,709.7Zm45.56,35.12a30.32,30.32,0,0,1,4.35,11.06c1.46,7-1.22,12.59-9,18.52-4.41,3.38-8.72,7-12.89,10.53-2.5,2.12-5.09,4.3-7.67,6.4-10.46,8.53-22.32,18.19-37.92,19.75A22,22,0,0,1,114,805.86c-12.36-10.43-16.76-37.81-8.72-54.26,5.4-11,14.43-19.31,23.17-27.31l3.09-2.85a41.24,41.24,0,0,1,17-9.77.8.8,0,0,0,.31,0,28.39,28.39,0,0,1,13.55,2.85C177.12,721.14,186.62,733.63,194.36,744.82Z"/><path d="M418.49,25.31C417,17,411.55,12.06,402.72,11a1.11,1.11,0,0,0-.37,0,1,1,0,0,0-.42,0c-17.41,3-29.36,13.87-36.55,33.17a162.08,162.08,0,0,0-5.72,21c-.63,2.8-1.28,5.69-2,8.51-1.07,4.32-2.11,8.72-3.11,13-1.86,7.88-3.78,16-6,23.94-3.49,12.66-9.76,22.36-18.61,28.82-10.61,7.75-18.31,16.09-23.54,25.5a13.07,13.07,0,0,1-7.8,6.59,13.61,13.61,0,0,1-10.39-1.64,143.53,143.53,0,0,1-18.83-12.4c-12.44-10-27.48-21.29-44.74-29-7.08-3.18-14.11-5.81-22.23-3.07a29.56,29.56,0,0,0-14.92,11.44c-2.68,3.75-5.29,7.63-7.82,11.38-2.35,3.48-4.77,7.08-7.23,10.56-4.2,5.92-8.51,11.9-12.69,17.69-7,9.73-14.26,19.79-21.17,29.85a305.4,305.4,0,0,0-16.06,26.53c-4.2,7.65-5.35,14.72-3.43,21,2,6.51,7.14,12,15.31,16.18,13.94,7.2,29.08,10.53,40.71,12.62l2.38.44a66.84,66.84,0,0,0,12.18,1.52c.72,0,1.43,0,2.15-.07,11.65-.86,24.25-2.31,38.53-4.43,8.66-1.29,17.27-3.32,26.07-5.46,20.66-5,35.16-17.65,43.07-37.55a106.92,106.92,0,0,0,7.21-32.74,95.08,95.08,0,0,1,2-13.82,13.65,13.65,0,0,1,8.82-10.17A80.09,80.09,0,0,0,351.41,157c7.55-8.7,16.92-15.55,26-22.17,4.35-3.18,8.86-6.48,13.13-9.94,17.39-14.14,27.75-30.58,30.79-48.84,1.31-7.91.82-16.2.34-24.21-.07-1.15-.14-2.3-.2-3.44A192.69,192.69,0,0,0,418.49,25.31Zm.85,50.41c-2.95,17.77-13.07,33.79-30.08,47.61-4.22,3.44-8.71,6.72-13,9.89-9.16,6.69-18.62,13.6-26.32,22.47a78.19,78.19,0,0,1-33,22.8,15.65,15.65,0,0,0-10.1,11.62,97.67,97.67,0,0,0-2,14.13,105.36,105.36,0,0,1-7.07,32.12C290,255.62,276,267.85,256,272.71c-8.75,2.13-17.32,4.15-25.89,5.42-14.23,2.11-26.79,3.56-38.39,4.41-4.49.33-9.23-.56-13.82-1.41l-2.39-.45c-11.49-2.06-26.44-5.35-40.14-12.43-7.68-4-12.5-9-14.32-15-1.76-5.77-.66-12.33,3.27-19.48a306.94,306.94,0,0,1,16-26.37c6.9-10,14.15-20.09,21.16-29.81,4.17-5.79,8.49-11.78,12.69-17.71,2.48-3.49,4.91-7.1,7.26-10.59,2.52-3.74,5.12-7.61,7.79-11.34a27.66,27.66,0,0,1,13.93-10.71,19.31,19.31,0,0,1,6.23-1c5,0,9.77,1.89,14.55,4,17,7.65,32,18.83,44.3,28.77a146.22,146.22,0,0,0,19.09,12.58,15.64,15.64,0,0,0,11.92,1.83,15,15,0,0,0,9-7.55c5.08-9.15,12.59-17.28,23-24.85,9.23-6.74,15.74-16.8,19.36-29.91,2.2-7.95,4.12-16.11,6-24,1-4.25,2-8.64,3.1-13,.71-2.84,1.36-5.74,2-8.55a161.84,161.84,0,0,1,5.64-20.75c6.92-18.58,18.38-29,35-31.9h.08l.13,0c8,1,12.7,5.23,14,12.69a189.3,189.3,0,0,1,2.94,22.84c.07,1.15.13,2.3.2,3.45C420.13,59.86,420.62,68,419.34,75.72Z"/><path d="M217,207.82a1,1,0,0,0-.48,0,1,1,0,0,0-.73.1c-1,.54-2.15,1-3.27,1.51-2.65,1.12-5.39,2.28-6.83,4.47-4.63,7-3.31,13,4,18.14a22.53,22.53,0,0,0,13.17,4.31,26.08,26.08,0,0,0,10.23-2.21,9.19,9.19,0,0,0,5.59-6.25c.76-3.15-.23-6.68-2.74-9.71C230.61,211.67,223,209.22,217,207.82Zm19.77,19.59a7.2,7.2,0,0,1-4.42,4.89c-7.78,3.3-15,2.67-21.46-1.89s-7.61-9.23-3.53-15.41c1.11-1.68,3.57-2.72,5.94-3.73,1.1-.47,2.23-1,3.27-1.5,5.7,1.34,12.87,3.65,17.87,9.69C236.55,222,237.4,224.89,236.78,227.41Z"/><path d="M230.82,172.15l-3.46-3a26.14,26.14,0,0,0-20.68-6.31l-.14,0a1.06,1.06,0,0,0-.47,0c-6.87,1.59-11.62,6.07-15,9.8-11.35,12.53-18.89,24.37-23.74,37.26-4.31,11.48-3.88,22.64,1.26,32.26,5.37,10.08,15.57,17.54,28,20.47A79.37,79.37,0,0,0,215,264.71a105.57,105.57,0,0,0,12.41-.76c9-1.07,18.24-2.16,27.14-5.31,11.12-3.92,18.33-10.14,22-19,4.92-11.76,2.5-23.26-6.83-32.39C257.29,195,243.83,183.39,230.82,172.15Zm43.94,66.71c-3.49,8.32-10.31,14.18-20.86,17.9-8.7,3.07-17.86,4.15-26.72,5.2-11.12,1.32-21,.91-30.13-1.25-11.87-2.81-21.6-9.9-26.7-19.47-4.85-9.1-5.25-19.69-1.14-30.62C174,198,181.37,186.34,192.55,174c4.73-5.22,9-8.05,14-9.19h0a1.14,1.14,0,0,0,.37,0,24.17,24.17,0,0,1,19.14,5.83l3.47,3c13,11.22,26.41,22.83,38.85,35C277.07,217.19,279.34,227.91,274.76,238.86Z"/><path d="M18.66,84.08c3-3,6-6,9-9.06,9.32-9.35,19-19,27.92-29C67.83,32.37,72.27,15.45,75,.7c0-.23.09-.47.14-.7h-2c0,.11,0,.22-.07.33C70.35,14.81,66,31.4,54.08,44.68c-8.93,9.94-18.55,19.59-27.84,28.93-3,3-6,6-9,9.07a40.77,40.77,0,0,1-7.3,5.84Q4.91,91.7,0,95.07V97.5q5.43-3.77,11-7.29A43.11,43.11,0,0,0,18.66,84.08Z"/><path d="M1037.1,718.7l-.17,0a1,1,0,0,0-.52,0C1024.81,722,1017.2,730,1015,741c-2.79,14-1.36,24.49,4.51,33.1,4.91,7.2,10.51,10.68,17.7,10.68a30.77,30.77,0,0,0,9-1.52v-2.11c-11.24,3.66-18.64,1.19-25-8.18-5.55-8.13-6.88-18.17-4.19-31.58,2.08-10.44,9-17.62,20-20.76a1,1,0,0,0,.34,0,27.62,27.62,0,0,1,8.9.63v-2.07A30,30,0,0,0,1037.1,718.7Z"/><path d="M1045.92,1042.4a1.1,1.1,0,0,0-.54,0q-1.45.45-2.88,1h3.67v-1h0Z"/><path d="M961.11,1043.37h2.51c7.59-9.85,16.39-18.11,24.71-25.29,19.58-16.9,38.53-29.75,57.84-39.25v-2.22c-19.78,9.61-39.14,22.69-59.15,40C978.27,1024.11,969,1032.85,961.11,1043.37Z"/><path d="M1037.86,827.44c-7.16,9.17-8.66,19.45-4.59,31.42,1.13,3.33,2.39,6.67,3.61,9.9,1.86,4.91,3.77,10,5.25,15.07a75.39,75.39,0,0,1-4.37,54.71c-3.38,7.15-9.36,12.24-15.15,17.17-1.52,1.29-3.08,2.63-4.59,4-6.36,5.73-12.86,11.51-19.16,17.1l-8.3,7.38c-2.79,2.49-5.68,5-8.47,7.41-6.35,5.49-12.91,11.17-18.93,17.21a139.72,139.72,0,0,0-24.29,33.08c-.27.49-.52,1-.78,1.49h2.26c.09-.18.18-.37.28-.55a137.74,137.74,0,0,1,23.94-32.61c6-6,12.51-11.64,18.83-17.11,2.79-2.42,5.69-4.92,8.49-7.43l8.3-7.37c6.3-5.6,12.81-11.38,19.17-17.12,1.48-1.34,3-2.67,4.55-3.95,5.94-5.06,12.09-10.29,15.66-17.84a79.93,79.93,0,0,0,6.6-20.46V892.6a85,85,0,0,0-2.12-9.32c-1.5-5.17-3.43-10.28-5.3-15.23-1.21-3.21-2.47-6.53-3.58-9.83-3.84-11.29-2.44-21,4.26-29.55a40,40,0,0,1,6.74-6.65v-2.54A42.47,42.47,0,0,0,1037.86,827.44Z"/><path d="M990,1043.37h2.81c2.06-2.09,4.22-4.2,6.52-6.36,14.43-13.53,29.83-23.46,46.85-30.18v-2.16c-17.55,6.82-33.39,17-48.22,30.89C995.12,1038.21,992.48,1040.81,990,1043.37Z"/><path d="M898.34,605.8a1.26,1.26,0,0,0-.27,0,.92.92,0,0,0-.52,0c-21.41,6.07-28.88,24.14-33,39.21A10.75,10.75,0,0,0,867,655.54a13.9,13.9,0,0,0,12.56,3.93,52.07,52.07,0,0,0,29-16c6.06-6.44,8.22-14.79,6.43-24.82C913.89,612.42,908.31,606,898.34,605.8Zm8.79,36.32a50.29,50.29,0,0,1-27.93,15.39,11.84,11.84,0,0,1-10.72-3.33,8.83,8.83,0,0,1-2-8.61c4.23-15.45,11.28-32,31.59-37.8a.91.91,0,0,0,.23,0c8.83.2,13.77,5.78,14.74,11.22C914.72,628.39,912.73,636.17,907.13,642.12Z"/><path d="M641.21,557.41a33.39,33.39,0,0,0-5,11.31c-1.12,4.42-6,27.18,7.92,40.78,4.35,4.26,12.11,9.31,18.89,9.31a11,11,0,0,0,5-1.12c5.48-2.76,5.65-9,5.87-16.93.23-8.4.52-18.86,6.88-30a42.36,42.36,0,0,1,10.82-12.44c4.29-3.63,8.72-7.39,12.7-16.67.32-.74,7.69-18.23,1.73-30.74a18.62,18.62,0,0,0-2.53-3.87,18.2,18.2,0,0,0-8.14-5.1,72.33,72.33,0,0,1-13-5.94c-4.55-2.53-7.83-4.36-12.91-3.85-11.17,1.12-20.5,12.82-23.61,23.26-1.82,6.13-1,10.24-.18,14.59a36.48,36.48,0,0,1,.22,16.15A28.32,28.32,0,0,1,641.21,557.41Zm6.4-27.77c-.83-4.28-1.54-8,.14-13.64,2.92-9.82,11.58-20.81,21.89-21.84,4.46-.44,7.35,1.17,11.74,3.61a73.77,73.77,0,0,0,13.41,6.11,16,16,0,0,1,7.19,4.5,16.75,16.75,0,0,1,2.23,3.41c5.56,11.69-1.69,28.91-1.76,29.09-3.8,8.85-7.86,12.29-12.16,15.93a44.25,44.25,0,0,0-11.27,13c-6.6,11.55-6.9,22.29-7.14,30.92-.21,7.53-.36,13-4.77,15.19-6.53,3.29-16.72-3-21.6-7.83-13.12-12.84-8.44-34.62-7.37-38.86a31.74,31.74,0,0,1,4.75-10.72,30.41,30.41,0,0,0,4.94-11.92A38.58,38.58,0,0,0,647.61,529.64Z"/><path d="M927,1017.44c4.64-10.15,9.44-20.65,13.53-31.24,4.49-11.61,2.58-18.84-6.81-25.79-5.14-3.8-12.1-5.53-18.22-6.73a81.46,81.46,0,0,0-14-1c-2,0-4.07-.07-6.07-.17a.73.73,0,0,0-.3,0,1,1,0,0,0-.45,0c-2,.41-4.08.79-6.12,1.16-4.43.82-9,1.66-13.42,2.94-17,4.93-36.27,11.52-49.84,27.29-5,5.87-9.63,12.3-14.06,18.51-2,2.77-4,5.65-6.08,8.43l-2.53,3.4c-2,2.64-4,5.37-6,8.11a60.25,60.25,0,0,0-9.65,21h2a57.65,57.65,0,0,1,9.25-19.89c1.93-2.72,4-5.44,5.93-8.07.85-1.14,1.7-2.27,2.54-3.41,2.07-2.8,4.12-5.68,6.1-8.46,4.4-6.18,8.95-12.56,13.94-18.36,13.22-15.36,32.17-21.83,48.89-26.68a133.74,133.74,0,0,1,13.22-2.89c2.06-.38,4.11-.75,6.16-1.17h.05l.2,0c2,.1,4.12.13,6.13.17a79.64,79.64,0,0,1,13.66,1c5.91,1.15,12.6,2.8,17.43,6.37,8.61,6.38,10.27,12.73,6.13,23.46-4.07,10.53-8.86,21-13.49,31.13-2.9,6.34-5.89,12.89-8.69,19.4-1,2.36-2,4.8-3,7.36h2.15c.91-2.28,1.81-4.45,2.72-6.57C921.08,1030.31,924.07,1023.77,927,1017.44Z"/><path d="M909.88,578.87c-2.66-.18-5.36-.13-8-.08-1.2,0-2.4,0-3.6,0a1.07,1.07,0,0,0-.25,0,1,1,0,0,0-.52,0c-1.37.39-2.75.75-4.13,1.11-6,1.56-12.26,3.18-17.2,7.65-1.19,1.08-2.4,2.16-3.61,3.23-5.22,4.62-10.61,9.41-14.88,15-10.51,13.67-23.14,32.24-27.61,54.78-2.26,11.4-2.63,24.23,11.74,33a20.62,20.62,0,0,0,11,3.06,31.72,31.72,0,0,0,9.29-1.54,109.22,109.22,0,0,0,14.12-5.51c3.06-1.43,6.2-2.84,9.24-4.2,12.64-5.66,25.7-11.51,36.89-20.4,13.19-10.49,19.89-24.18,19.91-40.7,0-8.94-.65-19.37-5.59-28.95C931.43,585.13,922.66,579.74,909.88,578.87Zm11.26,84.55c-11,8.74-23.94,14.54-36.47,20.15-3,1.36-6.19,2.77-9.27,4.2a105.39,105.39,0,0,1-13.86,5.42c-7.49,2.28-13.41,1.86-18.64-1.32-13.28-8.08-13-19.62-10.82-30.88,4.39-22.13,16.86-40.46,27.24-54,4.15-5.4,9.47-10.12,14.62-14.69l3.62-3.23c4.58-4.15,10.3-5.63,16.36-7.2,1.39-.36,2.78-.72,4.15-1.12a1.07,1.07,0,0,0,.25,0c1.21,0,2.42,0,3.63,0,2.56,0,5.22-.09,7.79.08,12,.82,20.26,5.85,25.19,15.39,4.73,9.17,5.37,18.89,5.36,28C940.27,640.17,933.83,653.34,921.14,663.42Z"/><path d="M994.89,139.08c-5.44,5.79-12.1,10.71-17.29,14.35-3.59,2.52-7.12,3.29-10.21,2.24s-5.73-4.15-7.13-8.63c-2.09-6.69-.94-13.31.29-20.32l.12-.69c.18-1,.36-2.07.55-3.1,1.08-5.94,2.19-12.08,1.82-18.08-.31-5-.8-10-1.27-14.82a246.14,246.14,0,0,1-1.6-26.58,66.66,66.66,0,0,1,7.06-29C973.07,22.68,981.11,11.82,992.8,0H990c-11.1,11.44-18.85,22.06-24.55,33.56a68.67,68.67,0,0,0-7.27,29.86,246.6,246.6,0,0,0,1.61,26.8c.47,4.84,1,9.83,1.26,14.75.36,5.76-.73,11.78-1.79,17.6-.19,1-.37,2.08-.55,3.12l-.12.68c-1.21,6.94-2.47,14.12-.23,21.27,1.59,5.1,4.57,8.62,8.39,9.92a10.56,10.56,0,0,0,3.44.57,15.09,15.09,0,0,0,8.57-3.06c5.27-3.7,12-8.7,17.6-14.62a312.08,312.08,0,0,1,49.82-42.95V95.07A314.38,314.38,0,0,0,994.89,139.08Z"/><path d="M1003.85,184.27c-10.27,16.43-23.77,26.27-41.3,30.07-6,1.31-10.76.36-14.55-2.9a40.31,40.31,0,0,1-8.73-9.73l-.46-.78c-4.69-7.87-9.54-16-12.85-24.56a118.88,118.88,0,0,1-7.41-28.17c-1.39-11.22.07-23.31,4.6-38,2.64-8.57,5-17.36,7.37-25.86,2.16-7.9,4.4-16.07,6.81-24,4.31-14.24,8.28-25.79,12.48-36.37A98.66,98.66,0,0,1,963.62,0h-2.51A100.09,100.09,0,0,0,948,23.15c-4.22,10.63-8.21,22.24-12.54,36.53-2.41,8-4.65,16.17-6.82,24.08-2.32,8.49-4.72,17.26-7.35,25.8-4.61,15-6.1,27.37-4.67,38.88a121.36,121.36,0,0,0,7.52,28.66c3.37,8.69,8.27,16.91,13,24.86l.46.77A42.25,42.25,0,0,0,946.7,213a16.37,16.37,0,0,0,11,3.93,24.84,24.84,0,0,0,5.27-.6c17.82-3.87,32.15-14.28,42.56-31,12.93-20.68,26.13-36.65,40.63-49v-2.64C1031,146.33,1017.27,162.8,1003.85,184.27Z"/><path d="M1042.44,280a36.58,36.58,0,0,0-.93-5.95c-.57-2.33-2.27-8.23-5.8-12.68-3.22-4.06-9.38-7.23-18.29-9.43a51.21,51.21,0,0,0-13.38-1.6c-2.9-.05-6.18-.11-11.19-.64-3-.32-13.12-2.25-33.34-6.11l-.11,0c-6.76-1.29-12.1-2.3-18.91-.65A35.63,35.63,0,0,0,927.76,249c-32.12,23.11-48.94,37.25-49.1,37.39a111.6,111.6,0,0,1-17.31,11.37c-.52.28-1.05.51-1.06.51a12.76,12.76,0,0,1-3.33.9l-.29.05c-3.15.62-5.6,10-4,20.14,2,12.33,9.37,21.61,15.29,27.27.45,1.19.92,2.38,1.39,3.57,1.06,2.65,2.15,5.39,3,8.14,3.83,13.24,9.42,28.27,21.87,39.36,14.44,12.86,28.73,25.13,42.48,36.5,16,13.25,34.08,19.81,54.73,19.81a115.69,115.69,0,0,0,25-2.91,101.07,101.07,0,0,0,29.71-11.8V437A98.79,98.79,0,0,1,1016,449.14c-30.83,6.84-56.37,1.44-78.06-16.48-13.73-11.35-28-23.61-42.42-36.45-12.07-10.75-17.53-25.46-21.28-38.42a87.54,87.54,0,0,0-3-8.33c-.5-1.25-1-2.49-1.46-3.75a.94.94,0,0,0-.25-.37c-5.72-5.43-12.94-14.4-14.86-26.3-1.62-10,1.08-17.52,2.38-17.86l.18,0a14.56,14.56,0,0,0,3.82-1s.63-.26,1.24-.59a112.54,112.54,0,0,0,17.64-11.6c.17-.14,16.94-14.24,49-37.29a33.71,33.71,0,0,1,12-5.81,27.69,27.69,0,0,1,6.65-.79A60.82,60.82,0,0,1,959,245.5l.13,0c20.25,3.86,30.42,5.8,33.48,6.13,5.09.54,8.42.6,11.36.65a48.79,48.79,0,0,1,12.94,1.54c8.48,2.09,14.26,5,17.2,8.73,3.28,4.15,4.89,9.72,5.43,11.92a35.71,35.71,0,0,1,.88,5.64c0,.28.29,9.19.32,9.43.5,4.94-.2,12.06,5.4,17.44v-3c-3.43-5.38-2.94-10.53-3.14-14.23C1043,289.58,1042.46,280.23,1042.44,280Z"/><path d="M1045.93,1a1,1,0,0,0,.24,0V0h-3.67c-17.36,6.19-29.85,19.48-39.16,41.59-2.41,5.75-1.69,10.65,2.15,14.57a12,12,0,0,0,8.89,3.88,18.11,18.11,0,0,0,6.15-1.2c10.64-3.84,18.89-10.9,25.64-18.07V37.83c-6.85,7.52-15.28,15.15-26.32,19.13-5.43,2-9.54,1.26-12.93-2.2s-3.84-7.39-1.73-12.39C1014.74,19.66,1027.69,6.5,1045.93,1Z"/><path d="M1034.11,345.19a77.16,77.16,0,0,0-18.85-27.51A71.82,71.82,0,0,0,981,299.22c-6.73-1.44-16.9-3.62-28.48,0-21,6.61-37,28.32-34.16,46.47,1.21,7.7,5.5,13,12,21a83.43,83.43,0,0,0,25.55,21,53.63,53.63,0,0,0,26,6.32,74.83,74.83,0,0,0,11.59-.94c8.61-1.36,18.67-3.63,27.94-10.23,10-7.11,12.07-17.52,12.78-25.81a73.44,73.44,0,0,0,.11-8c0-1.2,0-2.39,0-3.58A1,1,0,0,0,1034.11,345.19Zm-2,11.77c-1,11.82-4.59,19.1-12,24.35-8.94,6.36-18.71,8.57-27.09,9.88-13.92,2.19-25.79.5-36.3-5.16a81.31,81.31,0,0,1-24.94-20.51c-6.52-8.07-10.45-12.94-11.57-20.11-2.64-16.94,13-38,32.78-44.26,11.08-3.48,20.94-1.37,27.46,0a69.8,69.8,0,0,1,33.36,18,75.17,75.17,0,0,1,18.3,26.62c0,1.14,0,2.29,0,3.43A71.91,71.91,0,0,1,1032.14,357Z"/><path d="M1019.84,597.81c-3.42,5.8-3.06,11.7,1.09,17.53a50.89,50.89,0,0,0,3.52,4.27,42.11,42.11,0,0,1,3.85,4.77c3,4.52,5.9,9.19,8.73,13.7,3,4.72,6,9.57,9.14,14.32v-3.65c-2.53-3.92-5-7.87-7.45-11.73-2.84-4.52-5.77-9.2-8.75-13.74a44.63,44.63,0,0,0-4-5,47.26,47.26,0,0,1-3.39-4.1c-3.65-5.12-4-10.29-1-15.36,6-10.13,14.25-17,24.61-20.33V576.4C1035.05,579.85,1026.19,587,1019.84,597.81Z"/><path d="M1019.43,299.48c-1.53-2.48-3.17-5-4.86-7.37a72.63,72.63,0,0,0-5.6-7.46c-5.08-4.84-12-7.76-20.66-8.67a258.51,258.51,0,0,0-39.58-1.06c-16.16.78-31.39,7-46.55,19-1.7,1.34-3.56,2.57-5.37,3.76-.85.57-1.71,1.13-2.55,1.72a.86.86,0,0,0-.3.33c-5.33,9.46-7.5,18.63-6.45,27.26.26,2.12.66,4,5.9,19,4.48,12.81,6.53,18.66,7.16,20,6.35,13,15.09,21.29,23.54,29.31a145.13,145.13,0,0,0,13.08,11.06c7.17,5.34,16.09,12,28.91,15.83a91.32,91.32,0,0,0,12,2.65,100.72,100.72,0,0,0,13.71,1h1a105.76,105.76,0,0,0,18.62-1.61c7.54-1.4,20.14-3.75,32.35-12.9.73-.55,1.54-1.16,2.39-1.82v-2.56c-1.3,1.06-2.53,2-3.59,2.78-11.83,8.87-24.15,11.16-31.51,12.53a103.38,103.38,0,0,1-19.22,1.57,97.58,97.58,0,0,1-13.43-1,88.16,88.16,0,0,1-11.75-2.59c-12.48-3.74-21.25-10.27-28.29-15.51a145.62,145.62,0,0,1-12.9-10.91c-8.32-7.9-16.93-16.06-23.11-28.74-.59-1.2-2.89-7.79-7.1-19.81-5.14-14.69-5.53-16.53-5.77-18.51-1-8.14,1-16.83,6.08-25.84l2.34-1.56c1.83-1.21,3.73-2.47,5.5-3.87,14.82-11.71,29.68-17.78,45.41-18.54A255.74,255.74,0,0,1,988.1,278c8.18.86,14.73,3.6,19.49,8.13a80,80,0,0,1,5.34,7.16c1.72,2.45,3.37,5,4.92,7.46a1,1,0,0,0,.32.32,111.88,111.88,0,0,1,28,25.2V323A114.94,114.94,0,0,0,1019.43,299.48Z"/><path d="M965.85,328.6c-6.06,3.12-14.07,10.76-12,17.26,1.48,4.74,7.69,6.37,12.69,7.67a60.6,60.6,0,0,0,15,1.92c8.68,0,16.82-2.12,19.21-8,2.1-5.16-1.16-10.81-2.67-13C991.18,324.56,975.87,323.44,965.85,328.6Zm33,18.1c-3.18,7.8-20.51,7.86-31.81,4.9-4.75-1.24-10.13-2.65-11.28-6.33h0c-1.46-4.67,4.65-11.6,11-14.89a26.65,26.65,0,0,1,12-2.75c6.87,0,13.79,2.48,17.57,8C997.38,337.1,1000.59,342.33,998.81,346.7Z"/><path d="M987.16,563.14c16.61-9.07,29.15-19.42,38.33-31.66a50.17,50.17,0,0,0,9.69-22.93c1.25-8.38-5.9-17.48-15.3-19.48a103.77,103.77,0,0,0-13.54-1.63c-2-.15-4-.31-6-.51a1,1,0,0,0-.35,0,.81.81,0,0,0-.41,0c-1.92.31-3.85.58-5.78.85-4.21.6-8.56,1.21-12.76,2.24-16.11,3.94-21.64,9.88-25.73,27.64-.51,2.26-1,4.52-1.47,6.79-.91,4.33-1.85,8.82-3.09,13.12-2.56,8.91-8.66,14.52-17.64,16.23-5.71,1.09-11.55,2-17.2,3-6,1-12.18,2-18.25,3.15-22.65,4.4-38.42,13.37-49.64,28.25-18.49,24.51-31.91,48.63-41,73.74-5.68,15.62-3.21,29.85,7.34,42.31a73.66,73.66,0,0,0,18.19,15.62,34.29,34.29,0,0,0,17.71,5.1A37.93,37.93,0,0,0,869.85,719c3.41-2.06,6.81-4.28,10.09-6.42a182.12,182.12,0,0,1,18.93-11.29c7.07-3.47,14.62-6.32,21.91-9.08,4.74-1.79,9.63-3.64,14.37-5.65,13.52-5.73,26.11-12.1,31.51-27l.32-.87a28.83,28.83,0,0,0,2.17-8.4c.57-11.29-.63-22.62-1.8-33.58-.3-2.85-.6-5.69-.88-8.54-1-10-1.1-21.64,5.15-31.82C975.47,570.09,981.37,566.3,987.16,563.14Zm-22.68,45.24c.28,2.85.58,5.71.88,8.56,1.16,10.88,2.36,22.14,1.79,33.27a27.45,27.45,0,0,1-2,7.81l-.32.88c-5.13,14.15-17.31,20.3-30.41,25.85-4.7,2-9.58,3.83-14.29,5.62-7.34,2.78-14.94,5.65-22.09,9.16a181.08,181.08,0,0,0-19.15,11.41c-3.26,2.13-6.64,4.33-10,6.37-11.9,7.19-24.11,7.47-35.29.81a71.5,71.5,0,0,1-17.7-15.2c-10.05-11.86-12.4-25.43-7-40.33,9-24.92,22.38-48.87,40.75-73.22,10.9-14.45,26.29-23.19,48.42-27.49,6-1.17,12.22-2.17,18.19-3.14,5.67-.92,11.52-1.87,17.25-3,9.78-1.86,16.41-8,19.2-17.65,1.25-4.37,2.2-8.89,3.12-13.26.47-2.25,1-4.51,1.46-6.75,3.92-17,8.91-22.39,24.26-26.15,4.1-1,8.4-1.61,12.55-2.2,2-.27,3.9-.55,5.83-.86l.09,0,.15,0c2,.21,4.08.36,6.07.51a101.84,101.84,0,0,1,13.27,1.6c8.42,1.79,14.84,9.84,13.74,17.23a48.13,48.13,0,0,1-9.31,22c-9,12-21.33,22.18-37.68,31.1-6,3.3-12.2,7.27-16.3,13.94C963.36,586,963.49,598,964.48,608.38Z"/><path d="M397.84,651.88a65.66,65.66,0,0,0-9.69-1.58c-1.44-.16-2.94-.32-4.39-.53a1,1,0,0,0-.39,0,1.11,1.11,0,0,0-.57,0l-1,.34c-.67.24-1.3.47-1.94.63-13.42,3.18-18.51,9.63-18.17,23A113.3,113.3,0,0,1,357,707.89c-4.2,14.78-2.24,29,5.82,42.25,8.15,13.42,14.53,28,20.71,42.05,1.42,3.25,2.85,6.51,4.3,9.75A281.08,281.08,0,0,0,405.36,834c4.58,7.42,9.06,10.84,15.52,10.84,3.49,0,7.55-1,12.53-2.91,23.27-8.91,41.43-17.82,57.14-28,12.38-8,26.29-13.09,42.55-15.4,6.74-1,15.5-2.68,23.4-7.48,9.25-5.62,13.33-12.28,12.84-20.95A23,23,0,0,0,561.57,754l-.26-.23c-6.17-5.53-12.55-11.26-19.31-16.29-12.87-9.58-30.33-21.38-51.2-27.69-18.87-5.7-35.27-15.72-50.15-30.61S412.55,655.81,397.84,651.88Zm143,87.17c6.68,5,13,10.67,19.17,16.17l.25.23a21,21,0,0,1,7.11,14.75c.44,7.86-3.33,13.93-11.88,19.13-7.59,4.61-16.09,6.28-22.65,7.21-16.54,2.36-30.73,7.49-43.35,15.71-15.59,10.14-33.63,19-56.77,27.85-13.32,5.1-19.07,3.5-25.63-7.12a278.89,278.89,0,0,1-17.37-31.85q-2.18-4.87-4.3-9.75c-6.2-14.13-12.61-28.75-20.84-42.28-7.86-12.94-9.69-26.24-5.59-40.67a115.23,115.23,0,0,0,4.76-34.72c-.32-12.34,4.19-18,16.63-21a20.19,20.19,0,0,0,2.16-.69l.86-.3.1,0c1.49.21,3,.38,4.46.54a64,64,0,0,1,9.39,1.52c14.35,3.83,27.28,12.08,41.92,26.74,15.11,15.14,31.79,25.31,51,31.11C510.79,717.88,528.06,729.56,540.81,739.05Z"/><path d="M457.48,492.92a.63.63,0,0,0-.19,0,1,1,0,0,0-.64.05c-9.36,4-12.3,10.88-8.52,19.79,1.62,3.81,4.28,6.25,7.31,6.67a6.63,6.63,0,0,0,1,.08c2.58,0,5.14-1.42,7.3-4.08,3.24-4,6.23-8.93,3.8-15.43C465.61,494.87,462.42,492.61,457.48,492.92Zm4.7,21.28c-2,2.43-4.26,3.59-6.46,3.29s-4.41-2.33-5.75-5.48c-3.35-7.9-1-13.5,7.34-17.12l.29,0c4-.25,6.45,1.48,8.07,5.81C467.74,506.27,465.21,510.48,462.18,514.2Z"/><path d="M583.23,495.62a15.63,15.63,0,0,0-6.11-.68c-.92,0-1.79,0-2.64,0a.75.75,0,0,0-.3,0,.93.93,0,0,0-.47,0c-10.55,2.36-14.69,10.85-17.59,19.69-3.78,11.51-4.69,22-2.79,32,1,5.36,3.28,9.22,6.7,11.46a14,14,0,0,0,7.8,2.15,21.44,21.44,0,0,0,4.77-.57c18.18-4.15,28.22-14.67,31.59-33.09,1-5.75-.55-12-4.5-17.68A36.3,36.3,0,0,0,583.23,495.62Zm19,30.55c-3.21,17.54-12.76,27.55-30.06,31.5-4.38,1-8.19.55-11-1.3s-4.92-5.35-5.84-10.17c-1.83-9.64-.94-19.77,2.73-31,3.14-9.56,7.08-16.34,16.12-18.36h0a.58.58,0,0,0,.19,0c.92.06,1.87,0,2.78,0a14,14,0,0,1,5.34.54A34.33,34.33,0,0,1,598.05,510C601.69,515.2,603.18,521,602.22,526.17Z"/><path d="M418.33,700.27c-.83-.16-1.69-.33-2.5-.53a1.06,1.06,0,0,0-.5,0,1,1,0,0,0-.49,0c-1,.24-1.95.45-2.93.67-4.4,1-9,1.93-12.54,5.58-9.18,9.37-12.74,20.27-10.86,33.34,2.32,16.22,8.67,31.8,18.86,46.3,8,11.4,19.81,17.38,33,17.38a51.44,51.44,0,0,0,20.52-4.53c11.08-4.82,20.58-13,29.89-25.76,4.54-6.23,6.38-12.28,5.45-18-1-6-4.93-11.42-11.75-16.26-11.71-8.29-24.16-15.92-36.2-23.28l-1.28-.79c-7.33-4.49-15.08-8.48-23-12.51A21,21,0,0,0,418.33,700.27Zm28.94,16.63c12,7.35,24.43,15,36.08,23.21,6.37,4.52,10,9.55,10.93,14.95.84,5.15-.87,10.7-5.09,16.48C480.1,784,470.87,792,460.12,796.65c-20.11,8.74-39.69,4.09-51.12-12.17-10-14.24-16.23-29.52-18.51-45.43-1.78-12.41,1.59-22.77,10.31-31.66,3.17-3.22,7.23-4.1,11.54-5,1-.22,2-.43,3-.68h0c.87.22,1.75.39,2.61.55a19.42,19.42,0,0,1,5.13,1.45c7.92,4,15.64,8,22.91,12.44Z"/><path d="M497.85,513.11c4.43-17.65,1.27-31.51-9.67-42.34-8.5-8.42-19.76-9.67-28.62-9.82a2.19,2.19,0,0,1-.69,0c-.9.16-1.79.31-2.69.45-1.92.32-3.91.64-5.85,1.08-18.26,4.18-29.61,15.84-34.71,35.68a128.45,128.45,0,0,0-3.91,40.76c.65,9.28,3,22.29,16,28.15a25.41,25.41,0,0,0,10.57,2.23c5.36,0,11.21-1.53,17.65-4.6C477.78,554.31,491.87,537,497.85,513.11Zm-42.75,49.8c-10.52,5-19,5.76-26.54,2.34-9.17-4.12-13.88-12.53-14.85-26.46a126.29,126.29,0,0,1,3.85-40.13c4.89-19,15.75-30.23,33.22-34.22,1.88-.43,3.83-.75,5.72-1.05l2.71-.46h.08a.85.85,0,0,0,.23,0c9,.15,19.3,1.37,27.25,9.24,10.4,10.3,13.39,23.52,9.14,40.44C490.09,535.85,476.35,552.77,455.1,562.91Z"/><path d="M731.48,1029.13a32.55,32.55,0,0,1,3.94-9.57c4.54-7.18,11.18-10.21,20.36-14.39l.62-.29c17.9-8.17,26.07-11.9,27.68-13.09,6.19-4.6,8.62-8.52,11.44-13.07a71.14,71.14,0,0,1,12-15.16,85,85,0,0,1,22.35-16.24c6.42-3.13,9.95-3.67,17.69-4.87,5.84-.9,13.84-2.14,27-5.08,10.93-2.43,20.83-5,31.35-12,6.42-4.27,10-8.14,12-12.94,2.1-5,2.26-10.39.56-18.53-2-9.37-4.7-14.87-7.86-21.24-1.43-2.88-2.91-5.86-4.45-9.46-6.77-15.86-8.21-28.42-9.72-41.71-1.94-16.92,0-22.49,1.94-26.39,4.34-8.66,9.88-12.14,13.77-13.54,2.39-.87,3.76-.83,6.48-.75a87,87,0,0,0,10.23-.24c8.87-.7,13.33-1,17.34-3.16a27.27,27.27,0,0,0,13.94-21.13c1.09-11-5.24-18.7-9-23.29-8-9.75-18.15-15.1-28.48-15.1h-.43c-2,0-12.51.55-21.15,7.91-2.3,2-3.87,3.9-7,7.78-2.21,2.75-5.25,6.51-9.93,12a19,19,0,0,1-14.34,7.22c-15.06,1-34.19-8.63-36.32-9.74a113.17,113.17,0,0,1-10.76-6.33c-6.14-4.08-10.14-7.6-17.39-14,0,0-3.45-3-6.12-6-1.1-1.19-2.14-2.44-2.15-2.45l0,0c-1.21-1.45-2.54-3.23-2.83-3.62-9.75-13.37-10.86-25.18-10.87-25.29-.49-5.83.68-9.88,3.15-17.77a105.24,105.24,0,0,1,12.39-26.2A246.83,246.83,0,0,0,818.56,606c4.17-9,6.93-14.94,16.08-25,13.53-14.83,23.31-25.55,39.48-30.19,1.65-.47,3.46-.91,5.39-1.38,7.34-1.77,16.47-4,27.24-10.37,8.24-4.89,12.22-9.14,13.73-14.67,1.71-6.27-.3-13-.73-14.31a30.06,30.06,0,0,0-3.21-6.63,46.14,46.14,0,0,0-11.65-11.87c-7.78-5.41-38.4-15.51-79.9-23.6-10.9-1.08-15.1-2.28-15.14-2.29-1.93-.57-3.88-1.31-3.9-1.32-1.27-.48-2.33-.94-2.84-1.17l-.3-.13c-2.83-1.28-20.37-8.64-25.68-10.87l-.23-.1h0a.9.9,0,0,0-.21-.08c-50.33-11.18-55.91-11.81-67-13.06h0l-.34,0-.84-.1-2.49-.3c-1.08-.13-8.29-1.1-10.76-1.53a47.82,47.82,0,0,1-20-8.92,26.33,26.33,0,0,1-6-6.52,26.93,26.93,0,0,1-3.9-12.72,20.44,20.44,0,0,1,.46-5.84,8.56,8.56,0,0,0,.14-4.06c-1.26-5.67-7.69-8.11-15.13-10.93-1.16-.44-2.33-.88-3.52-1.35a204.9,204.9,0,0,1-23.62-11.49c-8.39-4.58-15.63-8.53-23.5-10-3.95-.73-8.24-.21-12.3.45-10.59,1.72-13.54,10.35-14.83,16.68-2.79,13.67-1.48,25.66,4,36.66,4,7.95,10.49,13,16.95,17.28,4.44,2.94,9,5.8,13.48,8.57,6.42,4,13.06,8.15,19.33,12.58,10.7,7.56,15,11.71,19.35,16.73.52.6,1,1.16,1.41,1.68a21.59,21.59,0,0,0,5.94,5.54c5.42,3.3,10.85,3.16,20.72,2.92,3.18-.08,5.69-.28,7.9-.45a56.9,56.9,0,0,1,12.89.09c2,.24,4,.57,5.91,1,7.92,1.68,15.4,3.27,21.31,8.67,6.71,6.13,8.28,14.43,9.44,20.49a36.56,36.56,0,0,1-6.89,30.72c-5.58,7.9-13.6,14.19-19.44,18.78-1.48,1.15-2.75,2.15-3.83,3l-.4.35c-.77.65-1.21,1-1.53,1.34h0c-.3.29-3,2.85-5.19,5.35-8,9-10.21,24.53-10.3,25.18-1.61,11.72.86,18.91,3,25.26,2,5.91,4,11.49,2.3,20-2.08,10.63-9.1,23-20.11,26.73-11.21,3.78-21.43-2.19-21.85-2.45-2-1.21-5.1-3-15.6-25.53-3.48-7.48-4.76-10.73-6.7-15.65-1.73-4.41-4.11-10.45-9.2-22.33l-.37-.86c-1.87-4.35-2.5-5.81-3.09-8.43-1.51-6.59-1.38-13.82,3.88-29.43A133.66,133.66,0,0,1,622.86,550a86.57,86.57,0,0,0,6.32-16.92c2.16-8,3.21-14.88,1.33-22.56a42.17,42.17,0,0,0-4.72-11.14,71.27,71.27,0,0,0-15.73-18.67c-7.45-6.45-17.66-15.28-33.48-18.19-6.72-1.24-15.08-2.77-22.94,1.87-3.25,1.91-7.21,5.33-12,16.16-3.23,7.29-4,11.51-5.17,17.91-.65,3.6-1.47,8.08-3,14.2-5.49,22.54-12.26,35.24-14.92,39.65-1.06,1.76-3.82,6.19-4.16,6.73-4.46,7.16-7.28,11.51-9.35,14.68-1.27,1.95-2.18,3.35-2.93,4.58-6.16,10.08-9.77,20.8-10.44,31-1,14.84,4.53,26.17,7.81,32.94,8.46,17.4,20.71,27.3,31.51,36a119.93,119.93,0,0,0,17.9,12.11A177.75,177.75,0,0,1,570.84,705c14.89,11.37,21.66,16.76,26.22,25.17,6.2,11.43,8.23,25.17,6.05,40.84-.73,5.23-1.83,13.13-6.76,21.54-4.72,8.06-11.12,13.73-24.46,21.67a143.07,143.07,0,0,1-26,12.51,101.6,101.6,0,0,0-18.41,8.62,148.8,148.8,0,0,0-39.26,34.61,155.51,155.51,0,0,0-10.84,15.36c-4.28,6.7-7.65,12-16,18.47a72.78,72.78,0,0,1-27.14,13.56c-9,2.12-16.25,1.44-30.63.08-17.66-1.67-26.59-2.74-36.49-8.85-4.74-2.92-11.22-6.91-14.38-14.46-1.2-2.86-1.88-6-.57-23,.58-7.39,1.07-11.39,1.46-14.61.35-2.94.63-5.25.83-8.9.35-6.47.94-17.31-1.79-29.76-1.38-6.31-4.62-21.08-15.79-33.92-3.84-4.4-6.51-6.15-13.67-10.82-3.44-2.24-8.14-5.31-14.58-9.72-14.8-10.15-22.22-15.24-25.74-18.52-6.57-6.12-8.17-10-12-19.29-2.91-7-7.31-17.66-16.26-34.84C240.34,663.16,233.78,650.57,231,648l-.19-.17c-1.76-1.63-5.87-5.42-6.19-10.75-.34-5.55,3.59-10.19,6.46-13.58a42.82,42.82,0,0,1,14.18-10.9c10.43-5.07,25.28-7.72,42.93-7.6,6.6,0,11.35.45,15.17.78,6.65.57,11,.94,18.56-1,8.77-2.32,15.54-6.2,20.14-11.55a38.06,38.06,0,0,0,6.05-10.45c3.79-9.29,4-17,4.15-24.35.06-2.26.12-4.6.28-7,.57-8.42,2.91-15.7,7.59-30.21,5.54-17.19,14.36-32.4,31.94-62.71,2.74-4.73,6.89-11.88,15.16-17.73,4.43-3.13,9.24-5.27,16.61-7.4,11.42-3.29,28.54-5.19,48.2-5.34a255.38,255.38,0,0,0,29.58-2.2,37.66,37.66,0,0,0,14.59-5,40.32,40.32,0,0,0,6-4.56c7.84-7.37,9.8-15.88,13-30,.64-2.78,1.32-5.77,2.11-9,3.76-15.39,5.83-23.86,9.34-28,8.73-10.3,22.13-12.13,27.85-12.91,13.3-1.81,24.9,2.19,48,10.17,11.17,3.85,16.78,5.79,23.27,9.45a101,101,0,0,1,11,7.24c4.38,3.23,7.27,5.37,12.56,5.74,8.41.62,19.39-3.67,23.25-12.77a20,20,0,0,0,.42-13.35c-2.52-7.85-11.5-18.19-39.95-22.9a49.77,49.77,0,0,0-15.84-.47,42.22,42.22,0,0,1-12.47-.12c-12.71-1.84-19.11-6.53-25.89-11.49-5.81-4.25-11.83-8.66-22.07-11.24-19-4.81-44.94-1.48-57.6,14.18-9,11.1-9.46,26.48-9.73,34.74a109.19,109.19,0,0,0,.85,15.73c.91,8.66,1.7,16.14-2.35,25.32a35.77,35.77,0,0,1-6.39,9.93c-7,7.41-15.54,9.36-23.84,11.25a97.92,97.92,0,0,1-35.05,1c-10.07-1.46-18-2.61-26.51-8.05-3-1.92-8-7.05-17-16.35-2.6-2.68-4.74-4.91-6.53-6.78-7.55-7.87-9.12-9.51-13.11-11.5-3.66-1.81-13.37-6.64-23.6-2.65-11,4.28-15.09,16-16.36,20.79a34,34,0,0,0-.94,11.09c.3,4.79,1.36,10.51,11,27.69,3.27,5.82,5.21,8.84,6.49,10.84,1.56,2.44,1.88,2.95,2.27,4.86,2,10.13-2.82,20.35-7.6,26-1.22,1.45-8,6.47-19.32,14.78l-5.2,3.83a33.58,33.58,0,0,0-3.9,3c-8.61,8.48-11,19.66-12.68,27.82a82.15,82.15,0,0,0-1.57,11.38,66.8,66.8,0,0,1-2.53,14.5c-2.46,8.77-4.52,11.75-6.38,13.66-5.36,5.52-12.78,6.44-16.77,6.93l-.43.05c-9.16,1.14-22.53,5.62-49.19,14.54-12,4-21.55,8.76-40.51,18.18a38.09,38.09,0,0,0-10.93,7.47c-8.75,8.75-10.59,20.11-11.58,26.22-.94,5.85-2.38,14.69.87,25,3.86,12.19,12.23,19.44,24.89,30.42a118,118,0,0,0,12.11,9.31,44.73,44.73,0,0,1,9.41,8c4.73,5.19,6.47,8.74,13,22,.87,1.76,1.81,3.69,2.86,5.82,18,36.58,21.84,41.54,28.1,46.41a80.52,80.52,0,0,0,21.35,11.6,82.1,82.1,0,0,0,9.92,2.56,62,62,0,0,1,14.43,4.48c4.84,2.18,9,4.07,13.2,8,8.45,7.91,10.48,18,11.82,24.64a63.15,63.15,0,0,1-2.6,33.45c-1.64,4.91-3.2,9.54-7.09,14.69-7.94,10.49-19.56,15.13-24.2,16.64-1.68.55-3.24,1-4.88,1.38a71.61,71.61,0,0,0-12.19,4.15c-5,2.22-8.47,4.34-10.32,8.06a15,15,0,0,0-1.13,9c1.4,9.78,6.82,19,10.78,25.68l1.26,2.15a159.18,159.18,0,0,1,16,37c.85,3,1.26,5,1.63,6.68a65.58,65.58,0,0,0,2.2,8.13,142.45,142.45,0,0,0,11.68,25.59c1.68,2.88,2.68,4.39,3.42,5.49a14.09,14.09,0,0,1,1.84,3.43c2,5.28,2.14,10.41,1.19,16.61h2c.94-6.39.79-11.74-1.35-17.33a16,16,0,0,0-2-3.82c-.72-1.08-1.7-2.55-3.35-5.39a140.57,140.57,0,0,1-11.51-25.22A62.67,62.67,0,0,1,301,983.7c-.37-1.73-.79-3.69-1.65-6.79a161.45,161.45,0,0,0-16.18-37.47l-1.27-2.15c-3.87-6.57-9.18-15.56-10.52-24.95a13.13,13.13,0,0,1,.94-7.81c1.41-2.82,3.85-4.69,9.34-7.12a69.13,69.13,0,0,1,11.89-4c1.67-.44,3.25-.85,5-1.42,4.81-1.57,16.9-6.4,25.18-17.34,4.09-5.4,5.69-10.19,7.39-15.25,1.48-4.44,6-17.92,2.67-34.49-1.31-6.49-3.5-17.35-12.42-25.7-4.43-4.15-9-6.2-13.75-8.37a63.93,63.93,0,0,0-14.84-4.61,78.39,78.39,0,0,1-9.7-2.5,80,80,0,0,1-20.75-11.28c-5.87-4.56-9.77-9.69-27.53-45.71l-2.86-5.82c-6.58-13.41-8.35-17-13.27-22.42a46.9,46.9,0,0,0-9.76-8.28A116.15,116.15,0,0,1,196.93,681c-12.85-11.14-20.61-17.86-24.29-29.51-3.11-9.83-1.72-18.39-.8-24,1-6.3,2.72-16.83,11-25.13a36.3,36.3,0,0,1,10.41-7.09c18.87-9.38,28.35-14.09,40.29-18.09,26.5-8.86,39.8-13.32,48.77-14.43l.43-.06c4.23-.52,12.11-1.49,18-7.51,2-2.11,4.29-5.32,6.86-14.52a67.6,67.6,0,0,0,2.6-14.88,80.7,80.7,0,0,1,1.54-11.13c1.76-8.35,4-18.75,12.12-26.81a36.74,36.74,0,0,1,3.68-2.81c1.23-.9,2.9-2.12,5.21-3.83,13-9.58,18.34-13.53,19.66-15.1,5.07-6,10.21-16.89,8-27.72-.46-2.27-.94-3-2.55-5.53-1.27-2-3.19-5-6.43-10.75C342,405.25,341,399.77,340.68,395.23a32,32,0,0,1,.88-10.47c1.18-4.53,5-15.49,15.14-19.43,9.41-3.67,18.55.87,22,2.58,3.68,1.83,5.21,3.43,12.55,11.09,1.8,1.88,3.94,4.11,6.54,6.79,9.81,10.12,14.28,14.68,17.34,16.64,8.85,5.68,17,6.85,27.31,8.35a99.67,99.67,0,0,0,35.78-1.07c8.19-1.87,17.47-4,24.84-11.83a37.46,37.46,0,0,0,6.77-10.49c4.26-9.67,3.45-17.39,2.51-26.34a105.92,105.92,0,0,1-.84-15.46c.28-8.59.74-23,9.29-33.54,12.13-15,37.13-18.15,55.55-13.5,9.87,2.49,15.72,6.77,21.38,10.92,6.68,4.88,13.58,9.94,26.79,11.84a44.27,44.27,0,0,0,13,.14,47.77,47.77,0,0,1,15.29.46c27.46,4.54,36,14.22,38.38,21.53a18,18,0,0,1-.37,12c-3.36,8-13.45,12.11-21.26,11.56-4.71-.34-7.27-2.23-11.51-5.35a102.62,102.62,0,0,0-11.17-7.38c-6.66-3.75-12.32-5.71-23.63-9.61-23.42-8.08-35.17-12.14-48.94-10.25-5.44.74-19.88,2.71-29.11,13.59-3.82,4.5-5.92,13.14-9.75,28.83-.79,3.25-1.48,6.26-2.12,9-3.15,13.74-5,22-12.45,29a39.12,39.12,0,0,1-5.66,4.31,36,36,0,0,1-13.83,4.73A253.34,253.34,0,0,1,472,426c-19.84.15-37.15,2.08-48.74,5.42-7.59,2.19-12.58,4.42-17.21,7.69-8.62,6.1-12.9,13.48-15.73,18.36-17.65,30.43-26.51,45.7-32.12,63.1-4.72,14.66-7.09,22-7.68,30.68-.16,2.4-.22,4.76-.27,7-.19,7.56-.36,14.69-4,23.64a37.4,37.4,0,0,1-5.72,9.91c-4.33,5-10.76,8.71-19.13,10.92-7.18,1.89-11.44,1.53-17.88,1-3.86-.33-8.65-.74-15.33-.78-17.95-.07-33.11,2.6-43.81,7.8a44.88,44.88,0,0,0-14.84,11.41c-2.91,3.44-7.32,8.64-6.93,15,.37,6.12,5.06,10.45,6.83,12.09l.18.17c2.54,2.35,9.91,16.51,23.3,42.21,8.91,17.1,13.28,27.69,16.18,34.69,4,9.59,5.61,13.56,12.49,20,3.63,3.38,11.1,8.5,26,18.71,6.45,4.42,11.16,7.5,14.61,9.75,7.18,4.68,9.6,6.26,13.25,10.46,10.83,12.45,14,26.87,15.35,33,2.67,12.19,2.09,22.85,1.74,29.23-.19,3.57-.47,5.86-.82,8.76-.39,3.23-.88,7.26-1.46,14.7-1.36,17.45-.64,20.67.71,23.89,3.41,8.14,10.21,12.33,15.18,15.4,10.74,6.62,20.76,7.56,37.36,9.13,14.59,1.38,21.92,2.07,31.27-.12a74.78,74.78,0,0,0,27.91-13.94c8.58-6.69,12-12.1,16.41-19a154.66,154.66,0,0,1,10.72-15.18A146.78,146.78,0,0,1,528.54,837a100.28,100.28,0,0,1,18.09-8.47,144.32,144.32,0,0,0,26.29-12.66c13.66-8.14,20.24-14,25.16-22.38,5.12-8.75,6.26-16.89,7-22.28,2.25-16.09.14-30.25-6.27-42.07-5-9.14-12.7-15-26.76-25.8a179,179,0,0,0-22.14-14.73,117.25,117.25,0,0,1-17.63-11.93c-10.65-8.6-22.71-18.34-31-35.35-3.2-6.59-8.56-17.62-7.61-31.93.64-9.88,4.15-20.28,10.14-30.08.74-1.21,1.65-2.61,2.91-4.54,2.07-3.18,4.9-7.53,9.37-14.71.34-.55,3.11-5,4.17-6.76,3.36-5.58,9.8-18.22,15.15-40.21,1.51-6.18,2.33-10.68,3-14.31,1.14-6.26,1.9-10.39,5-17.47,4.56-10.31,8.21-13.49,11.18-15.24,7.22-4.26,15.18-2.8,21.57-1.62,15.29,2.81,25.25,11.43,32.53,17.73A69.11,69.11,0,0,1,624,500.38,39.86,39.86,0,0,1,628.56,511c1.78,7.27.77,13.88-1.31,21.57a84.6,84.6,0,0,1-6.2,16.58,135.18,135.18,0,0,0-6.65,16.36c-5.42,16.06-5.52,23.58-3.94,30.52.63,2.79,1.33,4.42,3.2,8.77l.37.86c5.08,11.85,7.45,17.87,9.18,22.27,1.95,5,3.24,8.23,6.75,15.76,9.95,21.32,13.31,24.58,16.38,26.41.46.28,11.45,6.7,23.52,2.63,11.77-4,19.24-17,21.43-28.25,1.76-9-.25-14.85-2.37-21-2.22-6.43-4.51-13.08-3-24.32,0-.16,2.22-15.55,9.82-24.13,2.24-2.54,5.06-5.22,5.09-5.25l0,0c.28-.26.7-.63,1.41-1.24l.4-.33c1-.89,2.31-1.87,3.77-3,5.95-4.67,14.09-11.06,19.84-19.2A40.73,40.73,0,0,0,734,528.61a40.31,40.31,0,0,0-.42-14.91c-1.2-6.34-2.85-15-10-21.6-6.31-5.76-14.41-7.49-22.25-9.15-2-.42-4-.77-6.08-1a58.07,58.07,0,0,0-13.28-.1c-2.19.17-4.67.36-7.8.44-10.2.25-14.91.24-19.64-2.63a20,20,0,0,1-5.43-5.11l-1.43-1.7c-4.4-5.14-8.85-9.39-19.72-17.07-6.31-4.46-13-8.62-19.43-12.64-4.43-2.76-9-5.62-13.43-8.54-6.23-4.13-12.51-9-16.26-16.5-5.28-10.59-6.54-22.16-3.84-35.37,1.89-9.27,6-13.93,13.19-15.11,3.88-.63,8-1.12,11.62-.45,7.55,1.38,14.67,5.26,22.9,9.76a207.23,207.23,0,0,0,23.84,11.59c1.2.47,2.39.92,3.55,1.36,6.9,2.62,12.86,4.88,13.89,9.49a6.77,6.77,0,0,1-.15,3.22,21.81,21.81,0,0,0-.5,6.36,29,29,0,0,0,4.21,13.68,28.42,28.42,0,0,0,6.46,7,49,49,0,0,0,21,9.35c2.55.44,9.73,1.4,10.86,1.54l2.5.31,1.16.13h0c11,1.25,16.58,1.87,66.73,13h0l.23.09c5.3,2.23,22.82,9.59,25.69,10.89l.24.1c.54.24,1.64.71,3,1.21.08,0,2,.77,4,1.36.17.05,4.37,1.27,15.42,2.35,41.14,8,71.44,18,79,23.27a44.68,44.68,0,0,1,11.1,11.3,27.85,27.85,0,0,1,3,6.18c.39,1.19,2.26,7.44.7,13.17-1.36,5-5.07,8.87-12.82,13.47-10.51,6.23-19.48,8.4-26.69,10.15-1.95.47-3.79.92-5.47,1.4-16.71,4.8-26.65,15.69-40.41,30.76-9.36,10.26-12.32,16.64-16.41,25.48a246.13,246.13,0,0,1-19.6,35.22A107.07,107.07,0,0,0,784.57,667c-2.27,7.26-3.77,12.06-3.23,18.53,0,.51,1.14,12.45,11.25,26.31,0,0,1.48,2,2.92,3.74h0v0c.11.12,1.11,1.32,2.2,2.51,2.75,3,6.14,6,6.28,6.12,7.32,6.46,11.35,10,17.6,14.17a119.43,119.43,0,0,0,10.95,6.44c2.19,1.13,21.76,11,37.37,10a21.1,21.1,0,0,0,15.73-7.92c4.7-5.5,7.75-9.28,10-12,3-3.77,4.58-5.67,6.74-7.51,8.29-7.06,18.72-7.41,19.88-7.43,9.9-.15,19.57,5,27.34,14.38,3.58,4.34,9.58,11.61,8.57,21.81a25.26,25.26,0,0,1-12.87,19.56c-3.66,1.92-8,2.26-16.57,2.93a83.64,83.64,0,0,1-10,.24,16.54,16.54,0,0,0-7.21.87c-4.23,1.52-10.25,5.27-14.88,14.52-2.65,5.3-3.94,11.75-2.14,27.51,1.47,12.86,3,26.15,9.87,42.27,1.57,3.66,3.06,6.67,4.5,9.57,3.1,6.25,5.78,11.64,7.69,20.76,1.64,7.81,1.51,12.67-.45,17.35-1.84,4.41-5.22,8-11.27,12-10.25,6.81-20,9.34-30.68,11.73-13.13,2.93-21.09,4.16-26.9,5.05-7.71,1.19-11.57,1.79-18.27,5a86.82,86.82,0,0,0-22.87,16.61,73.14,73.14,0,0,0-12.25,15.53c-2.82,4.56-5.05,8.16-10.93,12.52-1.44,1.07-10.63,5.27-27.32,12.88l-.62.29c-9.5,4.33-16.36,7.45-21.22,15.14a34.4,34.4,0,0,0-4.19,10.15c-.64,2.53-2.11,8.42-.85,14.73h2C729.4,1037.41,730.81,1031.8,731.48,1029.13Z"/><path d="M462.05,611c2.09-11.29,7.57-22.1,17.24-34,1.61-2,3.23-3.94,4.85-5.91,8.23-10,16.74-20.29,22.76-32.22a114.55,114.55,0,0,0,11.84-38.77,67,67,0,0,0-4-32.91c-4.93-12.38-15.56-19.78-31.6-22a152.47,152.47,0,0,0-19.06-1c-2.79,0-5.67-.06-8.49-.16l-.29,0a1,1,0,0,0-.45,0l-4.55.91c-3.27.65-6.66,1.32-10,2.12-18.85,4.55-32.49,16.52-39.45,34.63-7.7,20-14.12,40.94-19.54,59-1.74,5.8-2.38,12-3,18-.21,2-.42,4.08-.68,6.11-.45,3.64-.82,7.36-1.17,10.95-.53,5.42-1.07,11-1.95,16.46-1.5,9.25-6.85,16.93-15.48,22.21-6.07,3.72-12.42,7.23-18.57,10.63-4.37,2.41-8.9,4.92-13.3,7.48l-3,1.74c-5.46,3.14-11.1,6.39-16,10.42-9.76,8-11,18.36-3.84,31.59,1.2,2.22,2.51,4.43,3.77,6.57a95.44,95.44,0,0,1,7.42,14.38c2.07,5.5,3.32,11.86,4,20.63,1.09,13.18,6.58,25,17.31,37.08,1.09,1.24,2.2,2.47,3.31,3.71,7.07,7.88,14.38,16,19.16,25.94a152.5,152.5,0,0,1,14.19,47.2c.81,6.36,1.14,12.91,1.47,19.24.18,3.66.38,7.44.66,11.16.69,9.13,2.49,18.5,10.83,25.19a34.09,34.09,0,0,0,17.49,7.2,56.7,56.7,0,0,0,7.29.48c14.81,0,28.11-6.18,40.48-18.77,2.63-2.67,5.21-5.47,7.7-8.17,3.94-4.28,8-8.7,12.34-12.69,23-21.24,43-33.58,64.91-40,9.63-2.82,19-7.11,28-11.25l2.61-1.2a34.81,34.81,0,0,0,20.05-24.07c3.17-13-.16-25.22-10.19-37.31-8.1-9.76-18.32-17.23-28.21-24.46-2.58-1.88-5.24-3.83-7.83-5.78C525.57,699.53,508,690.81,491,682.38l-4.09-2c-13.32-6.64-21.66-16.4-25.48-29.85-2.13-7.48-2.56-15.53-1.4-26.1C460.54,620,461.21,615.5,462.05,611Zm-2.51,40c4,14,12.67,24.2,26.52,31.1l4.09,2c16.9,8.39,34.36,17.06,49.78,28.73,2.59,2,5.27,3.92,7.85,5.81,9.79,7.15,19.91,14.54,27.85,24.12,9.6,11.57,12.8,23.2,9.78,35.56-2.56,10.51-8.93,18.15-18.93,22.72l-2.61,1.2c-9,4.11-18.25,8.37-27.74,11.15-22.2,6.5-42.47,19-65.71,40.44-4.38,4-8.48,8.49-12.45,12.79-2.48,2.69-5.05,5.48-7.65,8.13-13.9,14.14-29,19.93-46.1,17.71a32.19,32.19,0,0,1-16.49-6.78c-7.75-6.22-9.43-15.1-10.09-23.78-.28-3.69-.47-7.47-.66-11.11-.32-6.37-.66-13-1.48-19.39a154.58,154.58,0,0,0-14.36-47.82c-4.91-10.15-12.32-18.42-19.48-26.41q-1.67-1.85-3.31-3.7c-10.42-11.77-15.76-23.18-16.8-35.92-.74-9-2-15.48-4.17-21.17a96.15,96.15,0,0,0-7.57-14.69c-1.25-2.12-2.55-4.32-3.73-6.5-6.74-12.43-5.68-21.67,3.35-29.09,4.78-3.93,10.35-7.14,15.74-10.23l3-1.75c4.38-2.55,8.89-5.05,13.26-7.46,6.16-3.41,12.54-6.93,18.65-10.67,9.14-5.6,14.81-13.76,16.4-23.6.89-5.5,1.44-11.14,2-16.59.35-3.58.71-7.28,1.17-10.9.25-2,.47-4.09.68-6.14.61-5.9,1.24-12,2.93-17.62,5.41-18,11.81-38.9,19.48-58.84,6.72-17.47,19.88-29,38.06-33.41,3.26-.79,6.62-1.45,9.87-2.1l4.58-.91h0l.22,0c2.84.1,5.74.13,8.54.16a151.68,151.68,0,0,1,18.81,1c15.27,2.11,25.37,9.1,30,20.76a65,65,0,0,1,3.88,31.94,112.4,112.4,0,0,1-11.64,38.1c-5.91,11.73-14.35,22-22.52,31.85q-2.43,3-4.85,5.92c-9.89,12.2-15.5,23.3-17.66,34.92-.84,4.57-1.52,9.13-2,13.56C456.89,635,457.34,643.31,459.54,651Z"/></g></g></g></svg>
