<svg xmlns="http://www.w3.org/2000/svg" viewBox="0 0 978.15 978.15"><defs><style>.cls-1{fill:none;}.cls-2{fill:#111;}.cls-3{fill:#28bf77;}</style></defs><title>keasans2</title><g id="Layer_2" data-name="Layer 2"><g id="Layer_1-2" data-name="Layer 1"><rect class="cls-1" width="978.15" height="978.15"/><path class="cls-2" d="M935.35,931.64l-.87,1.38L898,910h2.76ZM962.56,910v49.44h-1.63V912.35l-57.11,47.11h-2.41L961.27,910Z"/><path class="cls-2" d="M893.57,931.13v1.63H849.82q-6.65,0-10.34,2.93t-3.7,9.65q0,6.63,3.7,9.56t10.34,2.93h23a22.05,22.05,0,0,0,8.79-1.64,16.42,16.42,0,0,0,6.29-4.69,20.57,20.57,0,0,0,3.74-7.33,33.16,33.16,0,0,0,1.25-9.43,32.75,32.75,0,0,0-1.29-9.51,20.23,20.23,0,0,0-3.83-7.28,17,17,0,0,0-6.33-4.65,21.41,21.41,0,0,0-8.62-1.64H837.67V910h35.14a22.71,22.71,0,0,1,9.31,1.81,18.83,18.83,0,0,1,6.8,5.08,22.39,22.39,0,0,1,4.18,7.8,33.25,33.25,0,0,1,1.42,10,33.68,33.68,0,0,1-1.42,10.08,22.37,22.37,0,0,1-4.14,7.8,18.43,18.43,0,0,1-6.8,5,22.84,22.84,0,0,1-9.35,1.81h-23q-7.32,0-11.5-3.44t-4.18-10.68q0-7.25,4.18-10.73t11.5-3.48Z"/><path class="cls-2" d="M823.89,957.83v1.63H787.46a28.15,28.15,0,0,1-8.14-1.12,18.46,18.46,0,0,1-6.51-3.36,15.63,15.63,0,0,1-4.3-5.51,17.43,17.43,0,0,1-1.55-7.58V910h44.79q7.32,0,11.45,3.45c2.76,2.29,4.14,5.86,4.14,10.68s-1.38,8.41-4.14,10.77-6.57,3.53-11.45,3.53H767.82v-1.64h43.93q6.63,0,10.29-3t3.66-9.6q0-6.65-3.66-9.61t-10.29-3H768.59v30.23a16.08,16.08,0,0,0,1.38,6.85,13.71,13.71,0,0,0,3.92,5,17.87,17.87,0,0,0,5.94,3,26.17,26.17,0,0,0,7.63,1Z"/><path class="cls-2" d="M724,959.46h-1.64V934.74a33.25,33.25,0,0,0-1.29-9.56,20.25,20.25,0,0,0-3.83-7.32,16.68,16.68,0,0,0-6.33-4.61,22.12,22.12,0,0,0-8.62-1.59H665.41V910h36.86a23,23,0,0,1,9.35,1.81,18.57,18.57,0,0,1,6.8,5,22.2,22.2,0,0,1,4.14,7.8A34,34,0,0,1,724,934.74Z"/><path class="cls-2" d="M636.9,910a22.69,22.69,0,0,1,9.3,1.81,18.75,18.75,0,0,1,6.8,5.08,22.39,22.39,0,0,1,4.18,7.8,33.25,33.25,0,0,1,1.42,10,33.68,33.68,0,0,1-1.42,10.08,22.52,22.52,0,0,1-4.13,7.8,18.47,18.47,0,0,1-6.81,5,22.79,22.79,0,0,1-9.34,1.81H620a22.72,22.72,0,0,1-9.38-1.81,19,19,0,0,1-6.81-5,22,22,0,0,1-4.18-7.8,36.17,36.17,0,0,1,0-20.07,22.41,22.41,0,0,1,4.18-7.84,18.87,18.87,0,0,1,6.81-5.08,22.46,22.46,0,0,1,9.21-1.81Zm-17.06,1.64a21.17,21.17,0,0,0-8.53,1.64A16.5,16.5,0,0,0,605,918a21.22,21.22,0,0,0-3.84,7.28,32,32,0,0,0-1.33,9.51,32.48,32.48,0,0,0,1.33,9.56,21.38,21.38,0,0,0,3.84,7.33,16.18,16.18,0,0,0,6.28,4.6,22.17,22.17,0,0,0,8.7,1.6H636.9a21.92,21.92,0,0,0,8.61-1.6,16.51,16.51,0,0,0,6.33-4.6,20.38,20.38,0,0,0,3.83-7.33,33.19,33.19,0,0,0,1.3-9.56,32.74,32.74,0,0,0-1.3-9.51,20.23,20.23,0,0,0-3.83-7.28,16.83,16.83,0,0,0-6.33-4.65,21.4,21.4,0,0,0-8.61-1.64Z"/><path class="cls-2" d="M574.36,936.81v1.64H546.72q-7.32,0-11.5-3.53T531,924.15V910h38.67a23,23,0,0,1,9.35,1.81,18.48,18.48,0,0,1,6.8,5,22.2,22.2,0,0,1,4.14,7.8,33.66,33.66,0,0,1,1.42,10.07,33.32,33.32,0,0,1-1.42,10,22.35,22.35,0,0,1-4.18,7.79,18.72,18.72,0,0,1-6.8,5.08,22.55,22.55,0,0,1-9.31,1.81H534.57v-1.63h35.14a21.58,21.58,0,0,0,8.62-1.64,16.91,16.91,0,0,0,6.33-4.65,20.31,20.31,0,0,0,3.83-7.28,32.77,32.77,0,0,0,1.29-9.52,33.25,33.25,0,0,0-1.29-9.56,20.25,20.25,0,0,0-3.83-7.32,16.6,16.6,0,0,0-6.33-4.61,22.12,22.12,0,0,0-8.62-1.59h-37v12.49q0,6.72,3.7,9.69t10.34,3Z"/><path class="cls-2" d="M502.53,910a22.69,22.69,0,0,1,9.3,1.81,18.87,18.87,0,0,1,6.81,5.08,22.21,22.21,0,0,1,4.17,7.8,33.25,33.25,0,0,1,1.43,10,33.68,33.68,0,0,1-1.43,10.08,22.19,22.19,0,0,1-4.13,7.8,18.52,18.52,0,0,1-6.8,5,22.87,22.87,0,0,1-9.35,1.81H485.65a22.77,22.77,0,0,1-9.39-1.81,18.85,18.85,0,0,1-6.8-5,22,22,0,0,1-4.18-7.8,36.17,36.17,0,0,1,0-20.07,22.41,22.41,0,0,1,4.18-7.84,18.75,18.75,0,0,1,6.8-5.08,22.47,22.47,0,0,1,9.22-1.81Zm-17,1.64A21.17,21.17,0,0,0,477,913.3a16.53,16.53,0,0,0-6.29,4.65,21.21,21.21,0,0,0-3.83,7.28,31.72,31.72,0,0,0-1.34,9.51,32.15,32.15,0,0,0,1.34,9.56,21.36,21.36,0,0,0,3.83,7.33,16.22,16.22,0,0,0,6.29,4.6,22.17,22.17,0,0,0,8.7,1.6h16.88a21.85,21.85,0,0,0,8.61-1.6,16.51,16.51,0,0,0,6.33-4.6,20.24,20.24,0,0,0,3.84-7.33,33.2,33.2,0,0,0,1.29-9.56,32.75,32.75,0,0,0-1.29-9.51,20.09,20.09,0,0,0-3.84-7.28,16.83,16.83,0,0,0-6.33-4.65,21.33,21.33,0,0,0-8.61-1.64Z"/><path class="cls-2" d="M421.74,910v49.44H420.1v-21H366.44v21H364.8V910h1.64v26.79H420.1V910Z"/><path class="cls-2" d="M356.19,931.13v1.63H312.44q-6.63,0-10.34,2.93t-3.7,9.65q0,6.63,3.7,9.56t10.34,2.93h23a22.05,22.05,0,0,0,8.79-1.64,16.42,16.42,0,0,0,6.29-4.69,20.57,20.57,0,0,0,3.74-7.33,33.16,33.16,0,0,0,1.25-9.43,32.75,32.75,0,0,0-1.29-9.51,20.23,20.23,0,0,0-3.83-7.28,17,17,0,0,0-6.33-4.65,21.41,21.41,0,0,0-8.62-1.64H300.29V910h35.14a22.71,22.71,0,0,1,9.31,1.81,18.83,18.83,0,0,1,6.8,5.08,22.39,22.39,0,0,1,4.18,7.8,33.25,33.25,0,0,1,1.42,10,33.68,33.68,0,0,1-1.42,10.08,22.37,22.37,0,0,1-4.14,7.8,18.43,18.43,0,0,1-6.8,5,22.84,22.84,0,0,1-9.35,1.81h-23q-7.32,0-11.5-3.44t-4.18-10.68q0-7.25,4.18-10.73t11.5-3.48Z"/><path class="cls-2" d="M286.51,957.83v1.63H250.08a28.15,28.15,0,0,1-8.14-1.12,18.46,18.46,0,0,1-6.51-3.36,15.63,15.63,0,0,1-4.3-5.51,17.43,17.43,0,0,1-1.55-7.58V910h44.79q7.32,0,11.45,3.45c2.76,2.29,4.14,5.86,4.14,10.68s-1.38,8.41-4.14,10.77-6.57,3.53-11.45,3.53H230.44v-1.64h43.93q6.63,0,10.29-3t3.66-9.6q0-6.65-3.66-9.61t-10.29-3H231.21v30.23a16.08,16.08,0,0,0,1.38,6.85,13.71,13.71,0,0,0,3.92,5,17.87,17.87,0,0,0,5.94,3,26.17,26.17,0,0,0,7.63,1Z"/><path class="cls-2" d="M221.05,910v49.44H182.46a22.77,22.77,0,0,1-9.39-1.81,18.94,18.94,0,0,1-6.8-5,22,22,0,0,1-4.18-7.8,33.68,33.68,0,0,1-1.42-10.08,33.25,33.25,0,0,1,1.42-10,22.14,22.14,0,0,1,4.22-7.8,19.27,19.27,0,0,1,6.85-5.08,22.69,22.69,0,0,1,9.3-1.81Zm-1.64,1.64H182.46a21.4,21.4,0,0,0-8.61,1.64,16.83,16.83,0,0,0-6.33,4.65,20.62,20.62,0,0,0-3.88,7.28,31.72,31.72,0,0,0-1.33,9.51,32.17,32.17,0,0,0,1.33,9.61,21.23,21.23,0,0,0,3.84,7.28,16.18,16.18,0,0,0,6.28,4.6,22.17,22.17,0,0,0,8.7,1.6h36.95Z"/><path class="cls-2" d="M152.92,931.13v1.63H109.16q-6.63,0-10.33,2.93t-3.71,9.65q0,6.63,3.71,9.56t10.33,2.93h23a22.05,22.05,0,0,0,8.79-1.64,16.39,16.39,0,0,0,6.28-4.69,20.43,20.43,0,0,0,3.75-7.33,33.52,33.52,0,0,0,1.25-9.43,32.75,32.75,0,0,0-1.29-9.51A20.09,20.09,0,0,0,147.1,918a16.83,16.83,0,0,0-6.33-4.65,21.33,21.33,0,0,0-8.61-1.64H97V910h35.14a22.66,22.66,0,0,1,9.3,1.81,18.87,18.87,0,0,1,6.81,5.08,22.39,22.39,0,0,1,4.18,7.8,33.57,33.57,0,0,1,1.42,10,34,34,0,0,1-1.42,10.08,22.37,22.37,0,0,1-4.14,7.8,18.52,18.52,0,0,1-6.8,5,22.87,22.87,0,0,1-9.35,1.81h-23q-7.32,0-11.5-3.44t-4.17-10.68q0-7.25,4.17-10.73t11.5-3.48Z"/><path class="cls-2" d="M48.27,931.3H45.86L21.22,910h2.41ZM85.82,910v49.44H41.12q-7.32,0-11.5-3.44t-4.18-10.68q0-7.25,4.18-10.73t11.5-3.48H85v1.63H41.12q-6.63,0-10.34,2.93t-3.7,9.65q0,6.63,3.7,9.56t10.34,2.93H84.18V910Z"/><path class="cls-3" d="M25.53,71.06V21.62h1.64V68.74l57.1-47.12h2.41L26.82,71.06ZM52.75,49.44l.86-1.37,36.52,23H87.37Z"/><path class="cls-3" d="M94.52,50V48.32h43.76q6.63,0,10.33-2.92t3.71-9.65q0-6.63-3.71-9.56t-10.33-2.93h-23a22.05,22.05,0,0,0-8.79,1.64,16.29,16.29,0,0,0-6.28,4.69,20.46,20.46,0,0,0-3.75,7.32,33.57,33.57,0,0,0-1.25,9.43,32.77,32.77,0,0,0,1.29,9.52,20.17,20.17,0,0,0,3.84,7.28,16.83,16.83,0,0,0,6.33,4.65,21.5,21.5,0,0,0,8.61,1.64h35.14v1.63H115.28a22.53,22.53,0,0,1-9.3-1.81,18.64,18.64,0,0,1-6.81-5.08A22.35,22.35,0,0,1,95,56.38a33.64,33.64,0,0,1-1.42-10A34,34,0,0,1,95,36.27a22.2,22.2,0,0,1,4.14-7.8,18.65,18.65,0,0,1,6.8-5,23,23,0,0,1,9.35-1.81h23q7.32,0,11.5,3.45T154,35.75q0,7.23-4.17,10.72T138.28,50Z"/><path class="cls-3" d="M164.2,23.26V21.62h36.44a28.6,28.6,0,0,1,8.14,1.12,18.84,18.84,0,0,1,6.5,3.36,15.75,15.75,0,0,1,4.31,5.51,17.6,17.6,0,0,1,1.55,7.58V71.06H176.35q-7.32,0-11.46-3.44t-4.13-10.68c0-4.83,1.38-8.41,4.13-10.77s6.58-3.53,11.46-3.53h43.92v1.64H176.35q-6.63,0-10.3,3t-3.66,9.6q0,6.63,3.66,9.61t10.3,3H219.5V39.19a16.07,16.07,0,0,0-1.38-6.84,13.61,13.61,0,0,0-3.92-5,17.61,17.61,0,0,0-5.94-3.06,26.16,26.16,0,0,0-7.62-1Z"/><path class="cls-3" d="M264.12,21.62h1.63V46.34A33.2,33.2,0,0,0,267,55.9a20.23,20.23,0,0,0,3.84,7.33,16.4,16.4,0,0,0,6.33,4.6,21.85,21.85,0,0,0,8.61,1.6h36.87v1.63H285.82a22.79,22.79,0,0,1-9.34-1.81,18.47,18.47,0,0,1-6.81-5,22.11,22.11,0,0,1-4.13-7.8,33.68,33.68,0,0,1-1.42-10.08Z"/><path class="cls-3" d="M351.2,71.06a22.55,22.55,0,0,1-9.31-1.81,18.61,18.61,0,0,1-6.8-5.08,22.35,22.35,0,0,1-4.18-7.79,33.32,33.32,0,0,1-1.42-10,33.66,33.66,0,0,1,1.42-10.07,22.2,22.2,0,0,1,4.14-7.8,18.48,18.48,0,0,1,6.8-5,23,23,0,0,1,9.35-1.81h16.88a22.93,22.93,0,0,1,9.39,1.81,19.08,19.08,0,0,1,6.8,5,21.79,21.79,0,0,1,4.18,7.8,33.66,33.66,0,0,1,1.42,10.07,33.36,33.36,0,0,1-1.42,10,22.23,22.23,0,0,1-4.18,7.84,18.61,18.61,0,0,1-6.8,5.08,22.31,22.31,0,0,1-9.22,1.81Zm17.05-1.63a21.34,21.34,0,0,0,8.53-1.64,16.5,16.5,0,0,0,6.28-4.65,21.14,21.14,0,0,0,3.84-7.28,31.74,31.74,0,0,0,1.33-9.52,32.2,32.2,0,0,0-1.33-9.56,21.07,21.07,0,0,0-3.84-7.32,16.21,16.21,0,0,0-6.28-4.61,22.35,22.35,0,0,0-8.7-1.59H351.2a22.12,22.12,0,0,0-8.62,1.59,16.6,16.6,0,0,0-6.33,4.61,20.25,20.25,0,0,0-3.83,7.32,33.25,33.25,0,0,0-1.29,9.56,32.77,32.77,0,0,0,1.29,9.52,20.31,20.31,0,0,0,3.83,7.28,16.91,16.91,0,0,0,6.33,4.65,21.58,21.58,0,0,0,8.62,1.64Z"/><path class="cls-3" d="M413.73,44.28V42.64h27.65q7.32,0,11.5,3.53c2.78,2.36,4.17,5.94,4.17,10.77V71.06H418.38A22.87,22.87,0,0,1,409,69.25a18.52,18.52,0,0,1-6.8-5,22.28,22.28,0,0,1-4.14-7.8,34,34,0,0,1-1.42-10.08,33.57,33.57,0,0,1,1.42-10,22.39,22.39,0,0,1,4.18-7.8,18.87,18.87,0,0,1,6.81-5.08,22.66,22.66,0,0,1,9.3-1.81h35.14v1.64H418.38a21.5,21.5,0,0,0-8.61,1.64,16.94,16.94,0,0,0-6.34,4.65,20.23,20.23,0,0,0-3.83,7.28,32.75,32.75,0,0,0-1.29,9.51,33.2,33.2,0,0,0,1.29,9.56,20.21,20.21,0,0,0,3.83,7.33,16.51,16.51,0,0,0,6.34,4.6,21.85,21.85,0,0,0,8.61,1.6h37V56.94q0-6.72-3.71-9.69t-10.33-3Z"/><path class="cls-3" d="M485.56,71.06a22.53,22.53,0,0,1-9.3-1.81,18.52,18.52,0,0,1-6.8-5.08,22.35,22.35,0,0,1-4.18-7.79,33.32,33.32,0,0,1-1.42-10,33.66,33.66,0,0,1,1.42-10.07,22.18,22.18,0,0,1,4.13-7.8,18.6,18.6,0,0,1,6.81-5,23,23,0,0,1,9.34-1.81h16.88a22.93,22.93,0,0,1,9.39,1.81,19.12,19.12,0,0,1,6.81,5,21.77,21.77,0,0,1,4.17,7.8,33.66,33.66,0,0,1,1.43,10.07,33.35,33.35,0,0,1-1.43,10,22.21,22.21,0,0,1-4.17,7.84,18.64,18.64,0,0,1-6.81,5.08,22.3,22.3,0,0,1-9.21,1.81Zm17.06-1.63a21.29,21.29,0,0,0,8.52-1.64,16.46,16.46,0,0,0,6.29-4.65,21.13,21.13,0,0,0,3.83-7.28,31.74,31.74,0,0,0,1.34-9.52,32.2,32.2,0,0,0-1.34-9.56,21.05,21.05,0,0,0-3.83-7.32,16.17,16.17,0,0,0-6.29-4.61,22.28,22.28,0,0,0-8.7-1.59H485.56A22.1,22.1,0,0,0,477,24.85a16.53,16.53,0,0,0-6.33,4.61,20.1,20.1,0,0,0-3.83,7.32,32.89,32.89,0,0,0-1.3,9.56,32.42,32.42,0,0,0,1.3,9.52,20.16,20.16,0,0,0,3.83,7.28A16.83,16.83,0,0,0,477,67.79a21.57,21.57,0,0,0,8.61,1.64Z"/><path class="cls-3" d="M566.35,71.06V21.62H568v21h53.66v-21h1.64V71.06h-1.64V44.28H568V71.06Z"/><path class="cls-3" d="M631.9,50V48.32h43.76q6.63,0,10.33-2.92t3.71-9.65q0-6.63-3.71-9.56t-10.33-2.93h-23a22.05,22.05,0,0,0-8.79,1.64,16.29,16.29,0,0,0-6.28,4.69,20.46,20.46,0,0,0-3.75,7.32,33.57,33.57,0,0,0-1.25,9.43,32.77,32.77,0,0,0,1.29,9.52,20.17,20.17,0,0,0,3.84,7.28,16.83,16.83,0,0,0,6.33,4.65,21.5,21.5,0,0,0,8.61,1.64H687.8v1.63H652.66a22.53,22.53,0,0,1-9.3-1.81,18.64,18.64,0,0,1-6.81-5.08,22.35,22.35,0,0,1-4.18-7.79,33.64,33.64,0,0,1-1.42-10,34,34,0,0,1,1.42-10.07,22.2,22.2,0,0,1,4.14-7.8,18.65,18.65,0,0,1,6.8-5,23,23,0,0,1,9.35-1.81h23q7.32,0,11.5,3.45t4.17,10.68q0,7.23-4.17,10.72T675.66,50Z"/><path class="cls-3" d="M701.58,23.26V21.62H738a28.6,28.6,0,0,1,8.14,1.12,18.84,18.84,0,0,1,6.5,3.36A15.75,15.75,0,0,1,757,31.61a17.6,17.6,0,0,1,1.55,7.58V71.06H713.73q-7.32,0-11.46-3.44t-4.13-10.68c0-4.83,1.38-8.41,4.13-10.77s6.58-3.53,11.46-3.53h43.92v1.64H713.73q-6.63,0-10.3,3t-3.66,9.6q0,6.63,3.66,9.61t10.3,3h43.15V39.19a16.07,16.07,0,0,0-1.38-6.84,13.61,13.61,0,0,0-3.92-5,17.61,17.61,0,0,0-5.94-3.06,26.16,26.16,0,0,0-7.62-1Z"/><path class="cls-3" d="M767,71.06V21.62h38.59A22.93,22.93,0,0,1,815,23.43a19,19,0,0,1,6.8,5,21.79,21.79,0,0,1,4.18,7.8,33.66,33.66,0,0,1,1.42,10.07,33.32,33.32,0,0,1-1.42,10,21.94,21.94,0,0,1-4.22,7.79,19,19,0,0,1-6.85,5.08,22.53,22.53,0,0,1-9.3,1.81Zm1.64-1.63h37a21.5,21.5,0,0,0,8.61-1.64,16.83,16.83,0,0,0,6.33-4.65,20.71,20.71,0,0,0,3.88-7.28,31.74,31.74,0,0,0,1.34-9.52,32,32,0,0,0-1.34-9.6,21.3,21.3,0,0,0-3.83-7.28,16.24,16.24,0,0,0-6.29-4.61,22.35,22.35,0,0,0-8.7-1.59h-37Z"/><path class="cls-3" d="M835.17,50V48.32h43.76q6.63,0,10.34-2.92t3.7-9.65q0-6.63-3.7-9.56t-10.34-2.93h-23a22,22,0,0,0-8.78,1.64,16.25,16.25,0,0,0-6.29,4.69,20.46,20.46,0,0,0-3.75,7.32,33.57,33.57,0,0,0-1.25,9.43,32.77,32.77,0,0,0,1.29,9.52A20.33,20.33,0,0,0,841,63.14a16.83,16.83,0,0,0,6.33,4.65,21.53,21.53,0,0,0,8.61,1.64h35.14v1.63H855.93a22.53,22.53,0,0,1-9.3-1.81,18.64,18.64,0,0,1-6.81-5.08,22.49,22.49,0,0,1-4.17-7.79,33.32,33.32,0,0,1-1.42-10,33.66,33.66,0,0,1,1.42-10.07,22.18,22.18,0,0,1,4.13-7.8,18.6,18.6,0,0,1,6.81-5,23,23,0,0,1,9.34-1.81h23q7.32,0,11.5,3.45t4.17,10.68q0,7.23-4.17,10.72T878.93,50Z"/><path class="cls-3" d="M902.27,71.06V21.62H947q7.32,0,11.5,3.45t4.18,10.68q0,7.23-4.18,10.72T947,50H903.13V48.32H947q6.63,0,10.34-2.92t3.7-9.65q0-6.63-3.7-9.56T947,23.26H903.91v47.8Zm37.55-21.27h2.42l24.63,21.27h-2.41Z"/><path class="cls-3" d="M25.53,139.16V89.72h2.15V136L83.41,89.72h3.27L27.25,139.16ZM52.58,117.8l1.2-1.81,36.35,23.17H86.51Z"/><path class="cls-3" d="M94.78,118.31v-2.15h43.5q6.38,0,9.95-2.84T151.8,104q0-6.45-3.57-9.3t-9.95-2.84h-23a20.86,20.86,0,0,0-8.57,1.64,16.61,16.61,0,0,0-6.12,4.6,19.92,19.92,0,0,0-3.66,7.15,33.22,33.22,0,0,0-1.2,9.18A31.57,31.57,0,0,0,97,123.78a20.09,20.09,0,0,0,3.75,7.11,16.3,16.3,0,0,0,6.11,4.52,20.91,20.91,0,0,0,8.4,1.59h35.14v2.16H115.28a22.69,22.69,0,0,1-9.3-1.81,18.87,18.87,0,0,1-6.81-5.08,22.39,22.39,0,0,1-4.18-7.8,33.57,33.57,0,0,1-1.42-10A34,34,0,0,1,95,104.36a22.37,22.37,0,0,1,4.14-7.8,18.52,18.52,0,0,1,6.8-5,22.87,22.87,0,0,1,9.35-1.81h23q7.32,0,11.5,3.53T154,104q0,7.24-4.17,10.77t-11.5,3.53Z"/><path class="cls-3" d="M164.2,91.87V89.72h36.44a28.25,28.25,0,0,1,8.14,1.12,18.5,18.5,0,0,1,6.5,3.36,15.66,15.66,0,0,1,4.31,5.51,17.57,17.57,0,0,1,1.55,7.58v31.87H176.35q-7.32,0-11.46-3.53t-4.13-10.77q0-7.23,4.13-10.81t11.46-3.58H220v2.16H176.35q-6.37,0-9.91,2.88t-3.53,9.35q0,6.46,3.53,9.3t9.91,2.84H219V107.29a15.51,15.51,0,0,0-1.33-6.59,13.51,13.51,0,0,0-3.79-4.87,16.71,16.71,0,0,0-5.77-3,26,26,0,0,0-7.45-1Z"/><path class="cls-3" d="M264.12,89.72h2.15v24.72a32.83,32.83,0,0,0,1.25,9.39,19.15,19.15,0,0,0,3.75,7.14,16.16,16.16,0,0,0,6.15,4.48,21.26,21.26,0,0,0,8.4,1.55h36.87v2.16H285.82a23,23,0,0,1-9.34-1.81,18.6,18.6,0,0,1-6.81-5,22,22,0,0,1-4.13-7.8,33.66,33.66,0,0,1-1.42-10.07Z"/><path class="cls-3" d="M351.2,139.16a22.71,22.71,0,0,1-9.31-1.81,18.83,18.83,0,0,1-6.8-5.08,22.39,22.39,0,0,1-4.18-7.8,33.25,33.25,0,0,1-1.42-10,33.68,33.68,0,0,1,1.42-10.08,22.37,22.37,0,0,1,4.14-7.8,18.35,18.35,0,0,1,6.8-5,22.84,22.84,0,0,1,9.35-1.81h16.88a22.77,22.77,0,0,1,9.39,1.81,18.94,18.94,0,0,1,6.8,5,22,22,0,0,1,4.18,7.8,36.17,36.17,0,0,1,0,20.07,22.41,22.41,0,0,1-4.18,7.84,18.83,18.83,0,0,1-6.8,5.08,22.47,22.47,0,0,1-9.22,1.81ZM368.25,137a20.67,20.67,0,0,0,8.31-1.59,16.42,16.42,0,0,0,6.12-4.52,20.23,20.23,0,0,0,3.74-7.11,31.24,31.24,0,0,0,1.3-9.34,31.67,31.67,0,0,0-1.3-9.39,20.25,20.25,0,0,0-3.74-7.15,15.92,15.92,0,0,0-6.16-4.48,21.75,21.75,0,0,0-8.44-1.55H351.2a21.44,21.44,0,0,0-8.4,1.55,16.3,16.3,0,0,0-6.16,4.48,19.34,19.34,0,0,0-3.75,7.15,33.09,33.09,0,0,0-1.25,9.39,31.24,31.24,0,0,0,1.3,9.34,20.23,20.23,0,0,0,3.74,7.11,16.42,16.42,0,0,0,6.12,4.52,20.91,20.91,0,0,0,8.4,1.59Z"/><path class="cls-3" d="M413.73,112.63v-2.16h27.65q7.32,0,11.5,3.58t4.17,10.81v14.3H418.38a23,23,0,0,1-9.35-1.81,18.65,18.65,0,0,1-6.8-5,22.2,22.2,0,0,1-4.14-7.8,34,34,0,0,1-1.42-10.07,33.64,33.64,0,0,1,1.42-10,22.35,22.35,0,0,1,4.18-7.79,18.75,18.75,0,0,1,6.81-5.08,22.5,22.5,0,0,1,9.3-1.81h35.14v2.15H418.38a20.91,20.91,0,0,0-8.4,1.59A16.33,16.33,0,0,0,403.87,98a20.13,20.13,0,0,0-3.75,7.1,31.64,31.64,0,0,0-1.29,9.35,32.83,32.83,0,0,0,1.25,9.39,19.28,19.28,0,0,0,3.74,7.14,16.27,16.27,0,0,0,6.16,4.48,21.26,21.26,0,0,0,8.4,1.55H454.9V124.86q0-6.47-3.58-9.35t-9.94-2.88Z"/><path class="cls-3" d="M485.56,139.16a22.69,22.69,0,0,1-9.3-1.81,18.75,18.75,0,0,1-6.8-5.08,22.39,22.39,0,0,1-4.18-7.8,33.25,33.25,0,0,1-1.42-10,33.68,33.68,0,0,1,1.42-10.08,22.36,22.36,0,0,1,4.13-7.8,18.47,18.47,0,0,1,6.81-5,22.79,22.79,0,0,1,9.34-1.81h16.88a22.77,22.77,0,0,1,9.39,1.81,19,19,0,0,1,6.81,5,21.94,21.94,0,0,1,4.17,7.8,35.92,35.92,0,0,1,0,20.07,22.39,22.39,0,0,1-4.17,7.84,18.87,18.87,0,0,1-6.81,5.08,22.46,22.46,0,0,1-9.21,1.81ZM502.62,137a20.67,20.67,0,0,0,8.31-1.59,16.3,16.3,0,0,0,6.11-4.52,20.09,20.09,0,0,0,3.75-7.11,31.57,31.57,0,0,0,1.29-9.34,32,32,0,0,0-1.29-9.39A20.11,20.11,0,0,0,517,97.9a15.89,15.89,0,0,0-6.15-4.48,21.8,21.8,0,0,0-8.45-1.55H485.56a21.44,21.44,0,0,0-8.4,1.55A16.27,16.27,0,0,0,471,97.9a19.2,19.2,0,0,0-3.75,7.15,33.09,33.09,0,0,0-1.25,9.39,31.57,31.57,0,0,0,1.29,9.34,20.09,20.09,0,0,0,3.75,7.11,16.38,16.38,0,0,0,6.11,4.52,20.91,20.91,0,0,0,8.4,1.59Z"/><path class="cls-3" d="M566.35,139.16V89.72h2.16v20.75h52.63V89.72h2.15v49.44h-2.15V112.63H568.51v26.53Z"/><path class="cls-3" d="M632.16,118.31v-2.15h43.5q6.38,0,9.94-2.84t3.58-9.31q0-6.45-3.58-9.3t-9.94-2.84h-23a20.86,20.86,0,0,0-8.57,1.64,16.61,16.61,0,0,0-6.12,4.6,19.92,19.92,0,0,0-3.66,7.15,33.22,33.22,0,0,0-1.2,9.18,31.57,31.57,0,0,0,1.29,9.34,20.09,20.09,0,0,0,3.75,7.11,16.3,16.3,0,0,0,6.11,4.52,20.91,20.91,0,0,0,8.4,1.59H687.8v2.16H652.66a22.69,22.69,0,0,1-9.3-1.81,18.87,18.87,0,0,1-6.81-5.08,22.39,22.39,0,0,1-4.18-7.8,33.57,33.57,0,0,1-1.42-10,34,34,0,0,1,1.42-10.08,22.37,22.37,0,0,1,4.14-7.8,18.52,18.52,0,0,1,6.8-5,22.87,22.87,0,0,1,9.35-1.81h23q7.32,0,11.5,3.53T691.33,104q0,7.24-4.17,10.77t-11.5,3.53Z"/><path class="cls-3" d="M701.58,91.87V89.72H738a28.25,28.25,0,0,1,8.14,1.12,18.5,18.5,0,0,1,6.5,3.36A15.66,15.66,0,0,1,757,99.71a17.57,17.57,0,0,1,1.55,7.58v31.87H713.73q-7.32,0-11.46-3.53t-4.13-10.77q0-7.23,4.13-10.81t11.46-3.58H757.4v2.16H713.73q-6.37,0-9.91,2.88t-3.53,9.35q0,6.46,3.53,9.3t9.91,2.84h42.63V107.29A15.51,15.51,0,0,0,755,100.7a13.51,13.51,0,0,0-3.79-4.87,16.71,16.71,0,0,0-5.77-3,26,26,0,0,0-7.45-1Z"/><path class="cls-3" d="M767,139.16V89.72h38.59A22.77,22.77,0,0,1,815,91.53a18.85,18.85,0,0,1,6.8,5,22,22,0,0,1,4.18,7.8,33.68,33.68,0,0,1,1.42,10.08,33.25,33.25,0,0,1-1.42,10,22,22,0,0,1-4.22,7.8,19.27,19.27,0,0,1-6.85,5.08,22.69,22.69,0,0,1-9.3,1.81ZM769.2,137h36.43a20.91,20.91,0,0,0,8.4-1.59,16.81,16.81,0,0,0,6.16-4.52,19.84,19.84,0,0,0,3.79-7.11A34.78,34.78,0,0,0,824,105a20.09,20.09,0,0,0-3.75-7.11,15.92,15.92,0,0,0-6.16-4.48,21.75,21.75,0,0,0-8.44-1.55H769.2Z"/><path class="cls-3" d="M835.43,118.31v-2.15h43.5q6.38,0,10-2.84t3.57-9.31q0-6.45-3.57-9.3t-10-2.84h-23a20.86,20.86,0,0,0-8.57,1.64,16.49,16.49,0,0,0-6.11,4.6,19.61,19.61,0,0,0-3.66,7.15,32.84,32.84,0,0,0-1.21,9.18,31.57,31.57,0,0,0,1.29,9.34,20.09,20.09,0,0,0,3.75,7.11,16.38,16.38,0,0,0,6.11,4.52,20.91,20.91,0,0,0,8.4,1.59h35.14v2.16H855.93a22.69,22.69,0,0,1-9.3-1.81,18.87,18.87,0,0,1-6.81-5.08,22.54,22.54,0,0,1-4.17-7.8,33.25,33.25,0,0,1-1.42-10,33.68,33.68,0,0,1,1.42-10.08,22.36,22.36,0,0,1,4.13-7.8,18.47,18.47,0,0,1,6.81-5,22.79,22.79,0,0,1,9.34-1.81h23q7.32,0,11.5,3.53T894.6,104q0,7.24-4.17,10.77t-11.5,3.53Z"/><path class="cls-3" d="M902.27,139.16V89.72H947q7.32,0,11.5,3.53T962.65,104q0,7.24-4.18,10.77T947,118.31H903.39v-2.15H947q6.38,0,9.95-2.84T960.5,104q0-6.45-3.58-9.3T947,91.87H904.42v47.29Zm36.87-21.11h3.27l24.46,21.11H963.6Z"/><path class="cls-2" d="M935.52,863.29l-1.21,1.81L898,841.93h3.62Zm27-21.36v49.44h-2.15V845.12l-55.73,46.25h-3.27l59.43-49.44Z"/><path class="cls-2" d="M893.31,862.77v2.16H849.82q-6.37,0-10,2.84t-3.58,9.3q0,6.46,3.58,9.3t10,2.85h23a20.83,20.83,0,0,0,8.57-1.64A16.64,16.64,0,0,0,887.5,883a19.45,19.45,0,0,0,3.66-7.15,33.09,33.09,0,0,0,1.21-9.17,31.63,31.63,0,0,0-1.3-9.35,20.27,20.27,0,0,0-3.74-7.1,16.44,16.44,0,0,0-6.12-4.53,20.91,20.91,0,0,0-8.4-1.59H837.67v-2.15h35.14a22.55,22.55,0,0,1,9.31,1.81,18.72,18.72,0,0,1,6.8,5.08,22.35,22.35,0,0,1,4.18,7.79,33.32,33.32,0,0,1,1.42,10,33.78,33.78,0,0,1-1.42,10.08,22.24,22.24,0,0,1-4.14,7.79,18.57,18.57,0,0,1-6.8,5,22.84,22.84,0,0,1-9.35,1.81h-23q-7.32,0-11.5-3.53t-4.18-10.77q0-7.23,4.18-10.77t11.5-3.53Z"/><path class="cls-2" d="M823.89,889.22v2.15H787.46a28.5,28.5,0,0,1-8.14-1.12,18.8,18.8,0,0,1-6.51-3.36,15.63,15.63,0,0,1-4.3-5.51A17.46,17.46,0,0,1,767,873.8V841.93h44.79q7.32,0,11.45,3.53t4.14,10.77q0,7.23-4.14,10.81t-11.45,3.57H768.08v-2.15h43.67q6.38,0,9.9-2.89t3.53-9.34q0-6.47-3.53-9.31t-9.9-2.84H769.11V873.8a15.7,15.7,0,0,0,1.33,6.59,13.58,13.58,0,0,0,3.79,4.86,16.76,16.76,0,0,0,5.78,3,26,26,0,0,0,7.45,1Z"/><path class="cls-2" d="M724,891.37h-2.16V866.65a32.73,32.73,0,0,0-1.25-9.39,19.33,19.33,0,0,0-3.74-7.15,16.49,16.49,0,0,0-6.16-4.48,21.44,21.44,0,0,0-8.4-1.55H665.41v-2.15h36.86a22.87,22.87,0,0,1,9.35,1.81,18.35,18.35,0,0,1,6.8,5,22.24,22.24,0,0,1,4.14,7.79A34,34,0,0,1,724,866.65Z"/><path class="cls-2" d="M636.9,841.93a22.53,22.53,0,0,1,9.3,1.81,18.63,18.63,0,0,1,6.8,5.08,22.35,22.35,0,0,1,4.18,7.79,33.32,33.32,0,0,1,1.42,10,33.78,33.78,0,0,1-1.42,10.08,22.38,22.38,0,0,1-4.13,7.79,18.6,18.6,0,0,1-6.81,5,22.79,22.79,0,0,1-9.34,1.81H620a22.72,22.72,0,0,1-9.38-1.81,19.12,19.12,0,0,1-6.81-5,21.83,21.83,0,0,1-4.18-7.79,34.1,34.1,0,0,1-1.42-10.08,33.68,33.68,0,0,1,1.42-10,22.23,22.23,0,0,1,4.18-7.84,18.75,18.75,0,0,1,6.81-5.08,22.3,22.3,0,0,1,9.21-1.81Zm-17.06,2.15a20.67,20.67,0,0,0-8.31,1.59,16.44,16.44,0,0,0-6.12,4.53,20.27,20.27,0,0,0-3.74,7.1,31.64,31.64,0,0,0-1.29,9.35,32.11,32.11,0,0,0,1.29,9.39,20.34,20.34,0,0,0,3.74,7.15,15.9,15.9,0,0,0,6.16,4.47,21.6,21.6,0,0,0,8.44,1.56H636.9a21.21,21.21,0,0,0,8.39-1.56,16.2,16.2,0,0,0,6.16-4.47A19.27,19.27,0,0,0,655.2,876a33.18,33.18,0,0,0,1.25-9.39,31.64,31.64,0,0,0-1.29-9.35,20.13,20.13,0,0,0-3.75-7.1,16.36,16.36,0,0,0-6.12-4.53,20.86,20.86,0,0,0-8.39-1.59Z"/><path class="cls-2" d="M574.36,868.46v2.15H546.72q-7.32,0-11.5-3.57T531,856.23v-14.3h38.67a22.84,22.84,0,0,1,9.35,1.81,18.27,18.27,0,0,1,6.8,5,22.24,22.24,0,0,1,4.14,7.79,33.68,33.68,0,0,1,1.42,10.08,33.25,33.25,0,0,1-1.42,10,22.3,22.3,0,0,1-4.18,7.8,18.83,18.83,0,0,1-6.8,5.08,22.55,22.55,0,0,1-9.31,1.81H534.57v-2.15h35.14a20.91,20.91,0,0,0,8.4-1.6,16.42,16.42,0,0,0,6.12-4.52A20.23,20.23,0,0,0,588,876a31.24,31.24,0,0,0,1.3-9.34,33.09,33.09,0,0,0-1.25-9.39,19.34,19.34,0,0,0-3.75-7.15,16.41,16.41,0,0,0-6.16-4.48,21.44,21.44,0,0,0-8.4-1.55H533.19v12.15q0,6.45,3.58,9.34t10,2.89Z"/><path class="cls-2" d="M502.53,841.93a22.53,22.53,0,0,1,9.3,1.81,18.75,18.75,0,0,1,6.81,5.08,22.17,22.17,0,0,1,4.17,7.79,33.31,33.31,0,0,1,1.43,10,33.77,33.77,0,0,1-1.43,10.08,22.06,22.06,0,0,1-4.13,7.79,18.65,18.65,0,0,1-6.8,5,22.87,22.87,0,0,1-9.35,1.81H485.65a22.77,22.77,0,0,1-9.39-1.81,19,19,0,0,1-6.8-5,21.83,21.83,0,0,1-4.18-7.79,33.78,33.78,0,0,1-1.42-10.08,33.36,33.36,0,0,1,1.42-10,22.23,22.23,0,0,1,4.18-7.84,18.63,18.63,0,0,1,6.8-5.08,22.31,22.31,0,0,1,9.22-1.81Zm-17,2.15a20.75,20.75,0,0,0-8.32,1.59,16.33,16.33,0,0,0-6.11,4.53,20.13,20.13,0,0,0-3.75,7.1,31.64,31.64,0,0,0-1.29,9.35A32.11,32.11,0,0,0,467.3,876a20.19,20.19,0,0,0,3.75,7.15,15.83,15.83,0,0,0,6.16,4.47,21.57,21.57,0,0,0,8.44,1.56h16.88a21.26,21.26,0,0,0,8.4-1.56,16.36,16.36,0,0,0,6.16-4.47,19.41,19.41,0,0,0,3.74-7.15,32.83,32.83,0,0,0,1.25-9.39,31.64,31.64,0,0,0-1.29-9.35,20.13,20.13,0,0,0-3.75-7.1,16.33,16.33,0,0,0-6.11-4.53,20.91,20.91,0,0,0-8.4-1.59Z"/><path class="cls-2" d="M421.74,841.93v49.44h-2.16V870.61H367v20.76H364.8V841.93H367v26.53h52.62V841.93Z"/><path class="cls-2" d="M355.93,862.77v2.16H312.44q-6.37,0-9.95,2.84t-3.58,9.3q0,6.46,3.58,9.3t9.95,2.85h23a20.83,20.83,0,0,0,8.57-1.64,16.64,16.64,0,0,0,6.12-4.61,19.45,19.45,0,0,0,3.66-7.15,33.09,33.09,0,0,0,1.21-9.17,31.31,31.31,0,0,0-1.3-9.35,20.27,20.27,0,0,0-3.74-7.1,16.44,16.44,0,0,0-6.12-4.53,20.91,20.91,0,0,0-8.4-1.59H300.29v-2.15h35.14a22.55,22.55,0,0,1,9.31,1.81,18.72,18.72,0,0,1,6.8,5.08,22.35,22.35,0,0,1,4.18,7.79,33.32,33.32,0,0,1,1.42,10,33.78,33.78,0,0,1-1.42,10.08,22.24,22.24,0,0,1-4.14,7.79,18.57,18.57,0,0,1-6.8,5,22.84,22.84,0,0,1-9.35,1.81h-23q-7.32,0-11.5-3.53t-4.18-10.77q0-7.23,4.18-10.77t11.5-3.53Z"/><path class="cls-2" d="M286.51,889.22v2.15H250.08a28.5,28.5,0,0,1-8.14-1.12,18.8,18.8,0,0,1-6.51-3.36,15.63,15.63,0,0,1-4.3-5.51,17.46,17.46,0,0,1-1.55-7.58V841.93h44.79q7.32,0,11.45,3.53T290,856.23q0,7.23-4.14,10.81t-11.45,3.57H230.7v-2.15h43.67q6.38,0,9.9-2.89t3.53-9.34q0-6.47-3.53-9.31t-9.9-2.84H231.73V873.8a15.7,15.7,0,0,0,1.33,6.59,13.58,13.58,0,0,0,3.79,4.86,16.76,16.76,0,0,0,5.78,3,26,26,0,0,0,7.45,1Z"/><path class="cls-2" d="M221.05,841.93v49.44H182.46a22.77,22.77,0,0,1-9.39-1.81,19.08,19.08,0,0,1-6.8-5,21.83,21.83,0,0,1-4.18-7.79,33.78,33.78,0,0,1-1.42-10.08,33.32,33.32,0,0,1,1.42-10,22.1,22.1,0,0,1,4.22-7.79,19.16,19.16,0,0,1,6.85-5.08,22.53,22.53,0,0,1,9.3-1.81Zm-2.15,2.15H182.46a20.94,20.94,0,0,0-8.4,1.59,16.71,16.71,0,0,0-6.15,4.53,19.72,19.72,0,0,0-3.79,7.1,34.56,34.56,0,0,0,0,18.78,20.41,20.41,0,0,0,3.74,7.11,15.9,15.9,0,0,0,6.16,4.47,21.57,21.57,0,0,0,8.44,1.56H218.9Z"/><path class="cls-2" d="M152.66,862.77v2.16h-43.5q-6.37,0-9.94,2.84t-3.58,9.3q0,6.46,3.58,9.3t9.94,2.85h23a20.86,20.86,0,0,0,8.57-1.64,16.64,16.64,0,0,0,6.12-4.61,19.75,19.75,0,0,0,3.66-7.15,33.09,33.09,0,0,0,1.2-9.17,31.64,31.64,0,0,0-1.29-9.35,20.13,20.13,0,0,0-3.75-7.1,16.33,16.33,0,0,0-6.11-4.53,20.91,20.91,0,0,0-8.4-1.59H97v-2.15h35.14a22.5,22.5,0,0,1,9.3,1.81,18.75,18.75,0,0,1,6.81,5.08,22.35,22.35,0,0,1,4.18,7.79,33.64,33.64,0,0,1,1.42,10,34.1,34.1,0,0,1-1.42,10.08,22.24,22.24,0,0,1-4.14,7.79,18.65,18.65,0,0,1-6.8,5,22.87,22.87,0,0,1-9.35,1.81h-23q-7.32,0-11.5-3.53t-4.17-10.77q0-7.23,4.17-10.77t11.5-3.53Z"/><path class="cls-2" d="M49,863H45.68l-24.46-21.1H24.5Zm36.86-21.1v49.44H41.12q-7.32,0-11.5-3.53t-4.18-10.77q0-7.23,4.18-10.77t11.5-3.53H84.7v2.16H41.12q-6.37,0-9.95,2.84t-3.57,9.3q0,6.46,3.57,9.3t9.95,2.85H83.67V841.93Z"/><path class="cls-3" d="M25.53,207.25V157.81h2.93v45.05l53.75-45.05h4.47L27.94,207.25Zm26.87-21L54,183.82l36.18,23.43h-5Z"/><path class="cls-3" d="M95.12,186.84v-2.93h43.16q6,0,9.34-2.76t3.32-8.87q0-6-3.32-8.79t-9.34-2.75h-23a20,20,0,0,0-8.27,1.59,15.65,15.65,0,0,0-5.86,4.48,19.46,19.46,0,0,0-3.48,6.89,31.39,31.39,0,0,0-1.17,8.83,30.59,30.59,0,0,0,1.25,9.09,18.75,18.75,0,0,0,3.66,6.8,16.53,16.53,0,0,0,5.9,4.35,19.51,19.51,0,0,0,8,1.55h35.14v2.93H115.28a22.53,22.53,0,0,1-9.3-1.81,18.75,18.75,0,0,1-6.81-5.08,22.3,22.3,0,0,1-4.18-7.8,33.57,33.57,0,0,1-1.42-10A34.1,34.1,0,0,1,95,172.45a22.24,22.24,0,0,1,4.14-7.79,18.43,18.43,0,0,1,6.8-5,22.87,22.87,0,0,1,9.35-1.81h23q7.32,0,11.5,3.62T154,172.28q0,7.23-4.17,10.9t-11.5,3.66Z"/><path class="cls-3" d="M164.2,160.74v-2.93h36.44a28.25,28.25,0,0,1,8.14,1.12,18.84,18.84,0,0,1,6.5,3.36,15.66,15.66,0,0,1,4.31,5.51,17.57,17.57,0,0,1,1.55,7.58v31.87H176.35q-7.32,0-11.46-3.62t-4.13-10.85q0-7.23,4.13-10.9t11.46-3.66h43.24v2.93H176.35q-6,0-9.35,2.76t-3.31,8.87q0,6.12,3.31,8.83t9.35,2.71h41.77V175.38a14.79,14.79,0,0,0-1.25-6.24,12.59,12.59,0,0,0-3.53-4.57,16.23,16.23,0,0,0-5.51-2.84,24.46,24.46,0,0,0-7.19-1Z"/><path class="cls-3" d="M264.12,157.81H267v24.72a31,31,0,0,0,1.25,9.13,19.21,19.21,0,0,0,3.62,6.85,15.68,15.68,0,0,0,5.9,4.3,20.11,20.11,0,0,0,8,1.51h36.87v2.93H285.82a22.79,22.79,0,0,1-9.34-1.81,18.38,18.38,0,0,1-6.81-5,22.06,22.06,0,0,1-4.13-7.79,33.78,33.78,0,0,1-1.42-10.08Z"/><path class="cls-3" d="M351.2,207.25a22.55,22.55,0,0,1-9.31-1.81,18.72,18.72,0,0,1-6.8-5.08,22.3,22.3,0,0,1-4.18-7.8,33.25,33.25,0,0,1-1.42-10,33.78,33.78,0,0,1,1.42-10.08,22.24,22.24,0,0,1,4.14-7.79,18.27,18.27,0,0,1,6.8-5,22.84,22.84,0,0,1,9.35-1.81h16.88a22.77,22.77,0,0,1,9.39,1.81,18.85,18.85,0,0,1,6.8,5,21.83,21.83,0,0,1,4.18,7.79,33.78,33.78,0,0,1,1.42,10.08,33.36,33.36,0,0,1-1.42,10,22.23,22.23,0,0,1-4.18,7.84,18.72,18.72,0,0,1-6.8,5.08,22.31,22.31,0,0,1-9.22,1.81Zm17.05-2.93a19.24,19.24,0,0,0,7.88-1.55,16.28,16.28,0,0,0,5.86-4.31,18.82,18.82,0,0,0,3.62-6.84,34.08,34.08,0,0,0,0-18.22,19.37,19.37,0,0,0-3.62-6.85,15.7,15.7,0,0,0-5.86-4.3,20,20,0,0,0-8.05-1.51H351.2a20.11,20.11,0,0,0-8,1.51,15.53,15.53,0,0,0-5.9,4.3,19.21,19.21,0,0,0-3.62,6.85,31,31,0,0,0-1.25,9.13,30.59,30.59,0,0,0,1.25,9.09,18.75,18.75,0,0,0,3.66,6.8,16.44,16.44,0,0,0,5.9,4.35,19.47,19.47,0,0,0,8,1.55Z"/><path class="cls-3" d="M413.73,181.15v-2.93h27.65q7.32,0,11.5,3.66t4.17,10.9v14.47H418.38a22.87,22.87,0,0,1-9.35-1.81,18.43,18.43,0,0,1-6.8-5,22.24,22.24,0,0,1-4.14-7.79,34.1,34.1,0,0,1-1.42-10.08,33.57,33.57,0,0,1,1.42-10,22.3,22.3,0,0,1,4.18-7.8,18.75,18.75,0,0,1,6.81-5.08,22.5,22.5,0,0,1,9.3-1.81h35.14v2.93H418.38a19.34,19.34,0,0,0-8,1.55,16.53,16.53,0,0,0-5.9,4.35,18.75,18.75,0,0,0-3.66,6.8,30.59,30.59,0,0,0-1.25,9.09,31,31,0,0,0,1.25,9.13,19.21,19.21,0,0,0,3.62,6.85,15.6,15.6,0,0,0,5.9,4.3,20.11,20.11,0,0,0,8,1.51H454V192.78q0-6.12-3.32-8.87t-9.34-2.76Z"/><path class="cls-3" d="M485.56,207.25a22.53,22.53,0,0,1-9.3-1.81,18.63,18.63,0,0,1-6.8-5.08,22.3,22.3,0,0,1-4.18-7.8,33.25,33.25,0,0,1-1.42-10,33.78,33.78,0,0,1,1.42-10.08,22.22,22.22,0,0,1,4.13-7.79,18.38,18.38,0,0,1,6.81-5,22.79,22.79,0,0,1,9.34-1.81h16.88a22.77,22.77,0,0,1,9.39,1.81,18.88,18.88,0,0,1,6.81,5,21.81,21.81,0,0,1,4.17,7.79,33.77,33.77,0,0,1,1.43,10.08,33.35,33.35,0,0,1-1.43,10,22.21,22.21,0,0,1-4.17,7.84,18.75,18.75,0,0,1-6.81,5.08,22.3,22.3,0,0,1-9.21,1.81Zm17.06-2.93a19.27,19.27,0,0,0,7.88-1.55,16.33,16.33,0,0,0,5.85-4.31,18.67,18.67,0,0,0,3.62-6.84,33.82,33.82,0,0,0,0-18.22,19.21,19.21,0,0,0-3.62-6.85,15.74,15.74,0,0,0-5.85-4.3,20.09,20.09,0,0,0-8.06-1.51H485.56a20.18,20.18,0,0,0-8,1.51,15.68,15.68,0,0,0-5.9,4.3A19.37,19.37,0,0,0,468,173.4a31,31,0,0,0-1.24,9.13,30.6,30.6,0,0,0,1.24,9.09,19.05,19.05,0,0,0,3.66,6.8,16.48,16.48,0,0,0,5.91,4.35,19.46,19.46,0,0,0,8,1.55Z"/><path class="cls-3" d="M566.35,207.25V157.81h2.93v20.41h51V157.81h3v49.44h-3v-26.1h-51v26.1Z"/><path class="cls-3" d="M632.5,186.84v-2.93h43.16q6,0,9.34-2.76t3.32-8.87q0-6-3.32-8.79t-9.34-2.75h-23a20,20,0,0,0-8.27,1.59,15.65,15.65,0,0,0-5.86,4.48,19.46,19.46,0,0,0-3.48,6.89,31.39,31.39,0,0,0-1.17,8.83,30.59,30.59,0,0,0,1.25,9.09,18.75,18.75,0,0,0,3.66,6.8,16.53,16.53,0,0,0,5.9,4.35,19.51,19.51,0,0,0,8,1.55H687.8v2.93H652.66a22.53,22.53,0,0,1-9.3-1.81,18.75,18.75,0,0,1-6.81-5.08,22.3,22.3,0,0,1-4.18-7.8,33.57,33.57,0,0,1-1.42-10,34.1,34.1,0,0,1,1.42-10.08,22.24,22.24,0,0,1,4.14-7.79,18.43,18.43,0,0,1,6.8-5,22.87,22.87,0,0,1,9.35-1.81h23q7.32,0,11.5,3.62t4.17,10.85q0,7.23-4.17,10.9t-11.5,3.66Z"/><path class="cls-3" d="M701.58,160.74v-2.93H738a28.25,28.25,0,0,1,8.14,1.12,18.84,18.84,0,0,1,6.5,3.36A15.66,15.66,0,0,1,757,167.8a17.57,17.57,0,0,1,1.55,7.58v31.87H713.73q-7.32,0-11.46-3.62t-4.13-10.85q0-7.23,4.13-10.9t11.46-3.66H757v2.93H713.73q-6,0-9.35,2.76t-3.31,8.87q0,6.12,3.31,8.83t9.35,2.71H755.5V175.38a14.79,14.79,0,0,0-1.25-6.24,12.59,12.59,0,0,0-3.53-4.57,16.23,16.23,0,0,0-5.51-2.84,24.46,24.46,0,0,0-7.19-1Z"/><path class="cls-3" d="M767,207.25V157.81h38.59a22.77,22.77,0,0,1,9.39,1.81,18.76,18.76,0,0,1,6.8,5,21.83,21.83,0,0,1,4.18,7.79,33.78,33.78,0,0,1,1.42,10.08,33.25,33.25,0,0,1-1.42,10,21.9,21.9,0,0,1-4.22,7.8,19.16,19.16,0,0,1-6.85,5.08,22.53,22.53,0,0,1-9.3,1.81Zm2.93-2.93h35.66a19.51,19.51,0,0,0,8-1.55,16.53,16.53,0,0,0,5.9-4.35,18.9,18.9,0,0,0,3.66-6.8,30.59,30.59,0,0,0,1.25-9.09,31,31,0,0,0-1.25-9.13,19.21,19.21,0,0,0-3.62-6.85,15.7,15.7,0,0,0-5.86-4.3,20,20,0,0,0-8-1.51H770Z"/><path class="cls-3" d="M835.78,186.84v-2.93h43.15q6,0,9.34-2.76t3.32-8.87q0-6-3.32-8.79t-9.34-2.75h-23a20,20,0,0,0-8.27,1.59,15.7,15.7,0,0,0-5.85,4.48,19.48,19.48,0,0,0-3.49,6.89,31.39,31.39,0,0,0-1.17,8.83,30.59,30.59,0,0,0,1.25,9.09,18.9,18.9,0,0,0,3.66,6.8,16.53,16.53,0,0,0,5.9,4.35,19.51,19.51,0,0,0,8,1.55h35.14v2.93H855.93a22.53,22.53,0,0,1-9.3-1.81,18.75,18.75,0,0,1-6.81-5.08,22.45,22.45,0,0,1-4.17-7.8,33.25,33.25,0,0,1-1.42-10,33.78,33.78,0,0,1,1.42-10.08,22.22,22.22,0,0,1,4.13-7.79,18.38,18.38,0,0,1,6.81-5,22.79,22.79,0,0,1,9.34-1.81h23q7.32,0,11.5,3.62t4.17,10.85q0,7.23-4.17,10.9t-11.5,3.66Z"/><path class="cls-3" d="M902.27,207.25V157.81H947q7.32,0,11.5,3.62t4.18,10.85q0,7.23-4.18,10.9T947,186.84H903.73v-2.93H947q6,0,9.35-2.76t3.32-8.87q0-6-3.32-8.79T947,160.74H905.2v46.51Zm35.92-20.76h4.56l24.12,20.76h-4.48Z"/><path class="cls-2" d="M935.69,794.85l-1.55,2.41L898,773.84h5Zm26.87-21v49.44h-2.93v-45l-53.74,45h-4.48l58.74-49.44Z"/><path class="cls-2" d="M893,794.25v2.93H849.82q-6,0-9.35,2.75t-3.32,8.88q0,6,3.32,8.78t9.35,2.76h23a19.81,19.81,0,0,0,8.27-1.6,15.63,15.63,0,0,0,5.86-4.47,19.69,19.69,0,0,0,3.49-6.9,31.75,31.75,0,0,0,1.16-8.82,30.59,30.59,0,0,0-1.25-9.09,18.87,18.87,0,0,0-3.66-6.81,16.68,16.68,0,0,0-5.9-4.35,19.47,19.47,0,0,0-8-1.55H837.67v-2.92h35.14a22.71,22.71,0,0,1,9.31,1.8,18.74,18.74,0,0,1,6.8,5.09,22.35,22.35,0,0,1,4.18,7.79,33.32,33.32,0,0,1,1.42,10,33.66,33.66,0,0,1-1.42,10.07,22.2,22.2,0,0,1-4.14,7.8,18.57,18.57,0,0,1-6.8,5,23,23,0,0,1-9.35,1.81h-23q-7.32,0-11.5-3.62t-4.18-10.85q0-7.24,4.18-10.9t11.5-3.66Z"/><path class="cls-2" d="M823.89,820.35v2.93H787.46a28.5,28.5,0,0,1-8.14-1.12,18.8,18.8,0,0,1-6.51-3.36,15.66,15.66,0,0,1-4.3-5.52A17.39,17.39,0,0,1,767,805.7V773.84h44.79q7.32,0,11.45,3.61t4.14,10.86q0,7.23-4.14,10.89t-11.45,3.66H768.51v-2.93h43.24q6,0,9.34-2.75t3.32-8.87q0-6.12-3.32-8.83t-9.34-2.72H770V805.7a14.84,14.84,0,0,0,1.25,6.25,12.48,12.48,0,0,0,3.53,4.56,16.07,16.07,0,0,0,5.51,2.85,24.53,24.53,0,0,0,7.2,1Z"/><path class="cls-2" d="M724,823.28h-2.93V798.56a31,31,0,0,0-1.25-9.13,19.13,19.13,0,0,0-3.62-6.85,15.63,15.63,0,0,0-5.9-4.31,20.28,20.28,0,0,0-8-1.51H665.41v-2.92h36.86a23,23,0,0,1,9.35,1.8,18.57,18.57,0,0,1,6.8,5,22.28,22.28,0,0,1,4.14,7.8A34,34,0,0,1,724,798.56Z"/><path class="cls-2" d="M636.9,773.84a22.69,22.69,0,0,1,9.3,1.8,18.66,18.66,0,0,1,6.8,5.09,22.35,22.35,0,0,1,4.18,7.79,33.32,33.32,0,0,1,1.42,10,33.66,33.66,0,0,1-1.42,10.07,22.34,22.34,0,0,1-4.13,7.8,18.6,18.6,0,0,1-6.81,5,23,23,0,0,1-9.34,1.81H620a22.88,22.88,0,0,1-9.38-1.81,19.12,19.12,0,0,1-6.81-5,21.79,21.79,0,0,1-4.18-7.8,36.17,36.17,0,0,1,0-20.07,22.27,22.27,0,0,1,4.18-7.83,18.78,18.78,0,0,1,6.81-5.09,22.46,22.46,0,0,1,9.21-1.8Zm-17.06,2.92a19.27,19.27,0,0,0-7.88,1.55,16.49,16.49,0,0,0-5.86,4.31,18.85,18.85,0,0,0-3.61,6.85,33.82,33.82,0,0,0,0,18.22,19.31,19.31,0,0,0,3.61,6.84,15.8,15.8,0,0,0,5.86,4.31,20.24,20.24,0,0,0,8,1.51H636.9a20.35,20.35,0,0,0,8-1.51,15.71,15.71,0,0,0,5.9-4.31,19.15,19.15,0,0,0,3.61-6.84,30.73,30.73,0,0,0,1.25-9.13,30.27,30.27,0,0,0-1.25-9.09,18.87,18.87,0,0,0-3.66-6.81,16.59,16.59,0,0,0-5.9-4.35,19.46,19.46,0,0,0-8-1.55Z"/><path class="cls-2" d="M574.36,799.93v2.93H546.72q-7.32,0-11.5-3.66T531,788.31V773.84h38.67a23,23,0,0,1,9.35,1.8,18.48,18.48,0,0,1,6.8,5,22.28,22.28,0,0,1,4.14,7.8,33.68,33.68,0,0,1,1.42,10.08,33.25,33.25,0,0,1-1.42,10,22.48,22.48,0,0,1-4.18,7.8,18.83,18.83,0,0,1-6.8,5.08,22.71,22.71,0,0,1-9.31,1.81H534.57v-2.93h35.14a19.47,19.47,0,0,0,8-1.55,16.68,16.68,0,0,0,5.9-4.35,18.87,18.87,0,0,0,3.66-6.81,30.57,30.57,0,0,0,1.25-9.08,31,31,0,0,0-1.25-9.13,19.13,19.13,0,0,0-3.62-6.85,15.55,15.55,0,0,0-5.9-4.31,20.28,20.28,0,0,0-8-1.51H534.06v11.55q0,6.11,3.31,8.87t9.35,2.75Z"/><path class="cls-2" d="M502.53,773.84a22.69,22.69,0,0,1,9.3,1.8,18.78,18.78,0,0,1,6.81,5.09,22.17,22.17,0,0,1,4.17,7.79,33.31,33.31,0,0,1,1.43,10,33.66,33.66,0,0,1-1.43,10.07,22,22,0,0,1-4.13,7.8,18.65,18.65,0,0,1-6.8,5,23,23,0,0,1-9.35,1.81H485.65a22.93,22.93,0,0,1-9.39-1.81,19,19,0,0,1-6.8-5,21.79,21.79,0,0,1-4.18-7.8,36.17,36.17,0,0,1,0-20.07,22.27,22.27,0,0,1,4.18-7.83,18.66,18.66,0,0,1,6.8-5.09,22.47,22.47,0,0,1,9.22-1.8Zm-17,2.92a19.24,19.24,0,0,0-7.88,1.55,16.4,16.4,0,0,0-5.86,4.31,18.71,18.71,0,0,0-3.62,6.85,33.82,33.82,0,0,0,0,18.22,19.16,19.16,0,0,0,3.62,6.84,15.72,15.72,0,0,0,5.86,4.31,20.17,20.17,0,0,0,8,1.51h16.88a20.28,20.28,0,0,0,8-1.51,15.63,15.63,0,0,0,5.9-4.31,19.16,19.16,0,0,0,3.62-6.84,31.06,31.06,0,0,0,1.25-9.13,30.59,30.59,0,0,0-1.25-9.09,18.87,18.87,0,0,0-3.66-6.81,16.77,16.77,0,0,0-5.9-4.35,19.51,19.51,0,0,0-8-1.55Z"/><path class="cls-2" d="M421.74,773.84v49.44h-2.93V802.86h-51v20.42h-3V773.84h3v26.09h51V773.84Z"/><path class="cls-2" d="M355.59,794.25v2.93H312.44q-6,0-9.35,2.75t-3.32,8.88q0,6,3.32,8.78t9.35,2.76h23a19.81,19.81,0,0,0,8.27-1.6,15.63,15.63,0,0,0,5.86-4.47,19.69,19.69,0,0,0,3.49-6.9,31.75,31.75,0,0,0,1.16-8.82,30.59,30.59,0,0,0-1.25-9.09,18.87,18.87,0,0,0-3.66-6.81,16.68,16.68,0,0,0-5.9-4.35,19.47,19.47,0,0,0-8-1.55H300.29v-2.92h35.14a22.71,22.71,0,0,1,9.31,1.8,18.74,18.74,0,0,1,6.8,5.09,22.35,22.35,0,0,1,4.18,7.79,33.32,33.32,0,0,1,1.42,10,33.66,33.66,0,0,1-1.42,10.07,22.2,22.2,0,0,1-4.14,7.8,18.57,18.57,0,0,1-6.8,5,23,23,0,0,1-9.35,1.81h-23q-7.32,0-11.5-3.62t-4.18-10.85q0-7.24,4.18-10.9t11.5-3.66Z"/><path class="cls-2" d="M286.51,820.35v2.93H250.08a28.5,28.5,0,0,1-8.14-1.12,18.8,18.8,0,0,1-6.51-3.36,15.66,15.66,0,0,1-4.3-5.52,17.39,17.39,0,0,1-1.55-7.58V773.84h44.79q7.32,0,11.45,3.61T290,788.31q0,7.23-4.14,10.89t-11.45,3.66H231.13v-2.93h43.24q6,0,9.34-2.75t3.32-8.87q0-6.12-3.32-8.83t-9.34-2.72H232.59V805.7a14.84,14.84,0,0,0,1.25,6.25,12.48,12.48,0,0,0,3.53,4.56,16.07,16.07,0,0,0,5.51,2.85,24.53,24.53,0,0,0,7.2,1Z"/><path class="cls-2" d="M221.05,773.84v49.44H182.46a22.93,22.93,0,0,1-9.39-1.81,19.08,19.08,0,0,1-6.8-5,21.79,21.79,0,0,1-4.18-7.8,33.66,33.66,0,0,1-1.42-10.07,33.32,33.32,0,0,1,1.42-10,22.1,22.1,0,0,1,4.22-7.79,19.18,19.18,0,0,1,6.85-5.09,22.69,22.69,0,0,1,9.3-1.8Zm-2.93,2.92H182.46a19.54,19.54,0,0,0-8,1.55,16.77,16.77,0,0,0-5.9,4.35,19.18,19.18,0,0,0-3.66,6.81,30.59,30.59,0,0,0-1.25,9.09,31.06,31.06,0,0,0,1.25,9.13,19.32,19.32,0,0,0,3.62,6.84,15.72,15.72,0,0,0,5.86,4.31,20.21,20.21,0,0,0,8.05,1.51h35.66Z"/><path class="cls-2" d="M152.32,794.25v2.93H109.16q-6,0-9.34,2.75t-3.32,8.88q0,6,3.32,8.78t9.34,2.76h23a19.81,19.81,0,0,0,8.27-1.6,15.63,15.63,0,0,0,5.86-4.47,19.51,19.51,0,0,0,3.48-6.9,31.37,31.37,0,0,0,1.17-8.82,30.59,30.59,0,0,0-1.25-9.09,18.87,18.87,0,0,0-3.66-6.81,16.77,16.77,0,0,0-5.9-4.35,19.51,19.51,0,0,0-8-1.55H97v-2.92h35.14a22.66,22.66,0,0,1,9.3,1.8,18.78,18.78,0,0,1,6.81,5.09,22.35,22.35,0,0,1,4.18,7.79,33.64,33.64,0,0,1,1.42,10,34,34,0,0,1-1.42,10.07,22.2,22.2,0,0,1-4.14,7.8,18.65,18.65,0,0,1-6.8,5,23,23,0,0,1-9.35,1.81h-23q-7.32,0-11.5-3.62t-4.17-10.85q0-7.24,4.17-10.9t11.5-3.66Z"/><path class="cls-2" d="M49.9,794.59H45.34L21.22,773.84H25.7Zm35.92-20.75v49.44H41.12q-7.32,0-11.5-3.62t-4.18-10.85q0-7.24,4.18-10.9t11.5-3.66H84.36v2.93H41.12q-6,0-9.35,2.75t-3.31,8.88q0,6,3.31,8.78t9.35,2.76H82.89V773.84Z"/><path class="cls-3" d="M25.53,275.34V225.9h3.88v43.67L80.65,225.9h6L28.63,275.34Zm26.61-20.5,2.07-3.36,35.92,23.86H83.5Z"/><path class="cls-3" d="M95.64,255.36v-3.88h42.64c3.73,0,6.61-.84,8.65-2.54s3.06-4.46,3.06-8.31-1-6.54-3.06-8.27-4.92-2.58-8.65-2.58h-23a18.82,18.82,0,0,0-7.93,1.55,15,15,0,0,0-5.55,4.31,18.31,18.31,0,0,0-3.27,6.58,31,31,0,0,0-1.08,8.4,29.37,29.37,0,0,0,1.21,8.79,18.17,18.17,0,0,0,3.48,6.54,15,15,0,0,0,5.6,4.1,19.13,19.13,0,0,0,7.54,1.42h35.14v3.87H115.28a22.53,22.53,0,0,1-9.3-1.81,18.64,18.64,0,0,1-6.81-5.08A22.35,22.35,0,0,1,95,260.66a33.64,33.64,0,0,1-1.42-10A34,34,0,0,1,95,240.55a22.2,22.2,0,0,1,4.14-7.8,18.65,18.65,0,0,1,6.8-5,23,23,0,0,1,9.35-1.81h23q7.32,0,11.5,3.75t4.17,11c0,4.82-1.39,8.49-4.17,11s-6.62,3.75-11.5,3.75Z"/><path class="cls-3" d="M164.2,229.78V225.9h36.44a28.6,28.6,0,0,1,8.14,1.12,18.84,18.84,0,0,1,6.5,3.36,15.75,15.75,0,0,1,4.31,5.51,17.6,17.6,0,0,1,1.55,7.58v31.87H176.35q-7.32,0-11.46-3.74t-4.13-11q0-7.23,4.13-11t11.46-3.79h42.81v3.88H176.35c-3.74,0-6.62.86-8.66,2.58s-3.06,4.51-3.06,8.35,1,6.62,3.06,8.32,4.92,2.54,8.66,2.54h40.82v-28a14.2,14.2,0,0,0-1.12-5.81,11,11,0,0,0-3.31-4.26,16.23,16.23,0,0,0-5.21-2.67,22.73,22.73,0,0,0-6.89-.95Z"/><path class="cls-3" d="M264.12,225.9H268v24.72a29.74,29.74,0,0,0,1.21,8.83,18.12,18.12,0,0,0,3.44,6.55,14.92,14.92,0,0,0,5.6,4.05,19.43,19.43,0,0,0,7.58,1.42h36.87v3.87H285.82a22.79,22.79,0,0,1-9.34-1.81,18.47,18.47,0,0,1-6.81-5,22.19,22.19,0,0,1-4.13-7.8,33.68,33.68,0,0,1-1.42-10.08Z"/><path class="cls-3" d="M351.2,275.34a22.55,22.55,0,0,1-9.31-1.81,18.61,18.61,0,0,1-6.8-5.08,22.35,22.35,0,0,1-4.18-7.79,33.32,33.32,0,0,1-1.42-10,33.66,33.66,0,0,1,1.42-10.07,22.2,22.2,0,0,1,4.14-7.8,18.48,18.48,0,0,1,6.8-5,23,23,0,0,1,9.35-1.81h16.88a22.93,22.93,0,0,1,9.39,1.81,19.08,19.08,0,0,1,6.8,5,21.79,21.79,0,0,1,4.18,7.8,36.13,36.13,0,0,1,0,20.06,22.23,22.23,0,0,1-4.18,7.84,18.61,18.61,0,0,1-6.8,5.08,22.31,22.31,0,0,1-9.22,1.81Zm17.05-3.87a18.85,18.85,0,0,0,7.45-1.42,14.7,14.7,0,0,0,5.56-4.1,18.58,18.58,0,0,0,3.44-6.54,29.37,29.37,0,0,0,1.21-8.79,29.83,29.83,0,0,0-1.21-8.83,18.16,18.16,0,0,0-3.44-6.54,15,15,0,0,0-5.56-4.05,19.14,19.14,0,0,0-7.62-1.42H351.2a19.22,19.22,0,0,0-7.58,1.42,14.84,14.84,0,0,0-5.6,4.05,18.17,18.17,0,0,0-3.45,6.54,30.18,30.18,0,0,0-1.2,8.83,29.71,29.71,0,0,0,1.2,8.79,18.34,18.34,0,0,0,3.49,6.54,15,15,0,0,0,5.6,4.1,19.09,19.09,0,0,0,7.54,1.42Z"/><path class="cls-3" d="M413.73,249.68V245.8h27.65q7.32,0,11.5,3.79t4.17,11v14.73H418.38a22.87,22.87,0,0,1-9.35-1.81,18.52,18.52,0,0,1-6.8-5,22.37,22.37,0,0,1-4.14-7.8,34,34,0,0,1-1.42-10.08,33.57,33.57,0,0,1,1.42-10,22.39,22.39,0,0,1,4.18-7.8,18.87,18.87,0,0,1,6.81-5.08,22.66,22.66,0,0,1,9.3-1.81h35.14v3.88H418.38a18.92,18.92,0,0,0-7.54,1.42,15.08,15.08,0,0,0-5.6,4.09,18.22,18.22,0,0,0-3.48,6.55,29.3,29.3,0,0,0-1.21,8.78,29.74,29.74,0,0,0,1.21,8.83A18.12,18.12,0,0,0,405.2,266a14.84,14.84,0,0,0,5.6,4.05,19.4,19.4,0,0,0,7.58,1.42h34.71V260.61c0-3.84-1-6.63-3.06-8.35s-4.92-2.58-8.65-2.58Z"/><path class="cls-3" d="M485.56,275.34a22.53,22.53,0,0,1-9.3-1.81,18.52,18.52,0,0,1-6.8-5.08,22.35,22.35,0,0,1-4.18-7.79,33.32,33.32,0,0,1-1.42-10,33.66,33.66,0,0,1,1.42-10.07,22.18,22.18,0,0,1,4.13-7.8,18.6,18.6,0,0,1,6.81-5,23,23,0,0,1,9.34-1.81h16.88a22.93,22.93,0,0,1,9.39,1.81,19.12,19.12,0,0,1,6.81,5,21.77,21.77,0,0,1,4.17,7.8,35.89,35.89,0,0,1,0,20.06,22.21,22.21,0,0,1-4.17,7.84,18.64,18.64,0,0,1-6.81,5.08,22.3,22.3,0,0,1-9.21,1.81Zm17.06-3.87a18.88,18.88,0,0,0,7.45-1.42,14.59,14.59,0,0,0,5.55-4.1,18.6,18.6,0,0,0,3.45-6.54,29.71,29.71,0,0,0,1.2-8.79,30.18,30.18,0,0,0-1.2-8.83,18.17,18.17,0,0,0-3.45-6.54,14.9,14.9,0,0,0-5.55-4.05,19.19,19.19,0,0,0-7.63-1.42H485.56A19.25,19.25,0,0,0,478,231.2a14.92,14.92,0,0,0-5.6,4.05,18.16,18.16,0,0,0-3.44,6.54,29.83,29.83,0,0,0-1.21,8.83,29.37,29.37,0,0,0,1.21,8.79,18,18,0,0,0,3.49,6.54,14.92,14.92,0,0,0,5.6,4.1,19.08,19.08,0,0,0,7.53,1.42Z"/><path class="cls-3" d="M566.35,275.34V225.9h3.88v19.9h49.1V225.9h4v49.44h-4V249.68h-49.1v25.66Z"/><path class="cls-3" d="M633,255.36v-3.88h42.64c3.73,0,6.61-.84,8.65-2.54s3.06-4.46,3.06-8.31-1-6.54-3.06-8.27-4.92-2.58-8.65-2.58h-23a18.82,18.82,0,0,0-7.93,1.55,15,15,0,0,0-5.55,4.31,18.31,18.31,0,0,0-3.27,6.58,31,31,0,0,0-1.08,8.4,29.37,29.37,0,0,0,1.21,8.79,18.17,18.17,0,0,0,3.48,6.54,15,15,0,0,0,5.6,4.1,19.13,19.13,0,0,0,7.54,1.42H687.8v3.87H652.66a22.53,22.53,0,0,1-9.3-1.81,18.64,18.64,0,0,1-6.81-5.08,22.35,22.35,0,0,1-4.18-7.79,33.64,33.64,0,0,1-1.42-10,34,34,0,0,1,1.42-10.07,22.2,22.2,0,0,1,4.14-7.8,18.65,18.65,0,0,1,6.8-5,23,23,0,0,1,9.35-1.81h23q7.32,0,11.5,3.75t4.17,11c0,4.82-1.39,8.49-4.17,11s-6.62,3.75-11.5,3.75Z"/><path class="cls-3" d="M701.58,229.78V225.9H738a28.6,28.6,0,0,1,8.14,1.12,18.84,18.84,0,0,1,6.5,3.36,15.75,15.75,0,0,1,4.31,5.51,17.6,17.6,0,0,1,1.55,7.58v31.87H713.73q-7.32,0-11.46-3.74t-4.13-11q0-7.23,4.13-11t11.46-3.79h42.81v3.88H713.73c-3.74,0-6.62.86-8.66,2.58s-3.06,4.51-3.06,8.35,1,6.62,3.06,8.32,4.92,2.54,8.66,2.54h40.82v-28a14.2,14.2,0,0,0-1.12-5.81,11,11,0,0,0-3.31-4.26,16.23,16.23,0,0,0-5.21-2.67,22.73,22.73,0,0,0-6.89-.95Z"/><path class="cls-3" d="M767,275.34V225.9h38.59a22.93,22.93,0,0,1,9.39,1.81,19,19,0,0,1,6.8,5,21.79,21.79,0,0,1,4.18,7.8,33.66,33.66,0,0,1,1.42,10.07,33.32,33.32,0,0,1-1.42,10,21.94,21.94,0,0,1-4.22,7.79,19,19,0,0,1-6.85,5.08,22.53,22.53,0,0,1-9.3,1.81Zm3.88-3.87h34.71a19.13,19.13,0,0,0,7.54-1.42,15.08,15.08,0,0,0,5.6-4.1,18.17,18.17,0,0,0,3.48-6.54,29.37,29.37,0,0,0,1.21-8.79,29.69,29.69,0,0,0-1.21-8.87,18.22,18.22,0,0,0-3.44-6.5,14.93,14.93,0,0,0-5.56-4.05,19.14,19.14,0,0,0-7.62-1.42H770.92Z"/><path class="cls-3" d="M836.29,255.36v-3.88h42.64c3.73,0,6.62-.84,8.66-2.54s3-4.46,3-8.31-1-6.54-3-8.27-4.93-2.58-8.66-2.58h-23a18.81,18.81,0,0,0-7.92,1.55,15,15,0,0,0-5.56,4.31,18.47,18.47,0,0,0-3.27,6.58,31,31,0,0,0-1.08,8.4,29.37,29.37,0,0,0,1.21,8.79A18,18,0,0,0,842.8,266a15,15,0,0,0,5.59,4.1,19.13,19.13,0,0,0,7.54,1.42h35.14v3.87H855.93a22.53,22.53,0,0,1-9.3-1.81,18.64,18.64,0,0,1-6.81-5.08,22.49,22.49,0,0,1-4.17-7.79,33.32,33.32,0,0,1-1.42-10,33.66,33.66,0,0,1,1.42-10.07,22.18,22.18,0,0,1,4.13-7.8,18.6,18.6,0,0,1,6.81-5,23,23,0,0,1,9.34-1.81h23q7.32,0,11.5,3.75t4.17,11c0,4.82-1.39,8.49-4.17,11s-6.62,3.75-11.5,3.75Z"/><path class="cls-3" d="M902.27,275.34V225.9H947q7.32,0,11.5,3.75t4.18,11c0,4.82-1.39,8.49-4.18,11s-6.62,3.75-11.5,3.75H904.25v-3.88H947c3.74,0,6.62-.84,8.66-2.54s3.06-4.46,3.06-8.31-1-6.54-3.06-8.27-4.92-2.58-8.66-2.58H906.15v45.56Zm34.8-20.41h6l23.77,20.41h-6Z"/><path class="cls-2" d="M936,726.24l-2.07,3.36L898,705.74h6.64Zm26.61-20.5v49.44h-3.87V711.51l-51.25,43.67h-6l58.05-49.44Z"/><path class="cls-2" d="M892.45,725.73v3.87H849.82c-3.74,0-6.62.85-8.66,2.54s-3.06,4.47-3.06,8.31,1,6.55,3.06,8.27,4.92,2.59,8.66,2.59h23a18.82,18.82,0,0,0,7.93-1.55,15,15,0,0,0,5.55-4.31,18.37,18.37,0,0,0,3.28-6.59,31.25,31.25,0,0,0,1.07-8.4,29.64,29.64,0,0,0-1.2-8.78,18.39,18.39,0,0,0-3.49-6.55,15.08,15.08,0,0,0-5.6-4.09,18.92,18.92,0,0,0-7.54-1.42H837.67v-3.88h35.14a22.71,22.71,0,0,1,9.31,1.81,18.83,18.83,0,0,1,6.8,5.08,22.39,22.39,0,0,1,4.18,7.8,33.25,33.25,0,0,1,1.42,10,33.68,33.68,0,0,1-1.42,10.08,22.37,22.37,0,0,1-4.14,7.8,18.43,18.43,0,0,1-6.8,5,22.84,22.84,0,0,1-9.35,1.81h-23q-7.32,0-11.5-3.74t-4.18-11q0-7.23,4.18-11t11.5-3.74Z"/><path class="cls-2" d="M823.89,751.31v3.87H787.46a28.15,28.15,0,0,1-8.14-1.12,18.46,18.46,0,0,1-6.51-3.36,15.63,15.63,0,0,1-4.3-5.51,17.43,17.43,0,0,1-1.55-7.58V705.74h44.79q7.32,0,11.45,3.75t4.14,11q0,7.24-4.14,11t-11.45,3.79H768.94v-3.88h42.81q5.6,0,8.65-2.58c2-1.73,3.06-4.51,3.06-8.36s-1-6.62-3.06-8.31-4.92-2.54-8.65-2.54H770.92v28a14.29,14.29,0,0,0,1.12,5.82,11,11,0,0,0,3.31,4.26,16.33,16.33,0,0,0,5.21,2.67,23.11,23.11,0,0,0,6.9.95Z"/><path class="cls-2" d="M724,755.18H720.1V730.46a29.83,29.83,0,0,0-1.21-8.83,18.16,18.16,0,0,0-3.44-6.54,14.84,14.84,0,0,0-5.6-4.05,19.22,19.22,0,0,0-7.58-1.42H665.41v-3.88h36.86a23,23,0,0,1,9.35,1.81,18.57,18.57,0,0,1,6.8,5,22.2,22.2,0,0,1,4.14,7.8A34,34,0,0,1,724,730.46Z"/><path class="cls-2" d="M636.9,705.74a22.69,22.69,0,0,1,9.3,1.81,18.75,18.75,0,0,1,6.8,5.08,22.39,22.39,0,0,1,4.18,7.8,33.25,33.25,0,0,1,1.42,10,33.68,33.68,0,0,1-1.42,10.08,22.52,22.52,0,0,1-4.13,7.8,18.47,18.47,0,0,1-6.81,5,22.79,22.79,0,0,1-9.34,1.81H620a22.72,22.72,0,0,1-9.38-1.81,19,19,0,0,1-6.81-5,22,22,0,0,1-4.18-7.8,36.17,36.17,0,0,1,0-20.07,22.41,22.41,0,0,1,4.18-7.84,18.87,18.87,0,0,1,6.81-5.08,22.46,22.46,0,0,1,9.21-1.81Zm-17.06,3.88a18.71,18.71,0,0,0-7.45,1.42,14.67,14.67,0,0,0-5.55,4.09,18.65,18.65,0,0,0-3.45,6.55,29.63,29.63,0,0,0-1.21,8.78,30.07,30.07,0,0,0,1.21,8.83,18.22,18.22,0,0,0,3.45,6.55,14.9,14.9,0,0,0,5.55,4,19.32,19.32,0,0,0,7.62,1.42H636.9a19.43,19.43,0,0,0,7.58-1.42,14.8,14.8,0,0,0,5.59-4,18.07,18.07,0,0,0,3.45-6.55,30.07,30.07,0,0,0,1.21-8.83,29.63,29.63,0,0,0-1.21-8.78,18.23,18.23,0,0,0-3.49-6.55,15.08,15.08,0,0,0-5.6-4.09,18.9,18.9,0,0,0-7.53-1.42Z"/><path class="cls-2" d="M574.36,731.41v3.88H546.72q-7.32,0-11.5-3.79t-4.18-11V705.74h38.67a23,23,0,0,1,9.35,1.81,18.48,18.48,0,0,1,6.8,5,22.2,22.2,0,0,1,4.14,7.8,33.66,33.66,0,0,1,1.42,10.07,33.32,33.32,0,0,1-1.42,10,22.35,22.35,0,0,1-4.18,7.79,18.72,18.72,0,0,1-6.8,5.08,22.55,22.55,0,0,1-9.31,1.81H534.57v-3.87h35.14a19.09,19.09,0,0,0,7.54-1.42,15.11,15.11,0,0,0,5.6-4.1,18.42,18.42,0,0,0,3.49-6.54,29.71,29.71,0,0,0,1.2-8.79,30.18,30.18,0,0,0-1.2-8.83,18.17,18.17,0,0,0-3.45-6.54,14.84,14.84,0,0,0-5.6-4.05,19.22,19.22,0,0,0-7.58-1.42H535v10.85c0,3.85,1,6.63,3.06,8.36s4.92,2.58,8.66,2.58Z"/><path class="cls-2" d="M502.53,705.74a22.69,22.69,0,0,1,9.3,1.81,18.87,18.87,0,0,1,6.81,5.08,22.21,22.21,0,0,1,4.17,7.8,33.25,33.25,0,0,1,1.43,10,33.68,33.68,0,0,1-1.43,10.08,22.19,22.19,0,0,1-4.13,7.8,18.52,18.52,0,0,1-6.8,5,22.87,22.87,0,0,1-9.35,1.81H485.65a22.77,22.77,0,0,1-9.39-1.81,18.85,18.85,0,0,1-6.8-5,22,22,0,0,1-4.18-7.8,36.17,36.17,0,0,1,0-20.07,22.41,22.41,0,0,1,4.18-7.84,18.75,18.75,0,0,1,6.8-5.08,22.47,22.47,0,0,1,9.22-1.81Zm-17,3.88A18.67,18.67,0,0,0,478,711a14.7,14.7,0,0,0-5.56,4.09,18.81,18.81,0,0,0-3.45,6.55,29.64,29.64,0,0,0-1.2,8.78,30.08,30.08,0,0,0,1.2,8.83,18.38,18.38,0,0,0,3.45,6.55,14.93,14.93,0,0,0,5.56,4,19.32,19.32,0,0,0,7.62,1.42h16.88a19.43,19.43,0,0,0,7.58-1.42,14.84,14.84,0,0,0,5.6-4,18.21,18.21,0,0,0,3.44-6.55,29.74,29.74,0,0,0,1.21-8.83,29.3,29.3,0,0,0-1.21-8.78,18.22,18.22,0,0,0-3.48-6.55,15.16,15.16,0,0,0-5.6-4.09,19,19,0,0,0-7.54-1.42Z"/><path class="cls-2" d="M421.74,705.74v49.44h-3.88V735.29H368.77v19.89h-4V705.74h4v25.67h49.09V705.74Z"/><path class="cls-2" d="M355.07,725.73v3.87H312.44c-3.74,0-6.62.85-8.66,2.54s-3.06,4.47-3.06,8.31,1,6.55,3.06,8.27,4.92,2.59,8.66,2.59h23a18.82,18.82,0,0,0,7.93-1.55,15,15,0,0,0,5.55-4.31,18.37,18.37,0,0,0,3.28-6.59,31.25,31.25,0,0,0,1.07-8.4,29.64,29.64,0,0,0-1.2-8.78,18.39,18.39,0,0,0-3.49-6.55A15.08,15.08,0,0,0,343,711a18.92,18.92,0,0,0-7.54-1.42H300.29v-3.88h35.14a22.71,22.71,0,0,1,9.31,1.81,18.83,18.83,0,0,1,6.8,5.08,22.39,22.39,0,0,1,4.18,7.8,33.25,33.25,0,0,1,1.42,10,33.68,33.68,0,0,1-1.42,10.08,22.37,22.37,0,0,1-4.14,7.8,18.43,18.43,0,0,1-6.8,5,22.84,22.84,0,0,1-9.35,1.81h-23q-7.32,0-11.5-3.74t-4.18-11q0-7.23,4.18-11t11.5-3.74Z"/><path class="cls-2" d="M286.51,751.31v3.87H250.08a28.15,28.15,0,0,1-8.14-1.12,18.46,18.46,0,0,1-6.51-3.36,15.63,15.63,0,0,1-4.3-5.51,17.43,17.43,0,0,1-1.55-7.58V705.74h44.79q7.32,0,11.45,3.75t4.14,11q0,7.24-4.14,11t-11.45,3.79H231.56v-3.88h42.81q5.6,0,8.65-2.58c2-1.73,3.06-4.51,3.06-8.36s-1-6.62-3.06-8.31-4.92-2.54-8.65-2.54H233.54v28a14.29,14.29,0,0,0,1.12,5.82,11,11,0,0,0,3.31,4.26,16.33,16.33,0,0,0,5.21,2.67,23.11,23.11,0,0,0,6.9.95Z"/><path class="cls-2" d="M221.05,705.74v49.44H182.46a22.77,22.77,0,0,1-9.39-1.81,18.94,18.94,0,0,1-6.8-5,22,22,0,0,1-4.18-7.8,33.68,33.68,0,0,1-1.42-10.08,33.25,33.25,0,0,1,1.42-10,22.14,22.14,0,0,1,4.22-7.8,19.27,19.27,0,0,1,6.85-5.08,22.69,22.69,0,0,1,9.3-1.81Zm-3.88,3.88H182.46a18.9,18.9,0,0,0-7.53,1.42,15.08,15.08,0,0,0-5.6,4.09,18.23,18.23,0,0,0-3.49,6.55,29.3,29.3,0,0,0-1.21,8.78,29.64,29.64,0,0,0,1.21,8.87,18.18,18.18,0,0,0,3.44,6.51,15,15,0,0,0,5.56,4,19.32,19.32,0,0,0,7.62,1.42h34.71Z"/><path class="cls-2" d="M151.8,725.73v3.87H109.16q-5.59,0-8.65,2.54t-3.06,8.31q0,5.68,3.06,8.27t8.65,2.59h23a18.82,18.82,0,0,0,7.93-1.55,15.11,15.11,0,0,0,5.55-4.31,18.36,18.36,0,0,0,3.27-6.59,30.84,30.84,0,0,0,1.08-8.4,29.3,29.3,0,0,0-1.21-8.78,18.22,18.22,0,0,0-3.48-6.55,15.08,15.08,0,0,0-5.6-4.09,18.92,18.92,0,0,0-7.54-1.42H97v-3.88h35.14a22.66,22.66,0,0,1,9.3,1.81,18.87,18.87,0,0,1,6.81,5.08,22.39,22.39,0,0,1,4.18,7.8,33.57,33.57,0,0,1,1.42,10,34,34,0,0,1-1.42,10.08,22.37,22.37,0,0,1-4.14,7.8,18.52,18.52,0,0,1-6.8,5,22.87,22.87,0,0,1-9.35,1.81h-23q-7.32,0-11.5-3.74t-4.17-11q0-7.23,4.17-11t11.5-3.74Z"/><path class="cls-2" d="M51,726.16H45L21.22,705.74h6Zm34.8-20.42v49.44H41.12q-7.32,0-11.5-3.74t-4.18-11q0-7.23,4.18-11t11.5-3.74H83.84v3.87H41.12q-5.59,0-8.66,2.54c-2,1.7-3.06,4.47-3.06,8.31s1,6.55,3.06,8.27,4.93,2.59,8.66,2.59H82V705.74Z"/><path class="cls-3" d="M25.53,343.44V294h5.08v41.86L78.85,294h7.83l-57.1,49.44Zm26.27-19.9,2.67-4.39,35.66,24.29H81.52Z"/><path class="cls-3" d="M96.16,324.06V319h42.12q5.07,0,7.79-2.32t2.71-7.58q0-5.34-2.71-7.67t-7.79-2.32h-23a17.87,17.87,0,0,0-7.49,1.46,13.68,13.68,0,0,0-5.22,4.09,17.47,17.47,0,0,0-3,6.21,30.41,30.41,0,0,0-.94,7.79,29.25,29.25,0,0,0,1.11,8.48,17.11,17.11,0,0,0,3.24,6.16,13.38,13.38,0,0,0,5.21,3.79,18.21,18.21,0,0,0,7.06,1.29h35.14v5.09H115.28a22.69,22.69,0,0,1-9.3-1.81,18.87,18.87,0,0,1-6.81-5.08,22.39,22.39,0,0,1-4.18-7.8,33.57,33.57,0,0,1-1.42-10A34,34,0,0,1,95,308.64a22.37,22.37,0,0,1,4.14-7.8,18.65,18.65,0,0,1,6.8-5,23,23,0,0,1,9.35-1.8h23q7.32,0,11.45,3.92t4.14,11.15q0,7.23-4.14,11.11t-11.45,3.88Z"/><path class="cls-3" d="M164.2,299.08V294h36.44a27.76,27.76,0,0,1,8.09,1.12,18.64,18.64,0,0,1,6.46,3.35A15.67,15.67,0,0,1,219.5,304a17.57,17.57,0,0,1,1.55,7.58v31.87h-44.7q-7.32,0-11.46-3.92c-2.75-2.62-4.13-6.33-4.13-11.16s1.38-8.54,4.13-11.15,6.58-3.92,11.46-3.92h42.2v5.08h-42.2q-5.08,0-7.8,2.37t-2.71,7.62q0,5.34,2.71,7.67t7.8,2.32H216V311.57a13.33,13.33,0,0,0-1-5.26,10.31,10.31,0,0,0-3-4,13.19,13.19,0,0,0-4.83-2.45,23.53,23.53,0,0,0-6.54-.82Z"/><path class="cls-3" d="M264.12,294h5.08v24.72a30.61,30.61,0,0,0,1.07,8.44,16.06,16.06,0,0,0,3.23,6.16,14.17,14.17,0,0,0,5.26,3.74,18.25,18.25,0,0,0,7.06,1.29h36.87v5.09H285.82a23,23,0,0,1-9.34-1.81,18.6,18.6,0,0,1-6.81-5,22,22,0,0,1-4.13-7.8,33.66,33.66,0,0,1-1.42-10.07Z"/><path class="cls-3" d="M351.28,343.44a22.69,22.69,0,0,1-9.3-1.81,18.87,18.87,0,0,1-6.81-5.08,22.38,22.38,0,0,1-4.17-7.8,33.25,33.25,0,0,1-1.42-10A33.68,33.68,0,0,1,331,308.64a22.19,22.19,0,0,1,4.13-7.8,18.6,18.6,0,0,1,6.81-5,23,23,0,0,1,9.34-1.8h16.88a22.93,22.93,0,0,1,9.39,1.8,18.67,18.67,0,0,1,6.76,5,22.37,22.37,0,0,1,4.14,7.8,36.17,36.17,0,0,1,0,20.07,22.84,22.84,0,0,1-4.14,7.84,18.44,18.44,0,0,1-6.76,5.08,22.46,22.46,0,0,1-9.21,1.81Zm17.06-5.09a18,18,0,0,0,7-1.29,13.38,13.38,0,0,0,5.21-3.79,16.59,16.59,0,0,0,3.19-6.16,29.7,29.7,0,0,0,1.08-8.39,30.12,30.12,0,0,0-1.08-8.44,16.21,16.21,0,0,0-3.19-6.16,13.59,13.59,0,0,0-5.25-3.75,18.61,18.61,0,0,0-7.11-1.29H351.28a18.25,18.25,0,0,0-7.06,1.29,14.09,14.09,0,0,0-5.26,3.75,16,16,0,0,0-3.23,6.16,30.51,30.51,0,0,0-1.07,8.44,28.6,28.6,0,0,0,1.12,8.39,17,17,0,0,0,3.23,6.16,13.38,13.38,0,0,0,5.21,3.79,18.25,18.25,0,0,0,7.06,1.29Z"/><path class="cls-3" d="M413.81,318.37v-5.08h27.65q7.32,0,11.46,3.92t4.13,11.15v15.08H418.46a23,23,0,0,1-9.34-1.81,18.6,18.6,0,0,1-6.81-5,22.34,22.34,0,0,1-4.13-7.8,33.66,33.66,0,0,1-1.42-10.07,33.32,33.32,0,0,1,1.42-10,22.35,22.35,0,0,1,4.18-7.79,18.66,18.66,0,0,1,6.8-5.09,22.69,22.69,0,0,1,9.3-1.8h35.15v5.08H418.46a18.25,18.25,0,0,0-7.06,1.29,13.46,13.46,0,0,0-5.21,3.79,17.27,17.27,0,0,0-3.23,6.16,28.62,28.62,0,0,0-1.12,8.4,30.22,30.22,0,0,0,1.08,8.44,15.93,15.93,0,0,0,3.23,6.16,14.06,14.06,0,0,0,5.25,3.74,18.25,18.25,0,0,0,7.06,1.29H452v-10q0-5.25-2.71-7.62t-7.8-2.37Z"/><path class="cls-3" d="M485.65,343.44a22.63,22.63,0,0,1-9.3-1.81,18.87,18.87,0,0,1-6.81-5.08,22.39,22.39,0,0,1-4.18-7.8,33.57,33.57,0,0,1-1.42-10,34,34,0,0,1,1.42-10.08,22.37,22.37,0,0,1,4.14-7.8,18.57,18.57,0,0,1,6.8-5,23,23,0,0,1,9.35-1.8h16.88a22.93,22.93,0,0,1,9.39,1.8,18.67,18.67,0,0,1,6.76,5,22.19,22.19,0,0,1,4.13,7.8,35.92,35.92,0,0,1,0,20.07,22.65,22.65,0,0,1-4.13,7.84,18.44,18.44,0,0,1-6.76,5.08,22.47,22.47,0,0,1-9.22,1.81Zm17.05-5.09a18,18,0,0,0,7-1.29,13.46,13.46,0,0,0,5.21-3.79,16.59,16.59,0,0,0,3.19-6.16,30.09,30.09,0,0,0,1.07-8.39,30.51,30.51,0,0,0-1.07-8.44,16.21,16.21,0,0,0-3.19-6.16,13.66,13.66,0,0,0-5.25-3.75,18.61,18.61,0,0,0-7.11-1.29H485.65a18.21,18.21,0,0,0-7.06,1.29,14.09,14.09,0,0,0-5.26,3.75,15.85,15.85,0,0,0-3.23,6.16,30.12,30.12,0,0,0-1.08,8.44,28.94,28.94,0,0,0,1.12,8.39,17.26,17.26,0,0,0,3.23,6.16,13.49,13.49,0,0,0,5.22,3.79,18.21,18.21,0,0,0,7.06,1.29Z"/><path class="cls-3" d="M566.44,343.44V294h5.08v19.29h46.69V294h5.08v49.44h-5.08V318.37H571.52v25.07Z"/><path class="cls-3" d="M633.62,324.06V319h42.12q5.09,0,7.8-2.32t2.71-7.58q0-5.34-2.71-7.67t-7.8-2.32h-23a17.9,17.9,0,0,0-7.49,1.46,13.73,13.73,0,0,0-5.21,4.09,17.3,17.3,0,0,0-3,6.21,30.4,30.4,0,0,0-1,7.79,28.9,28.9,0,0,0,1.12,8.48,17.1,17.1,0,0,0,3.23,6.16,13.46,13.46,0,0,0,5.21,3.79,18.25,18.25,0,0,0,7.06,1.29h35.15v5.09H652.74a22.69,22.69,0,0,1-9.3-1.81,18.83,18.83,0,0,1-6.8-5.08,22.39,22.39,0,0,1-4.18-7.8,33.25,33.25,0,0,1-1.42-10,33.68,33.68,0,0,1,1.42-10.08,22.37,22.37,0,0,1,4.14-7.8,18.48,18.48,0,0,1,6.8-5,23,23,0,0,1,9.34-1.8h23q7.32,0,11.46,3.92t4.13,11.15q0,7.23-4.13,11.11t-11.46,3.88Z"/><path class="cls-3" d="M701.67,299.08V294H738.1a27.78,27.78,0,0,1,8.1,1.12,18.64,18.64,0,0,1,6.46,3.35A15.78,15.78,0,0,1,757,304a17.57,17.57,0,0,1,1.55,7.58v31.87H713.81q-7.32,0-11.45-3.92c-2.76-2.62-4.14-6.33-4.14-11.16s1.38-8.54,4.14-11.15,6.57-3.92,11.45-3.92H756v5.08H713.81c-3.39,0-6,.79-7.79,2.37s-2.71,4.12-2.71,7.62.9,6.12,2.71,7.67,4.4,2.32,7.79,2.32h39.62V311.57a13.33,13.33,0,0,0-1-5.26,10.31,10.31,0,0,0-3-4,13.14,13.14,0,0,0-4.82-2.45,23.6,23.6,0,0,0-6.55-.82Z"/><path class="cls-3" d="M767.13,343.44V294h38.59a22.88,22.88,0,0,1,9.38,1.8,18.71,18.71,0,0,1,6.77,5,22.52,22.52,0,0,1,4.13,7.8,33.68,33.68,0,0,1,1.42,10.08,33.25,33.25,0,0,1-1.42,10,22.39,22.39,0,0,1-4.18,7.8,18.83,18.83,0,0,1-6.8,5.08,22.69,22.69,0,0,1-9.3,1.81Zm5.08-5.09h33.51a18.25,18.25,0,0,0,7.06-1.29,13.74,13.74,0,0,0,5.25-3.79,16.22,16.22,0,0,0,3.23-6.16,33.52,33.52,0,0,0,0-16.88,16.34,16.34,0,0,0-3.18-6.11,13.62,13.62,0,0,0-5.26-3.75,18.53,18.53,0,0,0-7.1-1.29H772.21Z"/><path class="cls-3" d="M836.9,324.06V319H879q5.07,0,7.79-2.32t2.71-7.58q0-5.34-2.71-7.67T879,299.08H856a18,18,0,0,0-7.5,1.46,13.73,13.73,0,0,0-5.21,4.09,17.3,17.3,0,0,0-3,6.21,30.4,30.4,0,0,0-1,7.79,29.24,29.24,0,0,0,1.12,8.48,17.26,17.26,0,0,0,3.23,6.16,13.53,13.53,0,0,0,5.21,3.79,18.3,18.3,0,0,0,7.07,1.29h35.14v5.09H856a22.63,22.63,0,0,1-9.3-1.81,18.87,18.87,0,0,1-6.81-5.08,22.39,22.39,0,0,1-4.18-7.8,33.57,33.57,0,0,1-1.42-10,34,34,0,0,1,1.42-10.08,22.37,22.37,0,0,1,4.14-7.8,18.57,18.57,0,0,1,6.8-5A23,23,0,0,1,856,294h23q7.31,0,11.45,3.92t4.13,11.15q0,7.23-4.13,11.11T879,324.06Z"/><path class="cls-3" d="M902.36,343.44V294h44.7q7.32,0,11.46,3.92t4.13,11.15q0,7.23-4.13,11.11t-11.46,3.88H904.94V319h42.12q5.09,0,7.79-2.32t2.72-7.58q0-5.34-2.72-7.67t-7.79-2.32H907.44v44.36Zm33.5-20h7.75l23.35,20h-7.84Z"/><path class="cls-2" d="M936.38,657.55l-2.67,4.39-35.66-24.29h8.61Zm26.27-19.9v49.44h-5.08V645.23l-48.24,41.86h-7.84l57.11-49.44Z"/><path class="cls-2" d="M892,657v5.08H849.9c-3.39,0-6,.78-7.79,2.33s-2.72,4.07-2.72,7.58.91,6.11,2.72,7.66,4.4,2.33,7.79,2.33h23a17.72,17.72,0,0,0,7.49-1.47,13.48,13.48,0,0,0,5.21-4.09,17.44,17.44,0,0,0,3-6.2,30.41,30.41,0,0,0,.94-7.79A29,29,0,0,0,888.4,654a17.11,17.11,0,0,0-3.23-6.16A13.48,13.48,0,0,0,880,644a18.25,18.25,0,0,0-7.06-1.29H837.76v-5.08H872.9a22.53,22.53,0,0,1,9.3,1.81,18.75,18.75,0,0,1,6.81,5.08,22.17,22.17,0,0,1,4.17,7.79,33.32,33.32,0,0,1,1.42,10,33.78,33.78,0,0,1-1.42,10.08,22.06,22.06,0,0,1-4.13,7.79,18.49,18.49,0,0,1-6.81,5,22.79,22.79,0,0,1-9.34,1.81h-23q-7.32,0-11.45-3.92T834.31,672q0-7.24,4.14-11.12T849.9,657Z"/><path class="cls-2" d="M824,682v5.08H787.54a27.66,27.66,0,0,1-8.09-1.12,18.74,18.74,0,0,1-6.46-3.36,15.54,15.54,0,0,1-4.31-5.51,17.43,17.43,0,0,1-1.55-7.58V637.65h44.7q7.32,0,11.46,3.92t4.13,11.15c0,4.83-1.38,8.54-4.13,11.16s-6.58,3.92-11.46,3.92h-42.2v-5.09h42.2q5.08,0,7.8-2.37c1.8-1.57,2.71-4.12,2.71-7.62s-.91-6.11-2.71-7.66-4.41-2.33-7.8-2.33H772.21v26.79a13.28,13.28,0,0,0,1,5.25,10.31,10.31,0,0,0,3,4,13.28,13.28,0,0,0,4.83,2.46,23.85,23.85,0,0,0,6.54.82Z"/><path class="cls-2" d="M724.06,687.09H719V662.37a30.17,30.17,0,0,0-1.08-8.44,15.79,15.79,0,0,0-3.23-6.16,14,14,0,0,0-5.25-3.75,18.25,18.25,0,0,0-7.06-1.29H665.49v-5.08h36.87a22.79,22.79,0,0,1,9.34,1.81,18.38,18.38,0,0,1,6.81,5,22.22,22.22,0,0,1,4.13,7.79,33.68,33.68,0,0,1,1.42,10.08Z"/><path class="cls-2" d="M636.9,637.65a22.53,22.53,0,0,1,9.3,1.81,18.63,18.63,0,0,1,6.8,5.08,22.35,22.35,0,0,1,4.18,7.79,33.32,33.32,0,0,1,1.42,10,33.78,33.78,0,0,1-1.42,10.08,22.22,22.22,0,0,1-4.13,7.79,18.49,18.49,0,0,1-6.81,5,22.79,22.79,0,0,1-9.34,1.81H620a22.77,22.77,0,0,1-9.39-1.81,18.48,18.48,0,0,1-6.76-5,22.24,22.24,0,0,1-4.14-7.79,33.78,33.78,0,0,1-1.42-10.08,33.36,33.36,0,0,1,1.42-10,22.65,22.65,0,0,1,4.14-7.84,18.25,18.25,0,0,1,6.76-5.08,22.3,22.3,0,0,1,9.21-1.81Zm-17.06,5.08a18,18,0,0,0-7,1.29,13.48,13.48,0,0,0-5.21,3.79,16.75,16.75,0,0,0-3.19,6.16,29.73,29.73,0,0,0-1.08,8.4,30.17,30.17,0,0,0,1.08,8.44,16.28,16.28,0,0,0,3.19,6.16,13.62,13.62,0,0,0,5.25,3.75A18.58,18.58,0,0,0,620,682H636.9a18.25,18.25,0,0,0,7.06-1.29,14.08,14.08,0,0,0,5.25-3.75,15.79,15.79,0,0,0,3.23-6.16,30.17,30.17,0,0,0,1.08-8.44,28.62,28.62,0,0,0-1.12-8.4,17.11,17.11,0,0,0-3.23-6.16A13.48,13.48,0,0,0,644,644a18.25,18.25,0,0,0-7.06-1.29Z"/><path class="cls-2" d="M574.36,662.71v5.09H546.72q-7.32,0-11.46-3.92c-2.76-2.62-4.13-6.33-4.13-11.16V637.65h38.58a22.84,22.84,0,0,1,9.35,1.81,18.27,18.27,0,0,1,6.8,5,22.24,22.24,0,0,1,4.14,7.79,33.68,33.68,0,0,1,1.42,10.08,33.25,33.25,0,0,1-1.42,10,22.3,22.3,0,0,1-4.18,7.8,18.83,18.83,0,0,1-6.8,5.08,22.55,22.55,0,0,1-9.31,1.81H534.57V682h35.14a18.26,18.26,0,0,0,7.07-1.29,13.74,13.74,0,0,0,5.21-3.79,17.27,17.27,0,0,0,3.23-6.16,29,29,0,0,0,1.12-8.4,30.17,30.17,0,0,0-1.08-8.44,15.93,15.93,0,0,0-3.23-6.16,14,14,0,0,0-5.25-3.75,18.26,18.26,0,0,0-7.07-1.29h-33.5v10c0,3.5.9,6,2.71,7.62s4.41,2.37,7.8,2.37Z"/><path class="cls-2" d="M502.53,637.65a22.53,22.53,0,0,1,9.3,1.81,18.75,18.75,0,0,1,6.81,5.08,22.17,22.17,0,0,1,4.17,7.79,33.31,33.31,0,0,1,1.43,10,33.77,33.77,0,0,1-1.43,10.08,22.06,22.06,0,0,1-4.13,7.79,18.54,18.54,0,0,1-6.8,5,22.87,22.87,0,0,1-9.35,1.81H485.65a22.77,22.77,0,0,1-9.39-1.81,18.56,18.56,0,0,1-6.76-5,22.24,22.24,0,0,1-4.14-7.79,34.1,34.1,0,0,1-1.42-10.08,33.68,33.68,0,0,1,1.42-10,22.65,22.65,0,0,1,4.14-7.84,18.33,18.33,0,0,1,6.76-5.08,22.31,22.31,0,0,1,9.22-1.81Zm-17,5.08a18,18,0,0,0-7,1.29,13.56,13.56,0,0,0-5.21,3.79A16.75,16.75,0,0,0,470.1,654a29.73,29.73,0,0,0-1.08,8.4,30.17,30.17,0,0,0,1.08,8.44,16.28,16.28,0,0,0,3.19,6.16,13.77,13.77,0,0,0,5.25,3.75,18.61,18.61,0,0,0,7.11,1.29h16.88a18.21,18.21,0,0,0,7.06-1.29,14.2,14.2,0,0,0,5.26-3.75,16.06,16.06,0,0,0,3.23-6.16,30.19,30.19,0,0,0,1.07-8.44A28.62,28.62,0,0,0,518,654a17.11,17.11,0,0,0-3.23-6.16,13.48,13.48,0,0,0-5.21-3.79,18.21,18.21,0,0,0-7.06-1.29Z"/><path class="cls-2" d="M421.74,637.65v49.44h-5.08V667.8H370v19.29h-5.08V637.65H370v25.06h46.69V637.65Z"/><path class="cls-2" d="M354.56,657v5.08H312.44q-5.08,0-7.8,2.33c-1.81,1.55-2.71,4.07-2.71,7.58s.9,6.11,2.71,7.66,4.41,2.33,7.8,2.33h23a17.76,17.76,0,0,0,7.5-1.47,13.63,13.63,0,0,0,5.21-4.09,17.25,17.25,0,0,0,3-6.2,30.4,30.4,0,0,0,.95-7.79,29.31,29.31,0,0,0-1.12-8.49,17.27,17.27,0,0,0-3.23-6.16A13.63,13.63,0,0,0,342.5,644a18.26,18.26,0,0,0-7.07-1.29H300.29v-5.08h35.14a22.55,22.55,0,0,1,9.31,1.81,18.72,18.72,0,0,1,6.8,5.08,22.35,22.35,0,0,1,4.18,7.79,33.32,33.32,0,0,1,1.42,10,33.78,33.78,0,0,1-1.42,10.08,22.24,22.24,0,0,1-4.14,7.79,18.46,18.46,0,0,1-6.8,5,22.84,22.84,0,0,1-9.35,1.81h-23q-7.32,0-11.46-3.92T296.85,672q0-7.24,4.13-11.12T312.44,657Z"/><path class="cls-2" d="M286.51,682v5.08H250.08A27.78,27.78,0,0,1,242,686a18.83,18.83,0,0,1-6.46-3.36,15.66,15.66,0,0,1-4.31-5.51,17.57,17.57,0,0,1-1.55-7.58V637.65h44.71q7.32,0,11.45,3.92T290,652.72c0,4.83-1.38,8.54-4.14,11.16s-6.57,3.92-11.45,3.92H232.16v-5.09h42.21q5.07,0,7.79-2.37c1.81-1.57,2.71-4.12,2.71-7.62s-.9-6.11-2.71-7.66-4.41-2.33-7.79-2.33H234.74v26.79a13.46,13.46,0,0,0,1,5.25,10.44,10.44,0,0,0,3,4,13.31,13.31,0,0,0,4.82,2.46,24,24,0,0,0,6.55.82Z"/><path class="cls-2" d="M221.05,637.65v49.44H182.46a22.77,22.77,0,0,1-9.39-1.81,18.64,18.64,0,0,1-6.76-5,22.22,22.22,0,0,1-4.13-7.79,33.78,33.78,0,0,1-1.42-10.08,33.32,33.32,0,0,1,1.42-10,22.35,22.35,0,0,1,4.18-7.79,18.63,18.63,0,0,1,6.8-5.08,22.53,22.53,0,0,1,9.3-1.81ZM216,642.73H182.46A18.25,18.25,0,0,0,175.4,644a13.85,13.85,0,0,0-5.25,3.79,16.23,16.23,0,0,0-3.23,6.16,30.09,30.09,0,0,0-1.08,8.49,29.7,29.7,0,0,0,1.08,8.39A16.32,16.32,0,0,0,170.1,677a13.73,13.73,0,0,0,5.26,3.75,18.53,18.53,0,0,0,7.1,1.29H216Z"/><path class="cls-2" d="M151.28,657v5.08H109.16q-5.07,0-7.79,2.33c-1.81,1.55-2.71,4.07-2.71,7.58s.9,6.11,2.71,7.66,4.41,2.33,7.79,2.33h23a17.72,17.72,0,0,0,7.49-1.47,13.59,13.59,0,0,0,5.22-4.09,17.25,17.25,0,0,0,3-6.2,30.41,30.41,0,0,0,.94-7.79,29.33,29.33,0,0,0-1.11-8.49,17.28,17.28,0,0,0-3.24-6.16,13.48,13.48,0,0,0-5.21-3.79,18.21,18.21,0,0,0-7.06-1.29H97v-5.08h35.14a22.5,22.5,0,0,1,9.3,1.81,18.75,18.75,0,0,1,6.81,5.08,22.35,22.35,0,0,1,4.18,7.79,33.64,33.64,0,0,1,1.42,10,34.1,34.1,0,0,1-1.42,10.08,22.24,22.24,0,0,1-4.14,7.79,18.54,18.54,0,0,1-6.8,5,22.87,22.87,0,0,1-9.35,1.81h-23q-7.32,0-11.45-3.92T93.57,672q0-7.24,4.14-11.12T109.16,657Z"/><path class="cls-2" d="M52.32,657.63H44.56l-23.34-20h7.84Zm33.5-20v49.44H41.12q-7.32,0-11.46-3.92T25.53,672q0-7.24,4.13-11.12T41.12,657H83.24v5.08H41.12q-5.09,0-7.8,2.33c-1.8,1.55-2.71,4.07-2.71,7.58s.91,6.11,2.71,7.66,4.41,2.33,7.8,2.33H80.74V637.65Z"/><path class="cls-3" d="M25.53,411.53V362.09H32v39.79l44.7-39.79h10l-56,49.44Zm25.93-19.21,3.35-5.6,35.32,24.81h-11Z"/><path class="cls-3" d="M96.85,392.92v-6.54h41.43q4.47,0,6.8-2.11t2.33-6.76q0-4.74-2.33-6.85t-6.8-2.11h-23a16.24,16.24,0,0,0-7,1.38,12.27,12.27,0,0,0-4.74,3.83,16.93,16.93,0,0,0-2.67,5.77,28.74,28.74,0,0,0-.86,7.19,27.46,27.46,0,0,0,1,8,15.79,15.79,0,0,0,3,5.73,12.46,12.46,0,0,0,4.83,3.49,16.74,16.74,0,0,0,6.37,1.16h35.14v6.46H115.28a22.53,22.53,0,0,1-9.3-1.81,18.87,18.87,0,0,1-6.81-5.08,22.3,22.3,0,0,1-4.18-7.8,33.57,33.57,0,0,1-1.42-10A34.1,34.1,0,0,1,95,376.73a22.24,22.24,0,0,1,4.14-7.79,18.43,18.43,0,0,1,6.8-5,22.87,22.87,0,0,1,9.35-1.81h23q7.32,0,11.45,4.09t4.14,11.33q0,7.23-4.14,11.32t-11.45,4.09Z"/><path class="cls-3" d="M164.2,368.55v-6.46h36.44a27.76,27.76,0,0,1,8.09,1.12,18.83,18.83,0,0,1,6.46,3.36,15.54,15.54,0,0,1,4.31,5.51,17.57,17.57,0,0,1,1.55,7.58v31.87h-44.7q-7.32,0-11.46-4.09t-4.13-11.33q0-7.23,4.13-11.32t11.46-4.1h41.43v6.55H176.35q-4.48,0-6.81,2.11t-2.32,6.85q0,4.65,2.32,6.76t6.81,2.11h38.24V379.66a11.77,11.77,0,0,0-.86-4.61,9.2,9.2,0,0,0-2.63-3.49,12.37,12.37,0,0,0-4.39-2.24,21.78,21.78,0,0,0-6.07-.77Z"/><path class="cls-3" d="M264.12,362.09h6.46v24.72a27.53,27.53,0,0,0,1,8,15.71,15.71,0,0,0,3,5.68,12.27,12.27,0,0,0,4.82,3.45,17.18,17.18,0,0,0,6.42,1.16h36.87v6.46H285.82a22.79,22.79,0,0,1-9.34-1.81,18.49,18.49,0,0,1-6.81-5,22.06,22.06,0,0,1-4.13-7.79,33.78,33.78,0,0,1-1.42-10.08Z"/><path class="cls-3" d="M351.28,411.53a22.53,22.53,0,0,1-9.3-1.81,18.87,18.87,0,0,1-6.81-5.08,22.29,22.29,0,0,1-4.17-7.8,33.25,33.25,0,0,1-1.42-10A33.78,33.78,0,0,1,331,376.73a22.06,22.06,0,0,1,4.13-7.79,18.38,18.38,0,0,1,6.81-5,22.79,22.79,0,0,1,9.34-1.81h16.88a22.77,22.77,0,0,1,9.39,1.81,18.45,18.45,0,0,1,6.76,5,22.24,22.24,0,0,1,4.14,7.79,34.1,34.1,0,0,1,1.42,10.08,33.68,33.68,0,0,1-1.42,10,22.75,22.75,0,0,1-4.14,7.84,18.44,18.44,0,0,1-6.76,5.08,22.3,22.3,0,0,1-9.21,1.81Zm17.06-6.46a16.52,16.52,0,0,0,6.28-1.16,12.28,12.28,0,0,0,4.78-3.45,15.57,15.57,0,0,0,3-5.73,31.16,31.16,0,0,0,0-15.89,15.57,15.57,0,0,0-3-5.68,12.28,12.28,0,0,0-4.78-3.45,17,17,0,0,0-6.46-1.16H351.28a17.18,17.18,0,0,0-6.42,1.16,12.27,12.27,0,0,0-4.82,3.45,15.71,15.71,0,0,0-3,5.68,27.53,27.53,0,0,0-1,8,27,27,0,0,0,1,7.92,15.85,15.85,0,0,0,3,5.69,12.46,12.46,0,0,0,4.83,3.49,16.77,16.77,0,0,0,6.37,1.16Z"/><path class="cls-3" d="M413.81,387.24v-6.55h27.65q7.32,0,11.46,4.1t4.13,11.32v15.42H418.46a22.82,22.82,0,0,1-9.34-1.81,18.49,18.49,0,0,1-6.81-5,22.38,22.38,0,0,1-4.13-7.79,33.78,33.78,0,0,1-1.42-10.08,33.25,33.25,0,0,1,1.42-10,22.3,22.3,0,0,1,4.18-7.8,18.63,18.63,0,0,1,6.8-5.08,22.53,22.53,0,0,1,9.3-1.81h35.15v6.46H418.46a16.81,16.81,0,0,0-6.37,1.16,12.5,12.5,0,0,0-4.82,3.49,15.9,15.9,0,0,0-3,5.68,27.1,27.1,0,0,0-1,7.93,27.53,27.53,0,0,0,1,8,15.71,15.71,0,0,0,3,5.68,12.31,12.31,0,0,0,4.83,3.45,17.09,17.09,0,0,0,6.41,1.16h32.13v-9q0-4.65-2.32-6.76t-6.81-2.11Z"/><path class="cls-3" d="M485.65,411.53a22.46,22.46,0,0,1-9.3-1.81,18.87,18.87,0,0,1-6.81-5.08,22.3,22.3,0,0,1-4.18-7.8,33.57,33.57,0,0,1-1.42-10,34.1,34.1,0,0,1,1.42-10.08,22.24,22.24,0,0,1,4.14-7.79,18.35,18.35,0,0,1,6.8-5,22.84,22.84,0,0,1,9.35-1.81h16.88a22.77,22.77,0,0,1,9.39,1.81,18.45,18.45,0,0,1,6.76,5,22.06,22.06,0,0,1,4.13,7.79,33.77,33.77,0,0,1,1.43,10.08,33.35,33.35,0,0,1-1.43,10,22.56,22.56,0,0,1-4.13,7.84,18.44,18.44,0,0,1-6.76,5.08,22.31,22.31,0,0,1-9.22,1.81Zm17.05-6.46a16.54,16.54,0,0,0,6.29-1.16,12.28,12.28,0,0,0,4.78-3.45,15.7,15.7,0,0,0,3-5.73,30.87,30.87,0,0,0,0-15.89,15.71,15.71,0,0,0-3-5.68,12.28,12.28,0,0,0-4.78-3.45,17,17,0,0,0-6.46-1.16H485.65a17.11,17.11,0,0,0-6.42,1.16,12.27,12.27,0,0,0-4.82,3.45,15.71,15.71,0,0,0-3,5.68,27.51,27.51,0,0,0-1,8,27,27,0,0,0,1,7.92,15.85,15.85,0,0,0,3,5.69,12.5,12.5,0,0,0,4.82,3.49,16.82,16.82,0,0,0,6.38,1.16Z"/><path class="cls-3" d="M566.44,411.53V362.09h6.46v18.6h43.93v-18.6h6.46v49.44h-6.46V387.24H572.9v24.29Z"/><path class="cls-3" d="M634.31,392.92v-6.54h41.43q4.49,0,6.81-2.11t2.32-6.76q0-4.74-2.32-6.85t-6.81-2.11h-23a16.23,16.23,0,0,0-7,1.38,12.27,12.27,0,0,0-4.74,3.83,16.57,16.57,0,0,0-2.67,5.77,28.74,28.74,0,0,0-.86,7.19,27.48,27.48,0,0,0,1,8,15.8,15.8,0,0,0,3,5.73,12.5,12.5,0,0,0,4.82,3.49,16.81,16.81,0,0,0,6.37,1.16h35.15v6.46H652.74a22.53,22.53,0,0,1-9.3-1.81,18.83,18.83,0,0,1-6.8-5.08,22.3,22.3,0,0,1-4.18-7.8,33.25,33.25,0,0,1-1.42-10,33.78,33.78,0,0,1,1.42-10.08,22.24,22.24,0,0,1,4.14-7.79,18.27,18.27,0,0,1,6.8-5,22.82,22.82,0,0,1,9.34-1.81h23q7.32,0,11.46,4.09t4.13,11.33q0,7.23-4.13,11.32t-11.46,4.09Z"/><path class="cls-3" d="M701.67,368.55v-6.46H738.1a27.78,27.78,0,0,1,8.1,1.12,18.83,18.83,0,0,1,6.46,3.36,15.66,15.66,0,0,1,4.31,5.51,17.57,17.57,0,0,1,1.55,7.58v31.87H713.81q-7.32,0-11.45-4.09t-4.14-11.33q0-7.23,4.14-11.32t11.45-4.1h41.43v6.55H713.81q-4.47,0-6.8,2.11t-2.33,6.85q0,4.65,2.33,6.76t6.8,2.11h38.25V379.66a11.59,11.59,0,0,0-.87-4.61,9.17,9.17,0,0,0-2.62-3.49,12.37,12.37,0,0,0-4.39-2.24,21.85,21.85,0,0,0-6.08-.77Z"/><path class="cls-3" d="M767.13,411.53V362.09h38.59a22.72,22.72,0,0,1,9.38,1.81,18.49,18.49,0,0,1,6.77,5,22.38,22.38,0,0,1,4.13,7.79,33.78,33.78,0,0,1,1.42,10.08,33.25,33.25,0,0,1-1.42,10,22.3,22.3,0,0,1-4.18,7.8,18.83,18.83,0,0,1-6.8,5.08,22.53,22.53,0,0,1-9.3,1.81Zm6.46-6.46h32.13a16.81,16.81,0,0,0,6.37-1.16,12.5,12.5,0,0,0,4.82-3.49,15.8,15.8,0,0,0,3-5.73,27.48,27.48,0,0,0,1-8,27.18,27.18,0,0,0-1-7.88,15.71,15.71,0,0,0-3-5.68,12.43,12.43,0,0,0-4.78-3.45,17.06,17.06,0,0,0-6.46-1.16H773.59Z"/><path class="cls-3" d="M837.59,392.92v-6.54H879q4.47,0,6.8-2.11t2.32-6.76q0-4.74-2.32-6.85t-6.8-2.11H856a16.24,16.24,0,0,0-7,1.38,12.27,12.27,0,0,0-4.74,3.83,16.93,16.93,0,0,0-2.67,5.77,28.74,28.74,0,0,0-.86,7.19,27.46,27.46,0,0,0,1,8,15.64,15.64,0,0,0,3,5.73,12.5,12.5,0,0,0,4.82,3.49,16.82,16.82,0,0,0,6.38,1.16h35.14v6.46H856a22.46,22.46,0,0,1-9.3-1.81,18.87,18.87,0,0,1-6.81-5.08,22.3,22.3,0,0,1-4.18-7.8,33.57,33.57,0,0,1-1.42-10,34.1,34.1,0,0,1,1.42-10.08,22.24,22.24,0,0,1,4.14-7.79,18.35,18.35,0,0,1,6.8-5,22.84,22.84,0,0,1,9.35-1.81h23q7.31,0,11.45,4.09t4.13,11.33q0,7.23-4.13,11.32T879,392.92Z"/><path class="cls-3" d="M902.36,411.53V362.09h44.7q7.32,0,11.46,4.09t4.13,11.33q0,7.23-4.13,11.32t-11.46,4.09H905.63v-6.54h41.43c3,0,5.25-.7,6.8-2.11s2.33-3.66,2.33-6.76-.78-5.44-2.33-6.85-3.81-2.11-6.8-2.11H908.82v43Zm31.78-19.38h10.08L967,411.53H957Z"/><path class="cls-2" d="M936.72,588.76l-3.36,5.6-35.31-24.8h11Zm25.93-19.2V619h-6.46V579.2L911.49,619h-10l56-49.44Z"/><path class="cls-2" d="M891.33,588.16v6.55H849.9q-4.47,0-6.8,2.11c-1.55,1.4-2.33,3.66-2.33,6.76s.78,5.44,2.33,6.85,3.82,2.11,6.8,2.11h23a16.24,16.24,0,0,0,7-1.38,12.18,12.18,0,0,0,4.73-3.84,16.48,16.48,0,0,0,2.67-5.77,28.23,28.23,0,0,0,.86-7.19,27.53,27.53,0,0,0-1-8,15.82,15.82,0,0,0-3-5.72,12.36,12.36,0,0,0-4.83-3.49A16.58,16.58,0,0,0,872.9,576H837.76v-6.46H872.9a22.69,22.69,0,0,1,9.3,1.8,18.78,18.78,0,0,1,6.81,5.09,22.17,22.17,0,0,1,4.17,7.79,33.32,33.32,0,0,1,1.42,10,33.66,33.66,0,0,1-1.42,10.07,22.11,22.11,0,0,1-4.13,7.8,18.6,18.6,0,0,1-6.81,5A23,23,0,0,1,872.9,619h-23q-7.32,0-11.45-4.1t-4.14-11.32q0-7.25,4.14-11.33t11.45-4.09Z"/><path class="cls-2" d="M824,612.54V619H787.54a28,28,0,0,1-8.09-1.12,18.74,18.74,0,0,1-6.46-3.36,15.58,15.58,0,0,1-4.31-5.52,17.39,17.39,0,0,1-1.55-7.58V569.56h44.7q7.32,0,11.46,4.09T827.42,585q0,7.24-4.13,11.33t-11.46,4.09H770.4v-6.55h41.43q4.49,0,6.81-2.11c1.55-1.4,2.32-3.69,2.32-6.84s-.77-5.36-2.32-6.76-3.82-2.11-6.81-2.11H773.59v25.4a11.73,11.73,0,0,0,.86,4.61,9.1,9.1,0,0,0,2.63,3.49,12.12,12.12,0,0,0,4.39,2.24,21.4,21.4,0,0,0,6.07.78Z"/><path class="cls-2" d="M724.06,619H717.6V594.28a27.48,27.48,0,0,0-1-8,15.76,15.76,0,0,0-3-5.69,12.12,12.12,0,0,0-4.83-3.44,16.9,16.9,0,0,0-6.41-1.16H665.49v-6.46h36.87a23,23,0,0,1,9.34,1.8,18.6,18.6,0,0,1,6.81,5,22.27,22.27,0,0,1,4.13,7.8,33.68,33.68,0,0,1,1.42,10.08Z"/><path class="cls-2" d="M636.9,569.56a22.69,22.69,0,0,1,9.3,1.8,18.66,18.66,0,0,1,6.8,5.09,22.35,22.35,0,0,1,4.18,7.79,33.32,33.32,0,0,1,1.42,10,33.66,33.66,0,0,1-1.42,10.07,22.27,22.27,0,0,1-4.13,7.8,18.6,18.6,0,0,1-6.81,5A23,23,0,0,1,636.9,619H620a22.93,22.93,0,0,1-9.39-1.81,18.59,18.59,0,0,1-6.76-5,22.28,22.28,0,0,1-4.14-7.8,36.17,36.17,0,0,1,0-20.07,22.7,22.7,0,0,1,4.14-7.83,18.27,18.27,0,0,1,6.76-5.09,22.46,22.46,0,0,1,9.21-1.8ZM619.84,576a16.33,16.33,0,0,0-6.28,1.16,12.27,12.27,0,0,0-4.79,3.44,15.7,15.7,0,0,0-3,5.73,31.16,31.16,0,0,0,0,15.89,15.76,15.76,0,0,0,3,5.69,12.27,12.27,0,0,0,4.79,3.44,16.8,16.8,0,0,0,6.46,1.17H636.9a16.9,16.9,0,0,0,6.41-1.17,12.12,12.12,0,0,0,4.83-3.44,15.76,15.76,0,0,0,3-5.69,27.46,27.46,0,0,0,1-8,27.06,27.06,0,0,0-1-7.93,15.8,15.8,0,0,0-3-5.68,12.43,12.43,0,0,0-4.83-3.49A16.58,16.58,0,0,0,636.9,576Z"/><path class="cls-2" d="M574.36,593.84v6.55H546.72q-7.32,0-11.46-4.09T531.13,585V569.56h38.58a23,23,0,0,1,9.35,1.8,18.48,18.48,0,0,1,6.8,5,22.28,22.28,0,0,1,4.14,7.8,33.68,33.68,0,0,1,1.42,10.08,33.25,33.25,0,0,1-1.42,10,22.48,22.48,0,0,1-4.18,7.8,18.83,18.83,0,0,1-6.8,5.08,22.71,22.71,0,0,1-9.31,1.81H534.57v-6.46h35.14a16.63,16.63,0,0,0,6.38-1.17,12.4,12.4,0,0,0,4.82-3.49,15.82,15.82,0,0,0,3-5.68,27.37,27.37,0,0,0,1-7.92,27.83,27.83,0,0,0-1-8,15.62,15.62,0,0,0-3-5.69,12.08,12.08,0,0,0-4.82-3.44,16.91,16.91,0,0,0-6.42-1.16H537.59v9c0,3.1.77,5.36,2.32,6.76s3.82,2.11,6.81,2.11Z"/><path class="cls-2" d="M502.53,569.56a22.69,22.69,0,0,1,9.3,1.8,18.78,18.78,0,0,1,6.81,5.09,22.17,22.17,0,0,1,4.17,7.79,33.31,33.31,0,0,1,1.43,10,33.66,33.66,0,0,1-1.43,10.07,22.11,22.11,0,0,1-4.13,7.8,18.65,18.65,0,0,1-6.8,5,23,23,0,0,1-9.35,1.81H485.65a22.93,22.93,0,0,1-9.39-1.81,18.67,18.67,0,0,1-6.76-5,22.28,22.28,0,0,1-4.14-7.8,36.17,36.17,0,0,1,0-20.07,22.7,22.7,0,0,1,4.14-7.83,18.35,18.35,0,0,1,6.76-5.09,22.47,22.47,0,0,1,9.22-1.8Zm-17,6.46a16.35,16.35,0,0,0-6.29,1.16,12.16,12.16,0,0,0-4.78,3.44,15.7,15.7,0,0,0-3,5.73,30.87,30.87,0,0,0,0,15.89,15.76,15.76,0,0,0,3,5.69,12.16,12.16,0,0,0,4.78,3.44,16.83,16.83,0,0,0,6.46,1.17h16.88a17,17,0,0,0,6.42-1.17,12.15,12.15,0,0,0,4.82-3.44,15.76,15.76,0,0,0,3-5.69,27.44,27.44,0,0,0,1-8,27,27,0,0,0-1-7.93,15.8,15.8,0,0,0-3-5.68,12.36,12.36,0,0,0-4.83-3.49,16.55,16.55,0,0,0-6.37-1.16Z"/><path class="cls-2" d="M421.74,569.56V619h-6.46V600.39H371.35V619h-6.46V569.56h6.46v24.28h43.93V569.56Z"/><path class="cls-2" d="M353.87,588.16v6.55H312.44q-4.49,0-6.81,2.11c-1.55,1.4-2.32,3.66-2.32,6.76s.77,5.44,2.32,6.85,3.82,2.11,6.81,2.11h23a16.24,16.24,0,0,0,7-1.38,12.29,12.29,0,0,0,4.74-3.84,16.85,16.85,0,0,0,2.67-5.77,28.69,28.69,0,0,0,.86-7.19,27.88,27.88,0,0,0-1-8,15.84,15.84,0,0,0-3-5.72,12.4,12.4,0,0,0-4.82-3.49,16.63,16.63,0,0,0-6.38-1.16H300.29v-6.46h35.14a22.71,22.71,0,0,1,9.31,1.8,18.74,18.74,0,0,1,6.8,5.09,22.35,22.35,0,0,1,4.18,7.79,33.32,33.32,0,0,1,1.42,10,33.66,33.66,0,0,1-1.42,10.07,22.28,22.28,0,0,1-4.14,7.8,18.57,18.57,0,0,1-6.8,5,23,23,0,0,1-9.35,1.81h-23q-7.32,0-11.46-4.1t-4.13-11.32q0-7.25,4.13-11.33t11.46-4.09Z"/><path class="cls-2" d="M286.51,612.54V619H250.08a28.12,28.12,0,0,1-8.1-1.12,18.83,18.83,0,0,1-6.46-3.36,15.69,15.69,0,0,1-4.31-5.52,17.54,17.54,0,0,1-1.55-7.58V569.56h44.71q7.32,0,11.45,4.09T290,585q0,7.24-4.14,11.33t-11.45,4.09H232.94v-6.55h41.43q4.47,0,6.8-2.11c1.55-1.4,2.33-3.69,2.33-6.84s-.78-5.36-2.33-6.76-3.82-2.11-6.8-2.11H236.12v25.4A11.73,11.73,0,0,0,237,606a9.2,9.2,0,0,0,2.63,3.49,12.21,12.21,0,0,0,4.39,2.24,21.47,21.47,0,0,0,6.08.78Z"/><path class="cls-2" d="M221.05,569.56V619H182.46a22.93,22.93,0,0,1-9.39-1.81,18.76,18.76,0,0,1-6.76-5,22.27,22.27,0,0,1-4.13-7.8,33.66,33.66,0,0,1-1.42-10.07,33.32,33.32,0,0,1,1.42-10,22.35,22.35,0,0,1,4.18-7.79,18.66,18.66,0,0,1,6.8-5.09,22.69,22.69,0,0,1,9.3-1.8ZM214.59,576H182.46a16.58,16.58,0,0,0-6.37,1.16,12.33,12.33,0,0,0-4.82,3.49,15.69,15.69,0,0,0-3,5.72,27.53,27.53,0,0,0-1,8,27.13,27.13,0,0,0,1,7.88,15.76,15.76,0,0,0,3,5.69,12.23,12.23,0,0,0,4.78,3.44,16.87,16.87,0,0,0,6.46,1.17h32.13Z"/><path class="cls-2" d="M150.59,588.16v6.55H109.16q-4.47,0-6.8,2.11c-1.55,1.4-2.33,3.66-2.33,6.76s.78,5.44,2.33,6.85,3.82,2.11,6.8,2.11h23a16.24,16.24,0,0,0,7-1.38,12.29,12.29,0,0,0,4.74-3.84,16.85,16.85,0,0,0,2.67-5.77,28.69,28.69,0,0,0,.86-7.19,27.51,27.51,0,0,0-1-8,15.82,15.82,0,0,0-3-5.72,12.36,12.36,0,0,0-4.83-3.49,16.55,16.55,0,0,0-6.37-1.16H97v-6.46h35.14a22.66,22.66,0,0,1,9.3,1.8,18.78,18.78,0,0,1,6.81,5.09,22.35,22.35,0,0,1,4.18,7.79,33.64,33.64,0,0,1,1.42,10,34,34,0,0,1-1.42,10.07,22.28,22.28,0,0,1-4.14,7.8,18.65,18.65,0,0,1-6.8,5,23,23,0,0,1-9.35,1.81h-23q-7.32,0-11.45-4.1t-4.14-11.32q0-7.25,4.14-11.33t11.45-4.09Z"/><path class="cls-2" d="M54,588.94H44L21.22,569.56h10Zm31.78-19.38V619H41.12q-7.32,0-11.46-4.1t-4.13-11.32q0-7.25,4.13-11.33t11.46-4.09H82.55v6.55H41.12q-4.48,0-6.81,2.11c-1.55,1.4-2.32,3.66-2.32,6.76s.77,5.44,2.32,6.85,3.82,2.11,6.81,2.11H79.36v-43Z"/><path class="cls-2" d="M937.33,519.64l-4.48,7.41-34.8-25.59h14.56Zm25.32-18.18V550.9H954V514.3l-39.28,36.6H901.49l54.27-49.44Z"/><path class="cls-2" d="M890.3,519v8.62H849.9q-3.52,0-5.25,1.72t-1.72,5.6q0,3.87,1.72,5.6t5.25,1.72h23a14.07,14.07,0,0,0,6.24-1.25,10.26,10.26,0,0,0,4.05-3.44,14.59,14.59,0,0,0,2.16-5.09,28.54,28.54,0,0,0,.64-6.24,26,26,0,0,0-.9-7.28,13.39,13.39,0,0,0-2.63-5,10.64,10.64,0,0,0-4.13-2.93,14.8,14.8,0,0,0-5.43-.94H837.76v-8.62H872.9a22.69,22.69,0,0,1,9.3,1.81,18.87,18.87,0,0,1,6.81,5.08,22.21,22.21,0,0,1,4.17,7.8,33.25,33.25,0,0,1,1.42,10,33.68,33.68,0,0,1-1.42,10.08,22.19,22.19,0,0,1-4.13,7.8,18.47,18.47,0,0,1-6.81,5,22.79,22.79,0,0,1-9.34,1.81h-23q-7.32,0-11.45-4.35T834.31,535q0-7.23,4.14-11.59T849.9,519Z"/><path class="cls-2" d="M824,542.29v8.61H787.54a27.66,27.66,0,0,1-8.09-1.12,18.4,18.4,0,0,1-6.46-3.36,15.54,15.54,0,0,1-4.31-5.51,17.43,17.43,0,0,1-1.55-7.58V501.46h44.7q7.32,0,11.46,4.35t4.13,11.59q0,7.23-4.13,11.58t-11.46,4.35h-40.4v-8.61h40.4a7.19,7.19,0,0,0,5.26-1.72c1.14-1.15,1.72-3,1.72-5.6s-.58-4.45-1.72-5.6-2.9-1.72-5.26-1.72H775.74v23.25a9.8,9.8,0,0,0,.65,3.62,7.14,7.14,0,0,0,2.06,2.84,9.67,9.67,0,0,0,3.67,1.85,19.38,19.38,0,0,0,5.42.65Z"/><path class="cls-2" d="M724.06,550.9h-8.61V526.18a25.87,25.87,0,0,0-.9-7.27,13.35,13.35,0,0,0-2.59-5,10.42,10.42,0,0,0-4.13-2.89,15.13,15.13,0,0,0-5.47-.94H665.49v-8.62h36.87a23,23,0,0,1,9.34,1.81,18.6,18.6,0,0,1,6.81,5,22.18,22.18,0,0,1,4.13,7.8,33.66,33.66,0,0,1,1.42,10.07Z"/><path class="cls-2" d="M636.9,501.46a22.69,22.69,0,0,1,9.3,1.81,18.75,18.75,0,0,1,6.8,5.08,22.39,22.39,0,0,1,4.18,7.8,33.25,33.25,0,0,1,1.42,10,33.68,33.68,0,0,1-1.42,10.08,22.36,22.36,0,0,1-4.13,7.8,18.47,18.47,0,0,1-6.81,5,22.79,22.79,0,0,1-9.34,1.81H620a22.77,22.77,0,0,1-9.39-1.81,18.45,18.45,0,0,1-6.76-5,22.37,22.37,0,0,1-4.14-7.8,36.17,36.17,0,0,1,0-20.07,22.84,22.84,0,0,1,4.14-7.84,18.35,18.35,0,0,1,6.76-5.08,22.46,22.46,0,0,1,9.21-1.81Zm-17.06,8.62a14.54,14.54,0,0,0-5.34.94,10.5,10.5,0,0,0-4.09,2.89,13.2,13.2,0,0,0-2.58,5,29.54,29.54,0,0,0,0,14.55,13.2,13.2,0,0,0,2.58,5,10.26,10.26,0,0,0,4.14,2.88,15.09,15.09,0,0,0,5.47.95H636.9a15.13,15.13,0,0,0,5.47-.95,10.3,10.3,0,0,0,4.13-2.88,13.35,13.35,0,0,0,2.59-5,26,26,0,0,0,.9-7.28,25.48,25.48,0,0,0-.9-7.23,13.43,13.43,0,0,0-2.63-5,10.6,10.6,0,0,0-4.14-2.93,14.71,14.71,0,0,0-5.42-.94Z"/><path class="cls-2" d="M574.36,524.72v8.61H546.72q-7.32,0-11.46-4.35t-4.13-11.58V501.46h38.58a23,23,0,0,1,9.35,1.81,18.48,18.48,0,0,1,6.8,5,22.2,22.2,0,0,1,4.14,7.8,33.66,33.66,0,0,1,1.42,10.07,33.32,33.32,0,0,1-1.42,10,22.35,22.35,0,0,1-4.18,7.79,18.72,18.72,0,0,1-6.8,5.08,22.55,22.55,0,0,1-9.31,1.81H534.57v-8.61h35.14a14.8,14.8,0,0,0,5.43-.95,10.3,10.3,0,0,0,4.13-2.93,13.24,13.24,0,0,0,2.63-5,25.48,25.48,0,0,0,.91-7.24,25.85,25.85,0,0,0-.91-7.27,13.2,13.2,0,0,0-2.58-5,10.38,10.38,0,0,0-4.14-2.89,15.09,15.09,0,0,0-5.47-.94h-30v7.32q0,3.87,1.72,5.6a7.19,7.19,0,0,0,5.26,1.72Z"/><path class="cls-2" d="M502.53,501.46a22.69,22.69,0,0,1,9.3,1.81,18.87,18.87,0,0,1,6.81,5.08,22.21,22.21,0,0,1,4.17,7.8,33.25,33.25,0,0,1,1.43,10,33.68,33.68,0,0,1-1.43,10.08,22.19,22.19,0,0,1-4.13,7.8,18.52,18.52,0,0,1-6.8,5,22.87,22.87,0,0,1-9.35,1.81H485.65a22.77,22.77,0,0,1-9.39-1.81,18.54,18.54,0,0,1-6.76-5,22.37,22.37,0,0,1-4.14-7.8,36.17,36.17,0,0,1,0-20.07,22.84,22.84,0,0,1,4.14-7.84,18.44,18.44,0,0,1,6.76-5.08,22.47,22.47,0,0,1,9.22-1.81Zm-17,8.62a14.46,14.46,0,0,0-5.34.94,10.46,10.46,0,0,0-4.1,2.89,13.2,13.2,0,0,0-2.58,5,29.85,29.85,0,0,0,0,14.55,13.2,13.2,0,0,0,2.58,5,10.26,10.26,0,0,0,4.14,2.88,15.09,15.09,0,0,0,5.47.95h16.88a15.13,15.13,0,0,0,5.47-.95,10.23,10.23,0,0,0,4.13-2.88,13.35,13.35,0,0,0,2.59-5,26,26,0,0,0,.9-7.28,25.48,25.48,0,0,0-.9-7.23,13.43,13.43,0,0,0-2.63-5A10.64,10.64,0,0,0,508,511a14.8,14.8,0,0,0-5.43-.94Z"/><path class="cls-2" d="M421.74,501.46V550.9h-8.61V533.33H373.5V550.9h-8.61V501.46h8.61v23.26h39.63V501.46Z"/><path class="cls-2" d="M352.83,519v8.62H312.44q-3.54,0-5.26,1.72t-1.72,5.6q0,3.87,1.72,5.6t5.26,1.72h23a14.15,14.15,0,0,0,6.25-1.25,10.4,10.4,0,0,0,4.05-3.44,14.58,14.58,0,0,0,2.15-5.09,28.53,28.53,0,0,0,.65-6.24,26,26,0,0,0-.91-7.28,13.25,13.25,0,0,0-2.63-5,10.5,10.5,0,0,0-4.13-2.93,14.8,14.8,0,0,0-5.43-.94H300.29v-8.62h35.14a22.71,22.71,0,0,1,9.31,1.81,18.83,18.83,0,0,1,6.8,5.08,22.39,22.39,0,0,1,4.18,7.8,33.25,33.25,0,0,1,1.42,10,33.68,33.68,0,0,1-1.42,10.08,22.37,22.37,0,0,1-4.14,7.8,18.43,18.43,0,0,1-6.8,5,22.84,22.84,0,0,1-9.35,1.81h-23q-7.32,0-11.46-4.35T296.85,535q0-7.23,4.13-11.59T312.44,519Z"/><path class="cls-2" d="M286.51,542.29v8.61H250.08a27.78,27.78,0,0,1-8.1-1.12,18.49,18.49,0,0,1-6.46-3.36,15.66,15.66,0,0,1-4.31-5.51,17.57,17.57,0,0,1-1.55-7.58V501.46h44.71q7.32,0,11.45,4.35T290,517.4q0,7.23-4.14,11.58t-11.45,4.35H234v-8.61h40.4a7.18,7.18,0,0,0,5.25-1.72q1.72-1.72,1.72-5.6c0-2.59-.57-4.45-1.72-5.6s-2.9-1.72-5.25-1.72H238.28v23.25a9.8,9.8,0,0,0,.64,3.62,7.07,7.07,0,0,0,2.07,2.84,9.7,9.7,0,0,0,3.66,1.85,19.41,19.41,0,0,0,5.43.65Z"/><path class="cls-2" d="M221.05,501.46V550.9H182.46a22.77,22.77,0,0,1-9.39-1.81,18.62,18.62,0,0,1-6.76-5,22.36,22.36,0,0,1-4.13-7.8,33.68,33.68,0,0,1-1.42-10.08,33.25,33.25,0,0,1,1.42-10,22.39,22.39,0,0,1,4.18-7.8,18.75,18.75,0,0,1,6.8-5.08,22.69,22.69,0,0,1,9.3-1.81Zm-8.61,8.62h-30A14.71,14.71,0,0,0,177,511,10.6,10.6,0,0,0,172.9,514a13.39,13.39,0,0,0-2.63,5,26,26,0,0,0-.9,7.28,25.6,25.6,0,0,0,.9,7.24,13.43,13.43,0,0,0,2.59,5,10.3,10.3,0,0,0,4.13,2.88,15.13,15.13,0,0,0,5.47.95h30Z"/><path class="cls-2" d="M149.56,519v8.62h-40.4q-3.52,0-5.25,1.72t-1.72,5.6q0,3.87,1.72,5.6t5.25,1.72h23a14.15,14.15,0,0,0,6.25-1.25,10.3,10.3,0,0,0,4-3.44,14.41,14.41,0,0,0,2.16-5.09,28.54,28.54,0,0,0,.64-6.24,26,26,0,0,0-.9-7.28,13.25,13.25,0,0,0-2.63-5,10.57,10.57,0,0,0-4.13-2.93,14.8,14.8,0,0,0-5.43-.94H97v-8.62h35.14a22.66,22.66,0,0,1,9.3,1.81,18.87,18.87,0,0,1,6.81,5.08,22.39,22.39,0,0,1,4.18,7.8,33.57,33.57,0,0,1,1.42,10,34,34,0,0,1-1.42,10.08,22.37,22.37,0,0,1-4.14,7.8,18.52,18.52,0,0,1-6.8,5,22.87,22.87,0,0,1-9.35,1.81h-23q-7.32,0-11.45-4.35T93.57,535q0-7.23,4.14-11.59T109.16,519Z"/><path class="cls-2" d="M56.45,520.07H43.19l-22-18.61H34.49Zm29.37-18.61V550.9H41.12q-7.32,0-11.46-4.35T25.53,535q0-7.23,4.13-11.59T41.12,519h40.4v8.62H41.12c-2.35,0-4.11.57-5.26,1.72s-1.72,3-1.72,5.6.58,4.45,1.72,5.6,2.91,1.72,5.26,1.72H77.21V501.46Z"/><path class="cls-3" d="M25.53,479.62V430.18h8.61v36.61l39.28-36.61H86.68L32.42,479.62Zm25.32-18.17L55.33,454l34.8,25.58H75.57Z"/><path class="cls-3" d="M97.88,462.05v-8.61h40.4a7.18,7.18,0,0,0,5.25-1.72q1.72-1.73,1.72-5.6c0-2.59-.57-4.45-1.72-5.6s-2.9-1.72-5.25-1.72h-23A14.15,14.15,0,0,0,109,440a10.4,10.4,0,0,0-4,3.45,14.35,14.35,0,0,0-2.16,5.08,28.7,28.7,0,0,0-.64,6.25,25.87,25.87,0,0,0,.9,7.27,13.25,13.25,0,0,0,2.63,5,10.37,10.37,0,0,0,4.13,2.93,14.8,14.8,0,0,0,5.43.95h35.14v8.61H115.28a22.53,22.53,0,0,1-9.3-1.81,18.64,18.64,0,0,1-6.81-5.08A22.35,22.35,0,0,1,95,464.94a33.64,33.64,0,0,1-1.42-10A34.1,34.1,0,0,1,95,444.82,22.24,22.24,0,0,1,99.13,437a18.65,18.65,0,0,1,6.8-5,23,23,0,0,1,9.35-1.81h23q7.32,0,11.45,4.35t4.14,11.59q0,7.23-4.14,11.58t-11.45,4.35Z"/><path class="cls-3" d="M164.2,438.8v-8.62h36.44a28.1,28.1,0,0,1,8.09,1.12,18.83,18.83,0,0,1,6.46,3.36,15.63,15.63,0,0,1,4.31,5.51,17.6,17.6,0,0,1,1.55,7.58v31.87h-44.7q-7.32,0-11.46-4.35t-4.13-11.58q0-7.24,4.13-11.59t11.46-4.35h40.39v8.62H176.35q-3.54,0-5.26,1.72c-1.15,1.15-1.72,3-1.72,5.6s.57,4.45,1.72,5.6S174,471,176.35,471h36.09V447.75a9.74,9.74,0,0,0-.65-3.61,7.17,7.17,0,0,0-2.07-2.85,9.69,9.69,0,0,0-3.66-1.85,19.79,19.79,0,0,0-5.42-.64Z"/><path class="cls-3" d="M264.12,430.18h8.61V454.9a26,26,0,0,0,.9,7.28,13.43,13.43,0,0,0,2.59,5,10.3,10.3,0,0,0,4.13,2.88,15.13,15.13,0,0,0,5.47.95h36.87v8.61H285.82a22.79,22.79,0,0,1-9.34-1.81,18.47,18.47,0,0,1-6.81-5,22.19,22.19,0,0,1-4.13-7.8,33.68,33.68,0,0,1-1.42-10.08Z"/><path class="cls-3" d="M351.28,479.62a22.53,22.53,0,0,1-9.3-1.81,18.64,18.64,0,0,1-6.81-5.08,22.33,22.33,0,0,1-4.17-7.79,33.32,33.32,0,0,1-1.42-10A33.78,33.78,0,0,1,331,444.82a22.06,22.06,0,0,1,4.13-7.79,18.6,18.6,0,0,1,6.81-5,23,23,0,0,1,9.34-1.81h16.88a22.93,22.93,0,0,1,9.39,1.81,18.67,18.67,0,0,1,6.76,5,22.24,22.24,0,0,1,4.14,7.79,34.1,34.1,0,0,1,1.42,10.08,33.68,33.68,0,0,1-1.42,10,22.65,22.65,0,0,1-4.14,7.84,18.22,18.22,0,0,1-6.76,5.08,22.3,22.3,0,0,1-9.21,1.81ZM368.34,471a14.54,14.54,0,0,0,5.34-.95,10.37,10.37,0,0,0,4.09-2.88,13.28,13.28,0,0,0,2.58-5,29.58,29.58,0,0,0,0-14.56,13.23,13.23,0,0,0-2.58-5,10.38,10.38,0,0,0-4.14-2.89,15.09,15.09,0,0,0-5.47-.94H351.28a15.13,15.13,0,0,0-5.47.94,10.42,10.42,0,0,0-4.13,2.89,13.38,13.38,0,0,0-2.59,5,26,26,0,0,0-.9,7.28,25.5,25.5,0,0,0,.9,7.24,13.39,13.39,0,0,0,2.63,5,10.44,10.44,0,0,0,4.13,2.93,14.8,14.8,0,0,0,5.43.95Z"/><path class="cls-3" d="M413.81,456.37v-8.62h27.65q7.32,0,11.46,4.35t4.13,11.59v15.93H418.46a22.82,22.82,0,0,1-9.34-1.81,18.47,18.47,0,0,1-6.81-5,22.52,22.52,0,0,1-4.13-7.8,33.68,33.68,0,0,1-1.42-10.08,33.25,33.25,0,0,1,1.42-10,22.39,22.39,0,0,1,4.18-7.8,18.75,18.75,0,0,1,6.8-5.08,22.69,22.69,0,0,1,9.3-1.81h35.15v8.62H418.46a14.71,14.71,0,0,0-5.42.94,10.6,10.6,0,0,0-4.14,2.93,13.28,13.28,0,0,0-2.62,5,25.1,25.1,0,0,0-.91,7.23,25.56,25.56,0,0,0,.91,7.28,13.28,13.28,0,0,0,2.58,5,10.26,10.26,0,0,0,4.14,2.88,15,15,0,0,0,5.46.95h30v-7.32c0-2.59-.58-4.45-1.72-5.6s-2.9-1.72-5.26-1.72Z"/><path class="cls-3" d="M485.65,479.62a22.46,22.46,0,0,1-9.3-1.81,18.64,18.64,0,0,1-6.81-5.08,22.35,22.35,0,0,1-4.18-7.79,33.64,33.64,0,0,1-1.42-10,34.1,34.1,0,0,1,1.42-10.08A22.24,22.24,0,0,1,469.5,437a18.57,18.57,0,0,1,6.8-5,23,23,0,0,1,9.35-1.81h16.88a22.93,22.93,0,0,1,9.39,1.81,18.67,18.67,0,0,1,6.76,5,22.06,22.06,0,0,1,4.13,7.79,33.77,33.77,0,0,1,1.43,10.08,33.35,33.35,0,0,1-1.43,10,22.47,22.47,0,0,1-4.13,7.84,18.22,18.22,0,0,1-6.76,5.08,22.31,22.31,0,0,1-9.22,1.81ZM502.7,471a14.54,14.54,0,0,0,5.34-.95,10.3,10.3,0,0,0,4.09-2.88,13.29,13.29,0,0,0,2.59-5,29.89,29.89,0,0,0,0-14.56,13.24,13.24,0,0,0-2.59-5,10.35,10.35,0,0,0-4.13-2.89,15.13,15.13,0,0,0-5.47-.94H485.65a15.13,15.13,0,0,0-5.47.94,10.38,10.38,0,0,0-4.14,2.89,13.37,13.37,0,0,0-2.58,5,26,26,0,0,0-.9,7.28,25.5,25.5,0,0,0,.9,7.24,13.24,13.24,0,0,0,2.63,5,10.37,10.37,0,0,0,4.13,2.93,14.8,14.8,0,0,0,5.43.95Z"/><path class="cls-3" d="M566.44,479.62V430.18h8.61v17.57h39.62V430.18h8.62v49.44h-8.62V456.37H575.05v23.25Z"/><path class="cls-3" d="M635.35,462.05v-8.61h40.39a7.19,7.19,0,0,0,5.26-1.72c1.14-1.15,1.72-3,1.72-5.6s-.58-4.45-1.72-5.6-2.9-1.72-5.26-1.72h-23A14.11,14.11,0,0,0,646.5,440a10.5,10.5,0,0,0-4,3.45,14.52,14.52,0,0,0-2.15,5.08,28.69,28.69,0,0,0-.65,6.25,25.49,25.49,0,0,0,.91,7.27,13.24,13.24,0,0,0,2.62,5,10.4,10.4,0,0,0,4.14,2.93,14.74,14.74,0,0,0,5.42.95h35.15v8.61H652.74a22.53,22.53,0,0,1-9.3-1.81,18.61,18.61,0,0,1-6.8-5.08,22.35,22.35,0,0,1-4.18-7.79,33.32,33.32,0,0,1-1.42-10,33.78,33.78,0,0,1,1.42-10.08A22.24,22.24,0,0,1,636.6,437a18.48,18.48,0,0,1,6.8-5,23,23,0,0,1,9.34-1.81h23q7.32,0,11.46,4.35t4.13,11.59q0,7.23-4.13,11.58t-11.46,4.35Z"/><path class="cls-3" d="M701.67,438.8v-8.62H738.1a28.12,28.12,0,0,1,8.1,1.12,18.83,18.83,0,0,1,6.46,3.36,15.75,15.75,0,0,1,4.31,5.51,17.6,17.6,0,0,1,1.55,7.58v31.87H713.81q-7.32,0-11.45-4.35t-4.14-11.58q0-7.24,4.14-11.59t11.45-4.35h40.4v8.62h-40.4q-3.52,0-5.25,1.72c-1.15,1.15-1.72,3-1.72,5.6s.57,4.45,1.72,5.6,2.9,1.72,5.25,1.72H749.9V447.75a9.74,9.74,0,0,0-.64-3.61,7.17,7.17,0,0,0-2.07-2.85,9.85,9.85,0,0,0-3.66-1.85,19.82,19.82,0,0,0-5.43-.64Z"/><path class="cls-3" d="M767.13,479.62V430.18h38.59A22.88,22.88,0,0,1,815.1,432a18.71,18.71,0,0,1,6.77,5,22.38,22.38,0,0,1,4.13,7.79,33.78,33.78,0,0,1,1.42,10.08,33.32,33.32,0,0,1-1.42,10,22.35,22.35,0,0,1-4.18,7.79,18.61,18.61,0,0,1-6.8,5.08,22.53,22.53,0,0,1-9.3,1.81Zm8.61-8.61h30a14.74,14.74,0,0,0,5.42-.95,10.4,10.4,0,0,0,4.14-2.93,13.38,13.38,0,0,0,2.62-5,25.49,25.49,0,0,0,.91-7.27,25.12,25.12,0,0,0-.91-7.24,13.19,13.19,0,0,0-2.58-4.95,10.38,10.38,0,0,0-4.14-2.89,15,15,0,0,0-5.46-.94h-30Z"/><path class="cls-3" d="M838.62,462.05v-8.61H879a7.18,7.18,0,0,0,5.25-1.72Q886,450,886,446.12c0-2.59-.57-4.45-1.72-5.6s-2.9-1.72-5.25-1.72H856a14.15,14.15,0,0,0-6.25,1.24,10.4,10.4,0,0,0-4,3.45,14.35,14.35,0,0,0-2.16,5.08,28.7,28.7,0,0,0-.64,6.25,25.87,25.87,0,0,0,.9,7.27,13.25,13.25,0,0,0,2.63,5,10.3,10.3,0,0,0,4.13,2.93A14.8,14.8,0,0,0,856,471h35.14v8.61H856a22.46,22.46,0,0,1-9.3-1.81,18.64,18.64,0,0,1-6.81-5.08,22.35,22.35,0,0,1-4.18-7.79,33.64,33.64,0,0,1-1.42-10,34.1,34.1,0,0,1,1.42-10.08,22.24,22.24,0,0,1,4.14-7.79,18.57,18.57,0,0,1,6.8-5,23,23,0,0,1,9.35-1.81h23q7.31,0,11.45,4.35t4.13,11.59q0,7.23-4.13,11.58T879,462.05Z"/><path class="cls-3" d="M902.36,479.62V430.18h44.7q7.32,0,11.46,4.35t4.13,11.59q0,7.23-4.13,11.58t-11.46,4.35h-40.4v-8.61h40.4a7.18,7.18,0,0,0,5.25-1.72Q954,450,954,446.12c0-2.59-.58-4.45-1.73-5.6s-2.9-1.72-5.25-1.72H911v40.82ZM931.73,461H945l22,18.6H953.69Z"/></g></g></svg>
